<?xml version="1.0" standalone="no"?>
<!DOCTYPE svg PUBLIC "-//W3C//DTD SVG 1.1//EN" "http://www.w3.org/Graphics/SVG/1.1/DTD/svg11.dtd" >
<svg>
<metadata>
Created by FontForge 20090914 at Thu Feb 19 20:09:43 2015
 By www-data
&#194;&#169; 2006 Microsoft Corporation. All Rights Reserved.
</metadata>
<defs>
<font id="Wingdings-Regular" horiz-adv-x="1825" >
  <font-face 
    font-family="Wingdings"
    font-weight="400"
    font-stretch="normal"
    units-per-em="2048"
    panose-1="5 0 0 0 0 0 0 0 0 0"
    ascent="1638"
    descent="-410"
    x-height="1159"
    cap-height="1604"
    bbox="0 -432 2783 1841"
    underline-thickness="100"
    underline-position="-150"
    unicode-range="U+0008-U+FB02"
  />
<missing-glyph horiz-adv-x="1024" 
d="M128 0v1480h768v-1480h-768zM256 128h512v1224h-512v-1224z" />
    <glyph glyph-name=".notdef" horiz-adv-x="1024" 
d="M128 0v1480h768v-1480h-768zM256 128h512v1224h-512v-1224z" />
    <glyph glyph-name="uni001D" horiz-adv-x="0" 
 />
    <glyph glyph-name="uni001D" horiz-adv-x="0" 
 />
    <glyph glyph-name="uni001D" unicode="&#xd;" horiz-adv-x="0" 
 />
    <glyph glyph-name="uni001D" horiz-adv-x="0" 
 />
    <glyph glyph-name="space" unicode="&#x9;" horiz-adv-x="2048" 
 />
    <glyph glyph-name="space" unicode=" " horiz-adv-x="2048" 
 />
    <glyph glyph-name="pencil" unicode="!" horiz-adv-x="2110" 
d="M74 -37l330 507l1375 1047c157.333 -47.333 243 -158.333 257 -333l-1379 -1047zM1534 1268c100.667 -53.333 163.332 -138.001 187.999 -254.001l257 195c-23.333 122.667 -86.666 206.334 -189.999 251.001zM525.998 501.999c11.333 2.66699 20.667 4 28 4
c26.667 0 40 -12.667 40 -38l-1 -10l829 635c-22 16.667 -43.667 29.667 -65 39zM621.999 419.999c30.667 -7.33301 46 -27 46 -59l833 638c-10 22 -24 41.667 -42 59zM696.999 321.999c12.667 -0.666992 22 -3.83203 28 -9.49902s9 -13.834 9 -24.501
c0 -9.33301 -4.33301 -23 -13 -41l828 633c-8 28.667 -16.667 53.667 -26 75zM257.999 157.001l56.9971 -72l311 92c45.333 40 68 69.667 68 89c0 8 -2.16699 13.833 -6.5 17.5s-11.166 5.5 -20.499 5.5c-19.333 0 -52.666 -11.667 -99.999 -35c40 38 60 69.667 60 95
c0 12.667 -3.5 22.167 -10.5 28.5s-17.833 9.5 -32.5 9.5c-15.333 0 -46.666 -11.333 -93.999 -34c42 36 63 67.667 63 95c0 7.33301 -2 12.833 -6 16.5s-10.333 5.5 -19 5.5c-30 0 -62 -13 -96 -39z" />
    <glyph glyph-name="scissors" unicode="&#x22;" horiz-adv-x="2344" 
d="M944 871l-140.999 -86.002l-75 45c-13.333 40 -59 77 -137 111l-208 91c-156.667 68.667 -235 153.667 -235 255c0 54 20.167 99.667 60.5 137s89.166 56 146.499 56c82 0 154 -27.667 216 -83c61.333 -55.333 92 -119.666 92 -192.999
c0 -5.33301 -1.33301 -23.666 -4 -54.999l-1 -23c-1.33301 -14.667 -2 -25.667 -2 -33c0 -48 38 -89.333 114 -124c13.333 -6.66699 26.333 -13.667 39 -21zM738.001 682.998l1130 704.999c19.333 2.66699 37.666 4 54.999 4c92 0 183 -18.333 273 -55l-1201 -697
c-37.333 -22 -63 -35.667 -77 -41l-22 -8c-57.333 -21.333 -86 -59.666 -86 -114.999v-9l2 -25l3 -49c4.66699 -90.667 -44.333 -178.667 -147 -264c-102.667 -86 -210.667 -129 -324 -129c-57.333 0 -104.333 14.5 -141 43.5s-55 65.833 -55 110.5c0 58 57 122.667 171 194
l317 198c69.333 43.333 104 82.333 104 117c0 4 -0.666992 10.667 -2 20zM1063 619.997l154 92l979 -562c-82 -33.333 -160.333 -50 -235 -50c-30 0 -62.333 2.66699 -97 8zM355.002 1132l48.999 -23.999c44 -20.667 79.667 -31 107 -31c53.333 0 80 37.333 80 112
c0 54.667 -24.667 105 -74 151s-103.666 69 -162.999 69c-35.333 0 -65.833 -12.333 -91.5 -37s-38.5 -54 -38.5 -88c0 -56.667 43.667 -107.334 131 -152.001zM558.001 410.998l-229 -143c-70 -44 -105 -82.333 -105 -115c0 -26.667 10.667 -46.667 32 -60
s53.333 -20 96 -20c88 0 174.333 34.333 259 103s127 138.667 127 210c0 48 -21 72 -63 72c-25.333 0 -64.333 -15.667 -117 -47zM994.001 692.998c32.667 0 49 15.667 49 47s-16.333 47 -49 47c-32 0 -48 -15.667 -48 -47s16 -47 48 -47z" />
    <glyph glyph-name="scissorscutting" unicode="#" horiz-adv-x="2665" 
d="M1190 753l-164 -14.001l-48 72c2 11.333 3 20.666 3 27.999c0 28 -25.667 72 -77 132l-147 174c-78.667 92.667 -118 175.667 -118 249c0 52.667 18.667 97.334 56 134.001s83 55 137 55c70 0 133.333 -31 190 -93s85 -131.333 85 -208
c0 -45.333 -17 -96.666 -51 -153.999l-12 -20c-18 -30.667 -27 -56 -27 -76c0 -27.333 19.667 -65.333 59 -114c9.33301 -11.333 18.333 -23.333 27 -36zM922 674.999l1325 138c96.667 -31.333 186.667 -94 270 -188l-1383 -101c-31.333 -2.66699 -52.333 -4 -63 -4
c-9.33301 0 -17 0.333008 -23 1l-24 2c-9.33301 1.33301 -18.333 2 -27 2c-49.333 0 -84 -25 -104 -75l-10 -24c-62 -156.667 -197.667 -235 -407 -235c-96 0 -174.667 19.5 -236 58.5s-92 88.5 -92 148.5c0 50.667 17.833 87.334 53.5 110.001s101.5 39 197.5 49l372 40
c58 6 95.833 13.667 113.5 23s30.167 27.666 37.5 54.999zM1187 475.999l180 15l332 -491h-221zM775 1246l34.002 -42c44 -55.333 83.333 -83 118 -83c25.333 0 48.666 15.5 69.999 46.5s32 65.167 32 102.5c0 61.333 -19.667 116.666 -59 165.999s-83 74 -131 74
c-34.667 0 -64.334 -11.667 -89.001 -35s-37 -51.333 -37 -84c0 -41.333 20.667 -89.666 62 -144.999zM642.002 509.999l-269 -29c-100.667 -10.667 -151 -38.667 -151 -84c0 -36.667 24.333 -67.834 73 -93.501s107.667 -38.5 177 -38.5c88 0 165.167 18.333 231.5 55
s99.5 79.334 99.5 128.001c0 42.667 -33.333 64 -100 64c-22.667 0 -43 -0.666992 -61 -2zM1182 565.999c30 0 45 16.667 45 50c0 30.667 -17.667 46 -53 46c-30 0 -45 -16.333 -45 -49c0 -31.333 17.667 -47 53 -47z" />
    <glyph glyph-name="readingglasses" unicode="$" horiz-adv-x="2752" 
d="M1662 381l406 421.996c141.333 147.333 262.333 221 363 221c72.667 0 132 -25.5 178 -76.5s69 -116.833 69 -197.5c0 -69.333 -15 -104 -45 -104c-27.333 0 -41 14 -41 42c0 6.66699 1 13.334 3 20.001l8 24c10 29.333 15 52 15 68c0 48 -18.167 89 -54.5 123
s-80.166 51 -131.5 51c-88 0 -200.333 -72.333 -337 -217l-433 -456c-16 -87.333 -57.5 -159.333 -124.5 -216s-143.833 -85 -230.5 -85c-101.333 0 -182.5 31.667 -243.5 95s-98.833 155.333 -113.5 276c12 15.333 18 30 18 44c0 20 -7.66699 35 -23 45s-38.333 15 -69 15
c-64.667 0 -97 -20.667 -97 -62c0 -14 6.66699 -28 20 -42c-20.667 -127.333 -60.5 -221 -119.5 -281s-140.167 -90 -243.5 -90c-101.333 0 -187 36.833 -257 110.5s-105 163.834 -105 270.501l466 474c112 114 215 171 309 171c70 0 127.833 -25.667 173.5 -77
s68.5 -116.666 68.5 -195.999c0 -69.333 -15 -104 -45 -104c-27.333 0 -41 13.667 -41 41c0 6.66699 1 13.334 3 20.001l8 25c10 29.333 15 52 15 68c0 47.333 -17.333 87.5 -52 120.5s-76.667 49.5 -126 49.5c-88 0 -185 -54.333 -291 -163l-417 -429h499
c59.333 0 89 11 89 33v19c0 60 49.333 90 148 90c36.667 0 68 -8.66699 94 -26c26 -18 39 -39.333 39 -64v-13c0 -26 30.333 -39 91 -39h557zM585 330.996h-303c-62 0 -100.833 -2.33301 -116.5 -7s-23.5 -16.667 -23.5 -36c0 -54 32.333 -106.167 97 -156.5
s132 -75.5 202 -75.5c68.667 0 131.167 21.667 187.5 65s84.5 92 84.5 146c0 26.667 -7.83301 44 -23.5 52s-50.5 12 -104.5 12zM1482 330.996h-300c-63.333 0 -104 -4 -122 -12s-27 -26.333 -27 -55c0 -52 28.5 -99.667 85.5 -143s119.833 -65 188.5 -65
c68 0 134.5 25.333 199.5 76s97.5 102.667 97.5 156c0 28.667 -40.667 43 -122 43z" />
    <glyph glyph-name="bell" unicode="%" horiz-adv-x="1830" 
d="M835 1431c0 57.333 26.668 86 80.001 86s80 -28.667 80 -86c138.667 -14.667 245 -75.334 319 -182.001c29.333 -42 54.666 -100.667 75.999 -176s32 -143.333 32 -204v-72c0 -66.667 11.5 -125.167 34.5 -175.5s70.167 -121.833 141.5 -214.5l38 -50
c30.667 -40 46 -77.333 46 -112c0 -82 -72.167 -149.5 -216.5 -202.5s-327.833 -79.5 -550.5 -79.5c-223.333 0 -407 26.5 -551 79.5s-216 120.5 -216 202.5c0 34.667 15.333 72 46 112l38 50c71.333 92.667 118.333 164.167 141 214.5s34 108.833 34 175.5v72
c0 60.667 10.833 128.667 32.5 204s47.167 134 76.5 176c74 106.667 180.333 167.334 319 182.001zM280.001 385c178 72 389.998 107.999 635.998 107.999c245.333 0 457 -36 635 -108c-72.667 98 -120.667 172.5 -144 223.5s-35 106.5 -35 166.5l-3 92
c0 130 -28.667 244 -86 342c-71.333 123.333 -193.666 185 -366.999 185s-296 -61.667 -368 -185c-56.667 -98 -85 -212 -85 -342l-3 -92c0 -60 -11.667 -115.167 -35 -165.5s-71.666 -125.166 -144.999 -224.499zM459.999 394.999
c-175.333 -51.333 -262.999 -104.667 -262.999 -160c0 -60.667 70.667 -113 212 -157s309.666 -66 504.999 -66c198 0 367.167 22 507.5 66s210.5 97 210.5 159c0 54 -72.5 102 -217.5 144s-310.833 63 -497.5 63c-28.667 0 -64.334 -1 -107.001 -3
c5.33301 -17.333 8 -33 8 -47c0 -51.333 -17.167 -94.833 -51.5 -130.5s-76.166 -53.5 -125.499 -53.5c-52 0 -95.167 17.5 -129.5 52.5s-51.5 79.167 -51.5 132.5z" />
    <glyph glyph-name="book" unicode="&#x26;" horiz-adv-x="2492" 
d="M2320 -25l-877.998 66c-32 -17.333 -63.333 -30.5 -94 -39.5s-60.334 -13.5 -89.001 -13.5c-29.333 0 -60.833 4.5 -94.5 13.5s-69.5 22.167 -107.5 39.5l-884 -66v1390l187 11l72 141c78.667 20.667 153.167 36.167 223.5 46.5s136.166 15.5 197.499 15.5
c106.667 0 190.167 -13.833 250.5 -41.5s107.833 -74.167 142.5 -139.5c31.333 64 78.666 110.167 141.999 138.5s150.333 42.5 261 42.5c56.667 0 118.834 -5.16699 186.501 -15.5s141.167 -25.833 220.5 -46.5l68 -130l196 -11v-1401zM2270 28l-0.000976562 1304l-123 7
l49 -81v-1148l-801 50c-38.667 -32.667 -88 -49 -148 -49c-59.333 0 -108 16.333 -146 49l-805 -50v1148l37 71l-111 -6v-1295l851 63c33.333 -18 65.333 -31.5 96 -40.5s60.334 -13.5 89.001 -13.5c26.667 0 54 4.5 82 13.5s57 22.5 87 40.5zM346.001 1248v-1043l98 191
v1032zM2048 1424v-1028l99 -186v1027zM384.001 160l731 57.999c21.333 -27.333 57 -46.666 107 -57.999c-9.33301 84 -41.833 144.167 -97.5 180.5s-143.167 54.5 -262.5 54.5c-55.333 0 -114.833 -3.83301 -178.5 -11.5s-131.5 -19.167 -203.5 -34.5zM2117 159.999
l-96.001 186c-77.333 16.667 -149.166 29 -215.499 37s-126.833 12 -181.5 12c-235.333 0 -353 -78.333 -353 -235c49.333 8 87 27.667 113 59zM494 402.999c77.333 14 145.834 24.334 205.501 31.001s110.5 10 152.5 10c171.333 0 294.666 -41.333 369.999 -124v931
c0 93.333 -29 163.166 -87 209.499s-145.333 69.5 -262 69.5c-60 0 -121.5 -4.16699 -184.5 -12.5s-127.833 -20.833 -194.5 -37.5v-1077zM1999 1482c-73.333 16 -141.001 28 -203.001 36s-118.333 12 -169 12c-123.333 0 -216.666 -25.333 -279.999 -76
c-50.667 -40 -76 -108.333 -76 -205v-933c46 48.667 95 82.167 147 100.5s123.667 27.5 215 27.5c60.667 0 121.5 -3.5 182.5 -10.5s122.167 -17.833 183.5 -32.5v1081z" />
    <glyph glyph-name="candle" unicode="'" horiz-adv-x="938" 
d="M493 932l-0.000976562 -62.999c106 -10 173.667 -27.5 203 -52.5s44 -76.833 44 -155.5v-518c0 -63.333 -21.167 -109.166 -63.5 -137.499s-110.5 -42.5 -204.5 -42.5c-88 0 -161.667 16 -221 48c-25.333 14 -40.666 27.5 -45.999 40.5s-8 42.833 -8 89.5v519
c0 62 2.83301 101 8.5 117s22.167 31.333 49.5 46c41.333 22.667 104.333 38 189 46v63c-56 3.33301 -100.833 20.666 -134.5 51.999s-50.5 70.666 -50.5 117.999c0 51.333 21.667 108 65 170l25 37c44.667 64 67 119 67 165c0 8.66699 -1.33301 21 -4 37
c169.333 -96 254 -217.667 254 -365c0 -55.333 -14.333 -100.833 -43 -136.5s-72 -61.5 -130 -77.5zM457.999 1428c-7.33301 -36 -32 -88.332 -74 -156.999l-22 -37c-36 -60 -54 -105.333 -54 -136c0 -34 14.667 -63.167 44 -87.5s64.333 -36.5 105 -36.5
c44 0 81.5 15.5 112.5 46.5s46.5 68.5 46.5 112.5c0 99.333 -52.667 197.666 -158 294.999zM443.999 765.002v50.999c-123.333 -9.33301 -185 -29 -185 -59c0 -13.333 21 -25.666 63 -36.999s88 -17 138 -17c72 0 126 4.66699 162 14s54 23 54 41c0 28.667 -61 48 -183 58
v-51h-49zM689.999 704.001c-26 -16.667 -57.5 -29.167 -94.5 -37.5s-79.5 -12.5 -127.5 -12.5c-47.333 0 -89.5 4.16699 -126.5 12.5s-68.833 20.833 -95.5 37.5v-561c0 -43.333 18.5 -76 55.5 -98s92.5 -33 166.5 -33s129.5 11 166.5 33s55.5 54.667 55.5 98v561z" />
    <glyph glyph-name="telephonesolid" unicode="(" horiz-adv-x="2220" 
d="M1938 1376c54 -90.667 90.6641 -193.333 109.997 -308c-58.667 -12.667 -116.667 -19 -174 -19c-97.333 0 -199.666 25.667 -306.999 77v21c0 98.667 -149.667 148 -449 148c-309.333 0 -464 -49.333 -464 -148v-21c-102.667 -60 -204 -90 -304 -90
c-59.333 0 -118.333 10.667 -177 32c18.667 108 55.667 210.667 111 308c126.667 47.333 258.5 82.666 395.5 105.999s279.167 35 426.5 35c152.667 0 298.334 -11.667 437.001 -35s270.334 -58.666 395.001 -105.999zM2048 1024l-0.000976562 -47.999
c0 -62 -13.167 -104.5 -39.5 -127.5s-75.166 -34.5 -146.499 -34.5c-100 0 -174.167 17.667 -222.5 53s-72.5 89.666 -72.5 162.999v45c94.667 -50.667 196.667 -76 306 -76c62.667 0 121 8.33301 175 25zM653.996 1068l-0.000976562 -37
c0 -80 -23.167 -138.167 -69.5 -174.5s-120.5 -54.5 -222.5 -54.5c-73.333 0 -123.166 12.167 -149.499 36.5s-39.5 70.5 -39.5 138.5v43c67.333 -22 128.333 -33 183 -33c102.667 0 202 27 298 81zM962.995 1012h296v135h222v-187l264 -421
c38.667 -61.333 64 -111.5 76 -150.5s18 -90.5 18 -154.5v-234h-1456v234c0 99.333 33.333 202.333 100 309l258 417v187h222v-135zM832.995 851.002v-86h123v86h-123zM1043 851.002v-86h123v86h-123zM1253 851.002v-86h123v86h-123zM832.995 703.002v-86h123v86h-123z
M1043 703.002v-86h123v86h-123zM1253 703.002v-86h123v86h-123zM832.995 555.002v-86h123v86h-123zM1043 555.002v-86h123v86h-123zM1253 555.002v-86h123v86h-123z" />
    <glyph glyph-name="telhandsetcirc" unicode=")" horiz-adv-x="1826" 
d="M173 740c0 204.667 72.333 379.167 217 523.5s319 216.5 523 216.5c204.667 0 379.167 -72.167 523.5 -216.5s216.5 -318.833 216.5 -523.5c0 -204 -72.167 -378.333 -216.5 -523s-318.833 -217 -523.5 -217c-204 -0 -378.333 72.333 -523 217s-217 319 -217 523z
M235 740c0 -188.667 65.8311 -348.834 197.498 -480.501s291.834 -197.5 480.501 -197.5c189.333 0 349.833 65.833 481.5 197.5s197.5 291.834 197.5 480.501c0 189.333 -65.833 349.833 -197.5 481.5s-292.167 197.5 -481.5 197.5s-349.666 -65.833 -480.999 -197.5
s-197 -292.167 -197 -481.5zM1098 195c-58.667 -35.333 -125.334 -59.332 -200.001 -71.999c-8.66699 38.667 -13 76.667 -13 114c0 62.667 16.667 129 50 199h14c64.667 0 97 97.333 97 292c0 201.333 -32.333 302 -97 302h-14c-38.667 66.667 -58 132 -58 196
c0 39.333 7 78 21 116c68.667 -11.333 135.334 -35.333 200.001 -72c30.667 -82 53.667 -167.667 69 -257s23 -182.333 23 -279c0 -98.667 -7.66699 -192.834 -23 -282.501s-38.333 -175.167 -69 -256.5zM868.998 123.001l-31 -0.000976562c-40 0 -67.5 8.66699 -82.5 26
s-22.5 49 -22.5 95c0 128 46.667 192 140 192h30c-33.333 -61.333 -50 -127.666 -50 -198.999c0 -40 5.33301 -78 16 -114zM897.998 1030l-24.001 -0.000976562c-99.333 0 -149 63 -149 189c0 48 7.83301 80.5 23.5 97.5s45.834 25.5 90.501 25.5h28
c-14.667 -43.333 -22 -82.666 -22 -117.999c0 -67.333 17.667 -132 53 -194z" />
    <glyph glyph-name="envelopeback" unicode="*" horiz-adv-x="2319" 
d="M878 740l-656 656v-1312zM1407 705l-177.001 -176c-19.333 -20 -42.666 -30 -69.999 -30s-51 10 -71 30l-176 176l-656 -656h1805zM1442 740l655 -656v1312zM256.999 1431l868 -868c9.33301 -9.33301 21 -14 35 -14s25.667 4.66699 35 14l868 868h-1806zM172.999 1480
h1974v-1480h-1974v1480z" />
    <glyph glyph-name="envelopefront" unicode="+" horiz-adv-x="2319" 
d="M1900 1283v-296h-247v296h247zM765 839h641v-49h-641v49zM962 444h642v-49h-642v49zM864 641h641v-49h-641v49zM222 1431v-1382h1875v1382h-1875zM173 1480h1974v-1480h-1974v1480z" />
    <glyph glyph-name="mailboxflagdwn" unicode="," horiz-adv-x="2399" 
d="M1061 0l-888 -0.000976562v740c0 104.667 31.667 196.334 95 275.001s148 131.667 254 159l1098 280c69.333 17.333 123.333 26 162 26c120.667 0 225 -44 313 -132s132 -192.667 132 -314v-738zM1012 48.999l0.000976562 691c0 110.667 -38.333 204 -115 280
s-170.334 114 -281.001 114c-108.667 0 -201.5 -38.5 -278.5 -115.5s-115.5 -169.833 -115.5 -278.5v-691h790zM2178 332.999v701.001c0 109.333 -38.5 203.166 -115.5 281.499s-169.167 117.5 -276.5 117.5c-35.333 0 -70 -4.33301 -104 -13l-965 -249
c111.333 -34 196.5 -88 255.5 -162s88.5 -163.667 88.5 -269v-691zM1684 305v308l-524 -131v153l913 230v-463zM778.001 649l-110 -44h-196l-34 44v128l34 -37h196l110 37v-128z" />
    <glyph glyph-name="mailboxflagup" unicode="-" horiz-adv-x="2399" 
d="M1061 0l-888 0.000976562v740c0 104.667 30.833 195.667 92.5 273s145.167 129.666 250.5 156.999l712 183v154l444 114v-157c38 9.33301 77.667 14 119 14c116 0 217.667 -44.5 305 -133.5s131 -192.5 131 -310.5v-738zM1012 49.001l0.000976562 687
c0 110.667 -38.833 204 -116.5 280s-173.167 114 -286.5 114c-110.667 0 -202.834 -37.5 -276.501 -112.5s-110.5 -168.833 -110.5 -281.5v-687h790zM2178 333.001l-0.000976562 699c0 107.333 -39.167 201 -117.5 281s-170.166 120 -275.499 120
c-32 0 -69.667 -5.33301 -113 -16v-203l-284 -78v-597l-160 -38v799l-516 -131c110.667 -34 196.5 -88.833 257.5 -164.5s91.5 -165.167 91.5 -268.5v-687zM778 649.001l-110 -44h-196l-34 44v128l34 -37h196l110 37v-128z" />
    <glyph glyph-name="mailbxopnflgup" unicode="." horiz-adv-x="2951" 
d="M1619 0h-893.999l-371 311c-120.667 101.333 -181 195 -181 281c0 62 24.167 112 72.5 150s112.166 57 191.499 57c94 0 190 -28 288 -84v25c0 105.333 30.833 196.5 92.5 273.5s145.167 129.167 250.5 156.5l712 183v154l444 114v-157c38.667 9.33301 78.334 14 119 14
c116 0 217.667 -44.5 305 -133.5s131 -192.5 131 -310.5v-738zM1479 49l-546 455.001c-196 162.667 -360 244 -492 244c-64.667 0 -117 -13.667 -157 -41s-60 -63 -60 -107c0 -80.667 75 -182.334 225 -305.001l299 -246h731zM751.001 408.001l-35 -38h-150l-114 96l25 43
l52 -40h77l32 32zM1516 930.001c-84.667 128 -202.333 192.002 -353 192.002c-112 0 -204.667 -36.833 -278 -110.5s-110 -166.834 -110 -279.501v-46c76 -48.667 141.333 -97.334 196 -146.001l39 -34l155 336zM1569 733.003c0 47.333 -9.66699 97.333 -29 150l-340 -84
l-149 -326l180 -151l76 344zM1564 228.003v449l-217 -54l-75 -334l127 -103zM1564 49.0029v131l-120 -31zM2730 333.003v699c0 107.333 -39.167 201 -117.5 281s-170.166 120 -275.5 120c-32 0 -69.667 -5.33301 -113 -16v-203l-284 -78v-597l-160 -38v799l-515 -131
c110 -34 195.5 -88.833 256.5 -164.5s91.5 -165.167 91.5 -268.5v-687z" />
    <glyph glyph-name="mailbxopnflgdwn" unicode="/" horiz-adv-x="2956" 
d="M1618 0h-895.001l-371 308c-119.333 99.333 -179 192.666 -179 279.999c0 62.667 23.833 113 71.5 151s110.834 57 189.501 57s177 -28.333 295 -85v29c0 104 31 194.333 93 271s145.333 128.334 250 155.001l1101 283c70.667 18 128.667 27 174 27
c116 0 217.667 -44.833 305 -134.5s131 -194.167 131 -313.5v-736zM1478 49l-548.001 452.001c-196.667 163.333 -359.667 245 -489 245c-65.333 0 -118.166 -13.833 -158.499 -41.5s-60.5 -63.5 -60.5 -107.5c0 -82.667 74.667 -184.334 224 -305.001l302 -243h730z
M754.998 408.001l-35 -38h-150l-114 96l26 43l51 -40h77l32 32zM1568 49.001v691c0 110.667 -38.167 204 -114.5 280s-170.166 114 -281.499 114c-108.667 0 -201.334 -38.5 -278.001 -115.5s-115 -169.833 -115 -278.5v-57c40.667 -26 104.667 -75 192 -147zM2734 333.001
v701.001c0 109.333 -38.5 203.166 -115.5 281.499s-169.167 117.5 -276.5 117.5c-35.333 0 -69.666 -4.33301 -102.999 -13l-966 -249c111.333 -34 196.666 -88 255.999 -162s89 -163.667 89 -269v-691zM2241 305.002v308l-525 -131v153l913 230v-463z" />
    <glyph glyph-name="folder" unicode="0" horiz-adv-x="2245" 
d="M173 0v1159c0 82.667 41 124 123 124h57c28.667 0 49 4.5 61 13.5s21.333 26.5 28 52.5l10 40c11.333 42 25 67.667 41 77s55 14 117 14h384c51.333 0 85.5 -4.83301 102.5 -14.5s30.167 -31.834 39.5 -66.501l11 -43c9.33301 -34.667 19.5 -55.5 30.5 -62.5
s39.167 -10.5 84.5 -10.5h689c46.667 0 78.667 -8.66699 96 -26s26 -49.666 26 -96.999v-1160h-1900zM222 53l1802 -7v1114c0 49.333 -24.667 74 -74 74h-1647c-54 0 -81 -24.667 -81 -74v-1107zM480 1283l631.001 0.000976562l-20 76c-8 32 -17.667 52 -29 60
s-36 12 -74 12h-367c-44.667 0 -73.834 -3.83301 -87.501 -11.5s-24.5 -26.834 -32.5 -57.501z" />
    <glyph glyph-name="folderopen" unicode="1" horiz-adv-x="2751" 
d="M173 0l0.000976562 1159c0 82.667 41 124 123 124h57c28.667 0 49 4.5 61 13.5s21.333 26.5 28 52.5l10 40c10.667 42 24.334 67.667 41.001 77c16 9.33301 54.667 14 116 14h382c55.333 0 90.666 -4.33301 105.999 -13s28.666 -32 39.999 -70l11 -37
c11.333 -38 21.833 -60.333 31.5 -67s36.5 -10 80.5 -10h691c47.333 0 79.5 -8.83301 96.5 -26.5s25.5 -50.834 25.5 -99.501v-96h397c72 0 109 -12.667 111 -38c0.666992 -5.33301 -11 -32.333 -35 -81l-473 -942h-1900zM222.001 102.001l430.003 838
c31.333 60.667 55.666 96 72.999 106s62.333 15 135 15h1164v96c0 51.333 -25 77 -75 77h-695c-62.667 0 -101.334 3.66699 -116.001 11s-26.667 30 -36 68l-12 46c-8.66699 32.667 -18.5 52.834 -29.5 60.501s-35.5 11.5 -73.5 11.5h-370c-42.667 0 -71.334 -4 -86.001 -12
c-14.667 -8.66699 -26 -27.334 -34 -56.001l-12 -46c-10.667 -38 -22.5 -61.333 -35.5 -70s-41.833 -13 -86.5 -13h-62c-32 0 -53.167 -4.83301 -63.5 -14.5s-15.5 -30.167 -15.5 -61.5v-1056zM252.004 49.001l1789 0.000976562l443 888c14.667 32 22 50 22 54
c-2 14 -22.667 21 -62 21h-1614c-38.667 0 -65.334 -4.33301 -80.001 -13s-29.667 -28.334 -45 -59.001z" />
    <glyph glyph-name="filetalltext1" unicode="2" horiz-adv-x="1431" 
d="M370 247v49h691v-49h-691zM370 444v49h691v-49h-691zM864 1411v-325h325zM1259 1086v-1086h-1086v1480h691zM814 1036v395h-592v-1382h987v987h-395zM370 641v50h691v-50h-691zM370 839v49h691v-49h-691zM370 1036v50h296v-50h-296zM370 1234v49h296v-49h-296z" />
    <glyph glyph-name="filetalltext" unicode="3" horiz-adv-x="1431" 
d="M1259 1480v-1480h-1086v1480h1086zM1209 1431h-987v-1382h987v1382zM370 247v49h691v-49h-691zM370 444v49h691v-49h-691zM370 641v50h691v-50h-691zM370 839v49h691v-49h-691zM370 1036v50h691v-50h-691zM370 1234v49h691v-49h-691z" />
    <glyph glyph-name="filetalltext3" unicode="4" horiz-adv-x="1826" 
d="M1456 -197h-197v-198h-1086v1481h197v197h198v197h1085v-1480h-197v-197zM617 1431v-148h839v-1234h148v1382h-987zM420 1234v-148h839v-1234h148v1382h-987zM1209 1036h-987v-1382h987v1382zM370 -148v49h691v-49h-691zM370 49v50h691v-50h-691zM370 247v49h691v-49
h-691zM370 444v49h691v-49h-691zM370 641v50h691v-50h-691zM370 839v49h691v-49h-691z" />
    <glyph glyph-name="filecabinet" unicode="5" horiz-adv-x="1135" 
d="M963 1480v-1480h-790v1480h790zM913 1431h-691v-666h691v666zM913 716h-691v-667h691v667zM420 1332h296v-197h-296v197zM469 1283v-99h197v99h-197zM518 1012h99v-50h-99v50zM420 617h296v-198h-296v198zM469 568v-99h197v99h-197zM518 296h99v-49h-99v49z" />
    <glyph glyph-name="hourglass" unicode="6" horiz-adv-x="1233" 
d="M173 149v76c0 64.667 8.16699 115.834 24.5 153.501s50.166 83.834 101.499 138.501l132 139c42 44.667 63 73.667 63 87c0 14.667 -25.667 48 -77 100l-132 136c-44.667 45.333 -74.5 87.333 -89.5 126s-22.5 92 -22.5 160v82c0 56.667 37 99.167 111 127.5
s185 42.5 333 42.5c296 0 444 -56.667 444 -170v-82c0 -68 -7.5 -121.333 -22.5 -160s-44.833 -80.667 -89.5 -126l-132 -136c-50.667 -52 -76 -85.333 -76 -100c0 -13.333 20.667 -42.333 62 -87l132 -139c51.333 -54.667 85.166 -100.834 101.499 -138.501
s24.5 -88.834 24.5 -153.501v-76c0 -61.333 -37.667 -107.666 -113 -138.999s-185.666 -47 -330.999 -47s-255.666 15.667 -330.999 47s-113 77.666 -113 138.999zM617 1283c92 0 176.999 10.3311 254.999 30.998s116.333 43 115 67
c-1.33301 24.667 -37.166 45.334 -107.499 62.001s-157.833 25 -262.5 25c-105.333 0 -193.333 -8.5 -264 -25.5s-106 -38.167 -106 -63.5c0 -23.333 39.167 -45.166 117.5 -65.499s162.5 -30.5 252.5 -30.5zM221.999 1321l0.00195312 -96.001
c0 -46 6.66699 -81.5 20 -106.5s47.666 -67.167 102.999 -126.5l113 -120c56.667 -62 85 -105.667 85 -131c0 -26 -26 -67 -78 -123l-130 -139c-50.667 -54 -82.167 -94.333 -94.5 -121s-18.5 -67 -18.5 -121v-72c0 -43.333 15.667 -73.333 47 -90
c76.667 -42 192.667 -63 348 -63c156 0 272 21 348 63c31.333 16.667 47 46.667 47 90v72c0 54 -6.16699 94.333 -18.5 121s-43.833 67 -94.5 121l-130 139c-52 56 -78 98.333 -78 127c0 22.667 28.667 65 86 127l112 120c55.333 59.333 89.666 101.5 102.999 126.5
s20 60.5 20 106.5v96c-91.333 -58 -223 -87 -395 -87c-86 0 -161.833 7.33301 -227.5 22s-121.5 36.334 -167.5 65.001zM328.001 1123c98.667 -62.667 195.001 -94 289.001 -94s190.667 31.333 290 94c-16.667 -26.667 -53.334 -70.667 -110.001 -132l-83 -91
c-37.333 -40.667 -60 -68.834 -68 -84.501s-14.667 -45.5 -20 -89.5c-1.33301 -13.333 -4.33301 -33.333 -9 -60c-4.66699 26.667 -7.66699 46.667 -9 60c-5.33301 44 -12 73.833 -20 89.5s-30.667 43.834 -68 84.501l-83 91c-56.667 61.333 -93 105.333 -109 132z
M272.002 145.997c10.667 40 50.666 78 119.999 114l88 45c55.333 28.667 88.5 48 99.5 58s23.5 32.333 37.5 67c14.667 -34.667 27.334 -57 38.001 -67s43.667 -29.333 99 -58l88 -45c69.333 -36 109.333 -74 120 -114c-84.667 -42.667 -199.667 -64 -345 -64
s-260.333 21.333 -345 64z" />
    <glyph glyph-name="keyboard" unicode="7" horiz-adv-x="2196" 
d="M518 962l1259 0.000976562c119.333 0 190.333 -11.333 213 -34s34 -93.334 34 -212.001v-469c0 -116.667 -12.167 -187 -36.5 -211s-94.5 -36 -210.5 -36h-1357c-112 0 -181.167 13.167 -207.5 39.5s-39.5 95.5 -39.5 207.5v469c0 110.667 10.333 179.667 31 207
s73.334 41 158.001 41l58 -2v19c0 101.333 30.833 186.5 92.5 255.5s138.167 103.5 229.5 103.5c43.333 0 91.333 -7.33301 144 -22l44 -13c58 -16.667 108 -25 150 -25c121.333 0 204 53.333 248 160c20.667 51.333 41.667 77 63 77c30.667 0 46 -14.333 46 -43
c0 -50.667 -27.333 -106.667 -82 -168c-73.333 -83.333 -163.666 -125 -270.999 -125c-36.667 0 -94.334 9 -173.001 27l-53 12c-58 14 -99.333 21 -124 21c-59.333 0 -110.166 -25.333 -152.499 -76s-63.5 -111 -63.5 -181v-22zM1777 913.001h-1357
c-97.333 0 -154.666 -8.66699 -171.999 -26s-26 -74.333 -26 -171v-468c0 -97.333 8.66699 -154.666 26 -171.999s74.666 -26 171.999 -26h1357c97.333 0 154.5 8.66699 171.5 26s25.5 74.666 25.5 171.999v468c0 96.667 -8.66699 153.667 -26 171s-74.333 26 -171 26z
M419.998 765.001h123v-122h123v122h124v-122h123v122h124v-122h123v122h123v-122h124v122h123v-122h123v122h124v-123h-122v-124h122v-123h-124v122h-123v-122h-123v122h-124v-122h-123v122h-123v-122h-124v122h-123v-122h-124v122h-123v-122h-123v123h121v124h-121v123z
M667.998 519.001h121v121h-121v-121zM913.998 519.001h122v121h-122v-121zM1161 519.001h121v121h-121v-121zM1408 519.001h121v121h-121v-121zM665.998 197.001v124h864v-124h-864z" />
    <glyph glyph-name="mouse2button" unicode="8" horiz-adv-x="1941" 
d="M1429 1213l-260 0.000976562c-48 0 -78.667 -6.33301 -92 -19s-20 -41.334 -20 -86.001v-158h372v263zM1479 1213v-263.001h241v158c0 46.667 -6.33301 75.834 -19 87.501s-43.667 17.5 -93 17.5h-129zM1057 901v-557c0 -91.333 32.333 -169.5 97 -234.5
s142.667 -97.5 234 -97.5c92 0 170.333 32.333 235 97s97 143 97 235v557h-663zM1405 1263c0 90.667 -17.167 155.667 -51.5 195s-90.833 59 -169.5 59c-156.667 0 -276.334 -112.333 -359.001 -337l-16 -45c-97.333 -263.333 -239.333 -395 -426 -395
c-74.667 0 -144.834 28.833 -210.501 86.5s-98.5 119.167 -98.5 184.5c0 33.333 15.667 50 47 50c20.667 0 41.667 -26.333 63 -79c40 -95.333 106.667 -143 200 -143c71.333 0 129.5 22.833 174.5 68.5s95.833 133.167 152.5 262.5l37 82
c108.667 242.667 255.334 364 440.001 364c210 0 315 -117.667 315 -353h102c70 0 114.833 -9.5 134.5 -28.5s29.5 -62.167 29.5 -129.5v-761c0 -105.333 -37.167 -195.166 -111.5 -269.499s-164.166 -111.5 -269.499 -111.5c-104.667 0 -194.167 37.167 -268.5 111.5
s-111.5 164.166 -111.5 269.499v761c0 64.667 10.5 107.167 31.5 127.5s65.167 30.5 132.5 30.5h233z" />
    <glyph glyph-name="ballpoint" unicode="9" horiz-adv-x="2208" 
d="M950 363c-35.333 -42.667 -73.9971 -74.8311 -115.997 -96.498s-87.333 -32.5 -136 -32.5c-78 0 -141.833 27.167 -191.5 81.5s-74.5 124.166 -74.5 209.499c0 59.333 4.66699 117.333 14 174l14 84c14 92 21 153.667 21 185c0 44 -15.167 80.833 -45.5 110.5
s-67.833 44.5 -112.5 44.5c-46.667 0 -101 -23.333 -163 -70c-15.333 -11.333 -29.666 -17 -42.999 -17c-28.667 0 -43 13.333 -43 40c0 33.333 27.667 66 83 98s111.333 48 168 48c73.333 0 134.166 -24.333 182.499 -73s72.5 -110.334 72.5 -185.001
c0 -43.333 -4.66699 -94.666 -14 -153.999l-16 -100c-13.333 -80 -20 -140.333 -20 -181c0 -57.333 15.667 -104.333 47 -141s71 -55 119 -55c53.333 0 101.166 17.5 143.499 52.5s79.166 87.5 110.499 157.5c12 106.667 31.5 189.167 58.5 247.5
s70.833 113.166 131.5 164.499c102 87.333 219.667 131 353 131c149.333 0 277.166 -53 383.499 -159s159.5 -234 159.5 -384v-346c0 -96 -9 -152.833 -27 -170.5s-75 -26.5 -171 -26.5h-691c-94.667 0 -151.167 9.16699 -169.5 27.5s-27.5 74.833 -27.5 169.5v166z
M999.003 543.003l0.000976562 -345.998c0 -70 7.16699 -112.167 21.5 -126.5s56.5 -21.5 126.5 -21.5h691c76 0 119.667 5.83301 131 17.5s17 55.167 17 130.5v346h-97c-4.66699 103.333 -45 196.666 -121 279.999l69 71c-108 94.667 -223.667 142 -347 142
c-90.667 0 -184.334 -30.333 -281.001 -91l58 -82c-102.667 -82.667 -157.667 -189.334 -165 -320.001h-103zM1053 592.005c16.667 109.333 65 202.667 145 280l-29 40c-92 -85.333 -148.667 -192 -170 -320h54zM1837 821.006c52.667 -67.333 85 -143.667 97 -229h52
c-11.333 91.333 -49 180.333 -113 267zM1197 543.005c0 81.333 28.833 151 86.5 209s127.5 87 209.5 87c81.333 0 151 -28.833 209 -86.5s87 -127.5 87 -209.5s-29 -151.833 -87 -209.5s-127.667 -86.5 -209 -86.5c-82 0 -151.833 28.833 -209.5 86.5
s-86.5 127.5 -86.5 209.5zM1246 543.005c0 -68 24 -126.167 72 -174.5s106.333 -72.5 175 -72.5c68 0 126.167 24.167 174.5 72.5s72.5 106.5 72.5 174.5s-24.167 126.167 -72.5 174.5s-106.5 72.5 -174.5 72.5s-126.167 -24.167 -174.5 -72.5s-72.5 -106.5 -72.5 -174.5z
M1320 543.005c0 47.333 16.833 88 50.5 122s74.5 51 122.5 51c47.333 0 87.833 -17 121.5 -51s50.5 -74.667 50.5 -122c0 -48 -16.833 -88.833 -50.5 -122.5s-74.167 -50.5 -121.5 -50.5c-48 0 -88.833 16.833 -122.5 50.5s-50.5 74.5 -50.5 122.5z" />
    <glyph glyph-name="pc" unicode=":" horiz-adv-x="1924" 
d="M1629 1480v-962h-1333v962h1333zM1629 469l71 -148c34.667 -71.333 52 -140.333 52 -207v-114h-1579v114c0 66 17.333 135 52 207l71 148h1333zM1579 1431h-1233v-863h1233v863zM1596 419l-1271 -0.00195312l-63 -135c-26.667 -57.333 -40 -103.666 -40 -138.999v-96
h1481v37c0 66.667 -15.333 133.334 -46 200.001zM444 1229l-0.000976562 -460c0 -46 5.83301 -74.667 17.5 -86s40.834 -17 87.501 -17h824c48 0 78 5.5 90 16.5s18 38.833 18 83.5v465c0 44.667 -6.16699 72.667 -18.5 84s-42.166 17 -89.499 17h-824
c-46.667 0 -75.834 -5.5 -87.501 -16.5s-17.5 -39.833 -17.5 -86.5zM400.999 357.998h123v-49h125v49h121v-49h126v49h121v-49h125v49h122v-49h125v49h123v-49h-122v-51h122v-48h-123v48h-125v-48h-122v48h-125v-48h-121v48h-126v-48h-121v48h-125v-48h-123v48h122v51h-122
v49zM648.999 259.998h121v47h-121v-47zM895.999 259.998h121v47h-121v-47zM1142 259.998h122v47h-122v-47zM394.999 767.998v462c0 68 8.33301 110.333 25 127s59.667 25 129 25h827c69.333 0 112.333 -8.33301 129 -25s25 -59 25 -127v-462
c0 -67.333 -8.5 -109.333 -25.5 -126s-59.833 -25 -128.5 -25h-827c-68.667 0 -111.5 8.33301 -128.5 25s-25.5 58.667 -25.5 126z" />
    <glyph glyph-name="harddisk" unicode=";" 
d="M173 148v395c0 70.667 7 113 21 127s56.333 21 127 21h1184c70.667 0 113 -7 127 -21s21 -56.333 21 -127v-395c0 -70.667 -7 -113 -21 -127s-56.333 -21 -127 -21h-1184c-70.667 0 -113 7 -127 21s-21 56.333 -21 127zM321 49h1184c43.333 0 70.666 5.66699 81.999 17
s17 38.666 17 81.999v395c0 43.333 -5.5 70.666 -16.5 81.999s-38.5 17 -82.5 17h-1184c-43.333 0 -70.666 -5.66699 -81.999 -17s-17 -38.666 -17 -81.999v-395c0 -43.333 5.66699 -70.666 17 -81.999s38.666 -17 81.999 -17zM395.001 247v49h1036v-49h-1036zM395.001 395
v49h1036v-49h-1036zM444.001 123v50h99v-50h-99z" />
    <glyph glyph-name="floppy3" unicode="&#x3c;" horiz-adv-x="1826" 
d="M173 197l0.000976562 1185c0 27.333 9.66699 50.5 29 69.5s42.666 28.5 69.999 28.5h1283c27.333 0 50.5 -9.5 69.5 -28.5s28.5 -42.167 28.5 -69.5v-1283c0 -27.333 -9.5 -50.666 -28.5 -69.999s-42.167 -29 -69.5 -29h-1185zM864.001 492.999h-247v-444h247v444z
M1259 48.999h295.999c16.667 0 29 4.16699 37 12.5s12 20.5 12 36.5v1284c0 32.667 -16.333 49 -49 49h-148v-592c0 -27.333 -9.66699 -50.666 -29 -69.999s-42.666 -29 -69.999 -29h-790c-27.333 0 -50.5 9.66699 -69.5 29s-28.5 42.666 -28.5 69.999v592h-148
c-33.333 0 -50 -16.333 -50 -49v-1165l168 -168h178v444c0 33.333 16.333 50 49 50h592c33.333 0 50 -16.667 50 -50v-444zM1357 1431h-888v-592c0 -16 4.16699 -28.167 12.5 -36.5s20.5 -12.5 36.5 -12.5l790 -1c32.667 0 49 16.667 49 50v592z" />
    <glyph glyph-name="floppy5" unicode="=" horiz-adv-x="1826" 
d="M1259 1382h-987v-346h987v346zM1653 1480v-296h-98v-148h98v-1036h-1480v1480h1480zM1113 740c0 53.333 -19.833 99.668 -59.5 139.001s-86.5 59 -140.5 59s-100.333 -19.333 -139 -58s-58 -85.334 -58 -140.001c0 -54 19.333 -100.333 58 -139s85 -58 139 -58
s100.833 19.5 140.5 58.5s59.5 85.167 59.5 138.5zM987 173.002v197c0 49.333 -24.667 74 -74 74s-74 -24.667 -74 -74v-197c0 -49.333 24.667 -74 74 -74c45.333 0 70 24.667 74 74z" />
    <glyph glyph-name="tapereel" unicode="&#x3e;" 
d="M814 987v296h198v-296h-198zM913 592c-40.667 0 -75.5 14.5 -104.5 43.5s-43.5 63.833 -43.5 104.5s14.5 75.5 43.5 104.5s63.833 43.5 104.5 43.5s75.5 -14.5 104.5 -43.5s43.5 -63.833 43.5 -104.5s-14.5 -75.5 -43.5 -104.5s-63.833 -43.5 -104.5 -43.5zM913 0
c-204.667 0 -379.167 72.167 -523.5 216.5s-216.5 318.833 -216.5 523.5s72.333 379.167 217 523.5s319 216.5 523 216.5c204.667 0 379.167 -72.167 523.5 -216.5s216.5 -318.833 216.5 -523.5s-72.167 -379.167 -216.5 -523.5s-318.833 -216.5 -523.5 -216.5zM913 49
c190.667 0 353.5 67.5 488.5 202.5s202.5 297.833 202.5 488.5s-67.5 353.5 -202.5 488.5s-297.833 202.5 -488.5 202.5s-353.5 -67.5 -488.5 -202.5s-202.5 -297.833 -202.5 -488.5s67.5 -353.5 202.5 -488.5s297.833 -202.5 488.5 -202.5zM492 383l-98 171l256 148
l99 -171zM1334 383l-256 148l98 171l257 -148z" />
    <glyph glyph-name="handwrite" unicode="?" horiz-adv-x="1863" 
d="M1462 0l-156.999 60c-40.667 -20.667 -95.334 -40.667 -164.001 -60c-66.667 10.667 -141.667 28 -225 52c-29.333 -34.667 -61.666 -52 -96.999 -52c-29.333 0 -56 10 -80 30c-26 -20 -51.667 -30 -77 -30c-26 0 -49.333 8 -70 24s-39 39.667 -55 71
c-54.667 8 -93.667 29 -117 63l-126 -78l-220 -80l169 165l166 102c15.333 30.667 44.666 51.667 87.999 63c-28.667 1.33301 -60.667 9 -96 23l106 316l193 215l446 -62l54 -62l535 336c36 -12.667 54 -35.334 54 -68.001c0 -4.66699 -0.333008 -10.667 -1 -18l-525 -327
l45 -63c67.333 -93.333 111.5 -149.833 132.5 -169.5s56.833 -38.167 107.5 -55.5c2 -31.333 3 -54.666 3 -69.999c0 -126.667 -29.667 -235 -89 -325zM1440 64c39.333 87.333 58.999 175 58.999 263v34c-68.667 28 -133.667 87.667 -195 179c-16 24 -26.667 39.667 -32 47
l-53 69l-223 -141l-2 -82l1 -85c-102.667 -14 -203 -39.333 -301 -76c-36.667 7.33301 -68.334 11 -95.001 11c-95.333 0 -143 -23.667 -143 -71c0 -48.667 43 -73 129 -73c30.667 0 70.334 5.66699 119.001 17c210 -54 356.333 -86.333 439 -97l46 15
c54.667 17.333 93.334 30.333 116.001 39zM1157 735l-34 41l-404 53l-167 -185l-84 -260c12 -2 21.667 -3 29 -3c58.667 0 107 58.333 145 175l33 24c41.333 30 82 64.333 122 103c42.667 -27.333 91 -55 145 -83zM895 569c-11.333 6 -20 10.333 -26 13
c-24 11.333 -44.667 23 -62 35c-31.333 -33.333 -72.333 -65 -123 -95c-12.667 -42 -32 -81.333 -58 -118zM947 486l-258 -162c112.667 35.333 198 58 256 68l1 68zM730 100l-24.999 7c-50 -10 -87 -15 -111 -15c11.333 -13.333 22.5 -23.333 33.5 -30s21.833 -10 32.5 -10
c29.333 0 52.666 16 69.999 48zM860.001 66l-95.001 25c4.66699 -26.667 21.334 -40 50.001 -40c17.333 0 32.333 5 45 15z" />
    <glyph glyph-name="handwriteleft" unicode="@" horiz-adv-x="1863" 
d="M401 0l156.999 60c40.667 -20.667 95.334 -40.667 164.001 -60c66.667 10.667 141.667 28 225 52c29.333 -34.667 61.666 -52 96.999 -52c29.333 0 56 10 80 30c26 -20 51.667 -30 77 -30c26 0 49.333 8 70 24s39 39.667 55 71c54.667 8 93.667 29 117 63l126 -78
l220 -80l-169 165l-166 102c-15.333 30.667 -44.666 51.667 -87.999 63c28.667 1.33301 60.667 9 96 23l-106 316l-193 215l-446 -62l-54 -62l-535 336c-36 -12.667 -54 -35.334 -54 -68.001c0 -4.66699 0.333008 -10.667 1 -18l525 -327l-45 -63
c-67.333 -93.333 -111.5 -149.833 -132.5 -169.5s-56.833 -38.167 -107.5 -55.5c-2 -31.333 -3 -54.666 -3 -69.999c0 -126.667 29.667 -235 89 -325zM422.999 64c-39.333 87.333 -58.999 175 -58.999 263v34c68.667 28 133.667 87.667 195 179c16 24 26.667 39.667 32 47
l53 69l223 -141l2 -82l-1 -85c102.667 -14 203 -39.333 301 -76c36.667 7.33301 68.334 11 95.001 11c95.333 0 143 -23.667 143 -71c0 -48.667 -43 -73 -129 -73c-30.667 0 -70.334 5.66699 -119.001 17c-210 -54 -356.333 -86.333 -439 -97l-46 15
c-54.667 17.333 -93.334 30.333 -116.001 39zM706 735l34 41l404 53l167 -185l84 -260c-12 -2 -21.667 -3 -29 -3c-58.667 0 -107 58.333 -145 175l-33 24c-41.333 30 -82 64.333 -122 103c-42.667 -27.333 -91 -55 -145 -83zM968 569c11.333 6 20 10.333 26 13
c24 11.333 44.667 23 62 35c31.333 -33.333 72.333 -65 123 -95c12.667 -42 32 -81.333 58 -118zM916 486l258 -162c-112.667 35.333 -198 58 -256 68l-1 68zM1133 100l24.999 7c50 -10 87 -15 111 -15c-11.333 -13.333 -22.5 -23.333 -33.5 -30s-21.833 -10 -32.5 -10
c-29.333 0 -52.666 16 -69.999 48zM1003 66l95.001 25c-4.66699 -26.667 -21.334 -40 -50.001 -40c-17.333 0 -32.333 5 -45 15z" />
    <glyph glyph-name="handv" unicode="A" horiz-adv-x="1203" 
d="M792 171v-145c-86 -34 -163.333 -51 -232 -51c-86.667 0 -165 17 -235 51v112l-79 89c-39.333 95.333 -59 195.333 -59 300v48c-9.33301 28 -14 50.667 -14 68c0 30.667 6.5 53.5 19.5 68.5s32.167 22.5 57.5 22.5c9.33301 0 24.666 -3 45.999 -9
c-8 28 -12 49.667 -12 65c0 36.667 8.83301 64 26.5 82s43.834 27 78.501 27c30.667 0 59.667 -18 87 -54c-0.666992 16.667 -1 30 -1 40c0 8.66699 0.333008 19.667 1 33l-113 421c-22.667 83.333 -34 136.666 -34 159.999c0 35.333 9.33301 61.666 28 78.999
s46.334 26 83.001 26c57.333 0 100 -58.333 128 -175l111 -455l113 345c43.333 132 92 198 146 198c26 0 48.167 -9 66.5 -27s27.5 -40 27.5 -66c0 -27.333 -11.333 -83.666 -34 -168.999l-100 -381c5.33301 -46.667 8 -112.667 8 -198l1 -43
c20.667 -57.333 33 -108.666 37 -153.999c-32.667 -95.333 -83.334 -198 -152.001 -308zM637 944l-118.002 480.998c-21.333 88.667 -49 133 -83 133c-19.333 0 -33.833 -5 -43.5 -15s-14.5 -25 -14.5 -45c0 -11.333 2.66699 -27 8 -47l8 -33
c4.66699 -19.333 8.33398 -33.666 11.001 -42.999l124 -466l224 -32c42 -47.333 76 -96.666 102 -147.999v158l97 384c20 78 30 129.333 30 154c0 14.667 -3.66699 25.5 -11 32.5s-18.666 10.5 -33.999 10.5c-18.667 0 -33.167 -8.33301 -43.5 -25s-26.833 -59 -49.5 -127
l-129 -380zM746.998 190.998c48.667 69.333 93.002 155.334 133.002 258.001c3.33301 8.66699 8.33301 21 15 37c-4.66699 16.667 -8 29 -10 37c-28.667 111.333 -80.667 214.666 -156 309.999l-203 27c0 -93.333 59 -143 177 -149c-1.33301 -22 -2 -40 -2 -54
c0 -42.667 4.66699 -89.667 14 -141h-48c-10 40.667 -15 82.334 -15 125.001v21c-46.667 9.33301 -85.667 25.666 -117 48.999l39 -96c12.667 -32.667 19 -59 19 -79c0 -36.667 -8.33301 -64.167 -25 -82.5s-42 -27.5 -76 -27.5c-17.333 0 -37.666 7.33301 -60.999 22
c-4 -30.667 -13.333 -53.667 -28 -69s-34.334 -23 -59.001 -23c-30.667 0 -57.334 18.667 -80.001 56l-22 36c8.66699 -64.667 20 -121 34 -169l8 -25l92 -105v-89c67.333 -22.667 130.666 -34 189.999 -34c58.667 0 119 11.333 181 34v131zM500 660.999l-40.999 101.999
c-23.333 58.667 -47.333 88 -72 88c-17.333 0 -30.5 -5.16699 -39.5 -15.5s-13.5 -25.833 -13.5 -46.5c0 -27.333 8 -60 24 -98l39 -95c33.333 -79.333 65.666 -119 96.999 -119c16.667 0 29.167 4.5 37.5 13.5s12.5 22.167 12.5 39.5c0 20.667 -14.667 64.334 -44 131.001z
M359.001 561.998l-25.999 60c-18.667 44 -40.667 66 -66 66c-14.667 0 -25.834 -3.66699 -33.501 -11s-11.5 -18.666 -11.5 -33.999c0 -12.667 7.66699 -37.334 23 -74.001l38 -90c20 -47.333 42.333 -71 67 -71c14 0 24.5 4.33301 31.5 13s10.5 21.334 10.5 38.001
c0 21.333 -11 55.666 -33 102.999z" />
    <glyph glyph-name="handok" unicode="B" horiz-adv-x="1624" 
d="M1195 30c-161.333 22.667 -299.001 82.665 -413.001 179.998l-225 24l-288 121c48.667 102.667 117.667 154 207 154c19.333 0 40.333 -3.16699 63 -9.5s46.667 -16.166 72 -29.499c50.667 15.333 92.667 27 126 35c8 42.667 12 75.667 12 99
c-56 41.333 -101.333 81.666 -136 120.999c-40.667 -23.333 -86.334 -45.333 -137.001 -66c-12 -132.667 -83 -199 -213 -199v296l232 216l-190 161c-88 73.333 -132 138.666 -132 195.999c0 40.667 20 82.334 60 125.001l328 -239l-32 71c-28 62 -42 117.333 -42 166
c0 66.667 38.667 117.334 116 152.001l221 -392l9 71c15.333 132 75 198 179 198c6.66699 0 18.334 -0.666992 35.001 -2c-6 -46 -9 -101 -9 -165c0 -155.333 12.333 -327 37 -515l476 -627c-71.333 -131.333 -156.666 -212.666 -255.999 -243.999zM1011 883.998
c-16.667 128.667 -25 270.669 -25 426.002c0 31.333 1.66699 72.333 5 123c-42 -11.333 -71.333 -33.333 -88 -66s-25 -85.334 -25 -158.001c0 -20.667 2 -54.334 6 -101.001zM907.999 960l-324 573.999c-32 -21.333 -48 -49.333 -48 -84
c0 -43.333 19.333 -106.666 58 -189.999l49 -105zM884.999 918.999l-642 464c-11.333 -19.333 -17 -37.333 -17 -54c0 -48 47.667 -111 143 -189l190 -155zM1212 82.999l95 -105.002c79.333 50 140.333 114.667 183 194l-515 673l-439 98l-225 -207l1 -223
c76 17.333 114 66 114 146c0 10.667 -0.333008 22.667 -1 36c74 24 138.667 55.333 194 94c49.333 -53.333 110 -108.666 182 -165.999c0 -47.333 -9.33301 -101.333 -28 -162c-29.333 -5.33301 -57 -11.666 -83 -18.999c-39.333 -12 -69.333 -20.333 -90 -25
c-20 14 -40.167 24.5 -60.5 31.5s-40.833 10.5 -61.5 10.5c-53.333 0 -98 -27 -134 -81l228 -96l225 -21c120 -106.667 258.333 -166 415 -178z" />
    <glyph glyph-name="thumbup" unicode="C" horiz-adv-x="1381" 
d="M1160 415l-148.998 0.00195312c-68.667 -78.667 -143 -136.334 -223 -173.001c-25.333 -2 -44 -3 -56 -3c-34 0 -72.667 6 -116 18l-36 -18h-43c-98 0 -147 35 -147 105c0 4 0.666992 10 2 18c-72 6 -108 40.333 -108 103c0 6.66699 0.666992 16 2 28
c-26.667 7.33301 -46.834 19.333 -60.501 36s-20.5 37.667 -20.5 63c0 20.667 7.33301 42.667 22 66c-36 38.667 -54 81.667 -54 129c0 54.667 29.667 98.667 89 132s138 50 236 50h25c-8 60 -26.333 118 -55 174l-16 28c-34.667 66 -52 117 -52 153
c0 99.333 52.333 161.333 157 186l29 7l50 -222l185 -197c12.667 -14.667 34.667 -43 66 -85l28 -37c30 -40.667 51.167 -65.5 63.5 -74.5s32.166 -13.5 59.499 -13.5h117c36 -76.667 54 -155.334 54 -236.001c0 -78.667 -16.333 -157.667 -49 -237zM1127 467.002
c20.667 60.667 31.002 118.672 31.002 174.005c0 65.333 -11.333 129.666 -34 192.999c-84 0 -136.667 5 -158 15s-53.333 45 -96 105l-77 99l-201 214l-40 185c-66.667 -22.667 -100 -65.334 -100 -128.001c0 -32.667 11.333 -68 34 -106l13 -22
c52 -86.667 78 -169.334 78 -248.001l1 -28h-36c-106 0 -185.667 -10.5 -239 -31.5s-80 -52.833 -80 -95.5c0 -38.667 13.833 -71.334 41.5 -98.001s61.5 -40 101.5 -40l61 -1l181 82c-27.333 41.333 -64 62 -110 62c-12 0 -27.333 -2.66699 -46 -8s-40.667 -13.333 -66 -24
l-47 -2l-47 50l81 1c23.333 10 44.666 17.333 63.999 22s37 7 53 7c85.333 0 147.666 -43.333 186.999 -130l-34 -16c42 -20.667 74.333 -56.667 97 -108l-39 -17c30.667 -19.333 59 -52.333 85 -99l-62 -29c34 -24.667 61.333 -59.667 82 -105l-123 -55c20 -4 37 -6 51 -6
l39 1c88.667 51.333 160.667 113.666 216 186.999h138zM671.004 612.007c-23.333 31.333 -51.333 51.333 -84 60l-149 -67h-53c-50 0 -88 7 -114 21c-8.66699 -12 -13 -23.333 -13 -34c0 -20.667 10.167 -36.167 30.5 -46.5s50.833 -15.5 91.5 -15.5h106zM713.004 495.007
c-3.33301 4 -6 7.33203 -8 9.99902c-16 18.667 -35 33.334 -57 44.001l-153 -68l-162 1l-3 -13c0 -39.333 39 -59 117 -59h75zM734.004 360.006l-11 14c-12.667 18 -28.667 34.333 -48 49l-143 -64h-92v-6c0 -44.667 32.333 -67 97 -67h33z" />
    <glyph glyph-name="thumbdown" unicode="D" horiz-adv-x="1381" 
d="M222 1065l148.998 -0.00195312c68.667 78.667 143 136.334 223 173.001c25.333 2 44 3 56 3c34 0 72.667 -6 116 -18l36 18h43c98 0 147 -35 147 -105c0 -4 -0.666992 -10 -2 -18c72 -6 108 -40.333 108 -103c0 -6.66699 -0.666992 -16 -2 -28
c26.667 -7.33301 46.834 -19.333 60.501 -36s20.5 -37.667 20.5 -63c0 -20.667 -7.33301 -42.667 -22 -66c36 -38.667 54 -81.667 54 -129c0 -54.667 -29.667 -98.667 -89 -132s-138 -50 -236 -50h-25c8 -60 26.333 -118 55 -174l16 -28c34.667 -66 52 -117 52 -153
c0 -99.333 -52.333 -161.333 -157 -186l-29 -7l-50 222l-185 197c-12.667 14.667 -34.667 43 -66 85l-28 37c-30 40.667 -51.167 65.5 -63.5 74.5s-32.166 13.5 -59.499 13.5h-117c-36 76.667 -54 155.334 -54 236.001c0 78.667 16.333 157.667 49 237zM254.998 1013
c-20.667 -60.667 -31.002 -118.672 -31.002 -174.005c0 -65.333 11.333 -129.666 34 -192.999c84 0 136.667 -5 158 -15s53.333 -45 96 -105l77 -99l201 -214l40 -185c66.667 22.667 100 65.334 100 128.001c0 32.667 -11.333 68 -34 106l-13 22
c-52 86.667 -78 169.334 -78 248.001l-1 28h36c106 0 185.667 10.5 239 31.5s80 52.833 80 95.5c0 38.667 -13.833 71.334 -41.5 98.001s-61.5 40 -101.5 40l-61 1l-181 -82c27.333 -41.333 64 -62 110 -62c12 0 27.333 2.66699 46 8s40.667 13.333 66 24l47 2l47 -50
l-81 -1c-23.333 -10 -44.666 -17.333 -63.999 -22s-37 -7 -53 -7c-85.333 0 -147.666 43.333 -186.999 130l34 16c-42 20.667 -74.333 56.667 -97 108l39 17c-30.667 19.333 -59 52.333 -85 99l62 29c-34 24.667 -61.333 59.667 -82 105l123 55c-20 4 -37 6 -51 6l-39 -1
c-88.667 -51.333 -160.667 -113.666 -216 -186.999h-138zM710.996 867.993c23.333 -31.333 51.333 -51.333 84 -60l149 67h53c50 0 88 -7 114 -21c8.66699 12 13 23.333 13 34c0 20.667 -10.167 36.167 -30.5 46.5s-50.833 15.5 -91.5 15.5h-106zM668.996 984.993
c3.33301 -4 6 -7.33203 8 -9.99902c16 -18.667 35 -33.334 57 -44.001l153 68l162 -1l3 13c0 39.333 -39 59 -117 59h-75zM647.996 1119.99l11 -14c12.667 -18 28.667 -34.333 48 -49l143 64h92v6c0 44.667 -32.333 67 -97 67h-33z" />
    <glyph glyph-name="handptleft" unicode="E" horiz-adv-x="1929" 
d="M1708 599l-143 0.00195312c-76.667 -83.333 -151.334 -141.666 -224.001 -174.999c-27.333 -3.33301 -47.333 -5 -60 -5c-36.667 0 -76 6.66699 -118 20l-37 -16l-35 -2c-100 0 -150 36 -150 108c0 3.33301 0.666992 8.66602 2 15.999
c-37.333 5.33301 -65.333 17.166 -84 35.499s-28 43.5 -28 75.5c0 14 3.66699 30.333 11 49c-30 8 -52.5 20.667 -67.5 38s-22.5 39 -22.5 65c0 19.333 4.16699 36.166 12.5 50.499s20.833 26.5 37.5 36.5l-36 8l-360 4c-77.333 0 -135.5 9 -174.5 27s-58.5 44.667 -58.5 80
c0 41.333 18.667 70.333 56 87s103 25 197 25l409 9l41 38l275 25c126.667 -36.667 239.334 -79.667 338.001 -129h214c35.333 -75.333 53 -156 53 -242c0 -76 -16 -152 -48 -228zM783 1086l-366 -8.99902c-130 0 -195 -21.333 -195 -64
c0 -18.667 20.167 -32.834 60.5 -42.501s100.833 -14.5 181.5 -14.5l227 -1c-6.66699 6 -14.667 14.333 -24 25zM1674 651.003c20.667 62 30.998 122.668 30.998 182.001c0 62.667 -11.667 125 -35 187h-182c-169.333 68 -282.666 110.333 -339.999 127l-253 -22l-157 -144
c29.333 -26 62.666 -39 99.999 -39c57.333 0 114.333 29.667 171 89c60.667 -34.667 123.667 -52 189 -52l17 1l-2 -50l-23 -1c-60 0 -117 14.333 -171 43c-39.333 -30.667 -75.666 -52.334 -108.999 -65.001l90 -1c18 10 35.667 17.333 53 22s34.333 7 51 7
c76.667 0 137.667 -44.333 183 -133l-70 -30c44 -14 84.333 -52.333 121 -115l-62 -28c37.333 -30.667 64.333 -65.667 81 -105l-125 -53c34 -4.66699 56 -7 66 -7c6.66699 0 18.334 1.33301 35.001 4c77.333 45.333 146 106.333 206 183h135zM1218 822.004
c-25.333 43.333 -63.333 65 -114 65c-14.667 0 -29.5 -2.66699 -44.5 -8s-30.167 -13.333 -45.5 -24h-129c-27.333 0 -47.833 -3.83301 -61.5 -11.5s-20.5 -19.167 -20.5 -34.5c0 -21.333 10 -37.5 30 -48.5s49.667 -16.5 89 -16.5l106 1zM1265 678.004
c-23.333 35.333 -62.333 56.668 -117 64.001l-104 -46l-146 1c-10 -16 -15 -30 -15 -42c0 -20.667 8.16699 -36.334 24.5 -47.001s40.833 -16 73.5 -16l90 2zM1287 548.006c-14.667 19.333 -36.333 38 -65 56l-134 -59h-97c0 -50 31 -75 93 -75l39 1z" />
    <glyph glyph-name="handptright" unicode="F" horiz-adv-x="1929" 
d="M221 599l143 0.00195312c76.667 -83.333 151.334 -141.666 224.001 -174.999c27.333 -3.33301 47.333 -5 60 -5c36.667 0 76 6.66699 118 20l37 -16l35 -2c100 0 150 36 150 108c0 3.33301 -0.666992 8.66602 -2 15.999c37.333 5.33301 65.333 17.166 84 35.499
s28 43.5 28 75.5c0 14 -3.66699 30.333 -11 49c30 8 52.5 20.667 67.5 38s22.5 39 22.5 65c0 19.333 -4.16699 36.166 -12.5 50.499s-20.833 26.5 -37.5 36.5l36 8l360 4c77.333 0 135.5 9 174.5 27s58.5 44.667 58.5 80c0 41.333 -18.667 70.333 -56 87s-103 25 -197 25
l-409 9l-41 38l-275 25c-126.667 -36.667 -239.334 -79.667 -338.001 -129h-214c-35.333 -75.333 -53 -156 -53 -242c0 -76 16 -152 48 -228zM1146 1086l366 -8.99902c130 0 195 -21.333 195 -64c0 -18.667 -20.167 -32.834 -60.5 -42.501s-100.833 -14.5 -181.5 -14.5
l-227 -1c6.66699 6 14.667 14.333 24 25zM255 651.003c-20.667 62 -30.998 122.668 -30.998 182.001c0 62.667 11.667 125 35 187h182c169.333 68 282.666 110.333 339.999 127l253 -22l157 -144c-29.333 -26 -62.666 -39 -99.999 -39c-57.333 0 -114.333 29.667 -171 89
c-60.667 -34.667 -123.667 -52 -189 -52l-17 1l2 -50l23 -1c60 0 117 14.333 171 43c39.333 -30.667 75.666 -52.334 108.999 -65.001l-90 -1c-18 10 -35.667 17.333 -53 22s-34.333 7 -51 7c-76.667 0 -137.667 -44.333 -183 -133l70 -30
c-44 -14 -84.333 -52.333 -121 -115l62 -28c-37.333 -30.667 -64.333 -65.667 -81 -105l125 -53c-34 -4.66699 -56 -7 -66 -7c-6.66699 0 -18.334 1.33301 -35.001 4c-77.333 45.333 -146 106.333 -206 183h-135zM711.002 822.004c25.333 43.333 63.333 65 114 65
c14.667 0 29.5 -2.66699 44.5 -8s30.167 -13.333 45.5 -24h129c27.333 0 47.833 -3.83301 61.5 -11.5s20.5 -19.167 20.5 -34.5c0 -21.333 -10 -37.5 -30 -48.5s-49.667 -16.5 -89 -16.5l-106 1zM664.002 678.004c23.333 35.333 62.333 56.668 117 64.001l104 -46l146 1
c10 -16 15 -30 15 -42c0 -20.667 -8.16699 -36.334 -24.5 -47.001s-40.833 -16 -73.5 -16l-90 2zM642.002 548.006c14.667 19.333 36.333 38 65 56l134 -59h97c0 -50 -31 -75 -93 -75l-39 1z" />
    <glyph glyph-name="handptup" unicode="G" horiz-adv-x="1124" 
d="M353 11l0.00195312 143c-83.333 76.667 -141.666 151.334 -174.999 224.001c-3.33301 27.333 -5 47.333 -5 60c0 36.667 6.66699 76 20 118l-16 37l-2 35c0 100 36 150 108 150c3.33301 0 8.66602 -0.666992 15.999 -2c5.33301 37.333 17.166 65.333 35.499 84
s43.5 28 75.5 28c14 0 30.333 -3.66699 49 -11c8 30 20.667 52.5 38 67.5s39 22.5 65 22.5c19.333 0 36.166 -4.16699 50.499 -12.5s26.5 -20.833 36.5 -37.5l8 36l4 360c0 77.333 9 135.5 27 174.5s44.667 58.5 80 58.5c41.333 0 70.333 -18.667 87 -56s25 -103 25 -197
l9 -409l38 -41l25 -275c-36.667 -126.667 -79.667 -239.334 -129 -338.001v-214c-75.333 -35.333 -156 -53 -242 -53c-76 0 -152 16 -228 48zM840.002 936l-8.99902 366c0 130 -21.333 195 -64 195c-18.667 0 -32.834 -20.167 -42.501 -60.5s-14.5 -100.833 -14.5 -181.5
l-1 -227c6 6.66699 14.333 14.667 25 24zM405.003 45c62 -20.667 122.668 -30.998 182.001 -30.998c62.667 0 125 11.667 187 35v182c68 169.333 110.333 282.666 127 339.999l-22 253l-144 157c-26 -29.333 -39 -62.666 -39 -99.999c0 -57.333 29.667 -114.333 89 -171
c-34.667 -60.667 -52 -123.667 -52 -189l1 -17l-50 2l-1 23c0 60 14.333 117 43 171c-30.667 39.333 -52.334 75.666 -65.001 108.999l-1 -90c10 -18 17.333 -35.667 22 -53s7 -34.333 7 -51c0 -76.667 -44.333 -137.667 -133 -183l-30 70
c-14 -44 -52.333 -84.333 -115 -121l-28 62c-30.667 -37.333 -65.667 -64.333 -105 -81l-53 125c-4.66699 -34 -7 -56 -7 -66c0 -6.66699 1.33301 -18.334 4 -35.001c45.333 -77.333 106.333 -146 183 -206v-135zM576.004 501.002c43.333 25.333 65 63.333 65 114
c0 14.667 -2.66699 29.5 -8 44.5s-13.333 30.167 -24 45.5v129c0 27.333 -3.83301 47.833 -11.5 61.5s-19.167 20.5 -34.5 20.5c-21.333 0 -37.5 -10 -48.5 -30s-16.5 -49.667 -16.5 -89l1 -106zM432.004 454.002c35.333 23.333 56.668 62.333 64.001 117l-46 104l1 146
c-16 10 -30 15 -42 15c-20.667 0 -36.334 -8.16699 -47.001 -24.5s-16 -40.833 -16 -73.5l2 -90zM302.006 432.002c19.333 14.667 38 36.333 56 65l-59 134v97c-50 0 -75 -31 -75 -93l1 -39z" />
    <glyph glyph-name="handptdwn" unicode="H" horiz-adv-x="1124" 
d="M772 1498l-0.00195312 -143c83.333 -76.667 141.666 -151.334 174.999 -224.001c3.33301 -27.333 5 -47.333 5 -60c0 -36.667 -6.66699 -76 -20 -118l16 -37l2 -35c0 -100 -36 -150 -108 -150c-3.33301 0 -8.66602 0.666992 -15.999 2
c-5.33301 -37.333 -17.166 -65.333 -35.499 -84s-43.5 -28 -75.5 -28c-14 0 -30.333 3.66699 -49 11c-8 -30 -20.667 -52.5 -38 -67.5s-39 -22.5 -65 -22.5c-19.333 0 -36.166 4.16699 -50.499 12.5s-26.5 20.833 -36.5 37.5l-8 -36l-4 -360c0 -77.333 -9 -135.5 -27 -174.5
s-44.667 -58.5 -80 -58.5c-41.333 0 -70.333 18.667 -87 56s-25 103 -25 197l-9 409l-38 41l-25 275c36.667 126.667 79.667 239.334 129 338.001v214c75.333 35.333 156 53 242 53c76 0 152 -16 228 -48zM284.998 573l8.99902 -366c0 -130 21.333 -195 64 -195
c18.667 0 32.834 20.167 42.501 60.5s14.5 100.833 14.5 181.5l1 227c-6 -6.66699 -14.333 -14.667 -25 -24zM719.997 1464c-62 20.667 -122.668 30.998 -182.001 30.998c-62.667 0 -125 -11.667 -187 -35v-182c-68 -169.333 -110.333 -282.666 -127 -339.999l22 -253
l144 -157c26 29.333 39 62.666 39 99.999c0 57.333 -29.667 114.333 -89 171c34.667 60.667 52 123.667 52 189l-1 17l50 -2l1 -23c0 -60 -14.333 -117 -43 -171c30.667 -39.333 52.334 -75.666 65.001 -108.999l1 90c-10 18 -17.333 35.667 -22 53s-7 34.333 -7 51
c0 76.667 44.333 137.667 133 183l30 -70c14 44 52.333 84.333 115 121l28 -62c30.667 37.333 65.667 64.333 105 81l53 -125c4.66699 34 7 56 7 66c0 6.66699 -1.33301 18.334 -4 35.001c-45.333 77.333 -106.333 146 -183 206v135zM548.996 1008
c-43.333 -25.333 -65 -63.333 -65 -114c0 -14.667 2.66699 -29.5 8 -44.5s13.333 -30.167 24 -45.5v-129c0 -27.333 3.83301 -47.833 11.5 -61.5s19.167 -20.5 34.5 -20.5c21.333 0 37.5 10 48.5 30s16.5 49.667 16.5 89l-1 106zM692.996 1055
c-35.333 -23.333 -56.668 -62.333 -64.001 -117l46 -104l-1 -146c16 -10 30 -15 42 -15c20.667 0 36.334 8.16699 47.001 24.5s16 40.833 16 73.5l-2 90zM822.994 1077c-19.333 -14.667 -38 -36.333 -56 -65l59 -134v-97c50 0 75 31 75 93l-1 39z" />
    <glyph glyph-name="handhalt" unicode="I" horiz-adv-x="1826" 
d="M1058 170l0.000976562 -143c-84.667 -34.667 -165 -52 -241 -52c-78.667 0 -154.667 17.333 -228 52v110l-87 100c-50.667 94.667 -86 216.667 -106 366l11 120l-191 332c-28.667 50 -43 90 -43 120c0 26.667 8.83301 49.167 26.5 67.5s39.167 27.5 64.5 27.5
c37.333 0 74.666 -30.667 111.999 -92l173 -285l-107 408c-13.333 50.667 -20 85.667 -20 105c0 37.333 8.16699 65.166 24.5 83.499s40.833 27.5 73.5 27.5c56 0 96.333 -42.667 121 -128l120 -419v478c0 52 9.33301 91 28 117s46.667 39 84 39c74 0 111 -58.667 111 -176
l-11 -478l125 372c36.667 109.333 81.667 164 135 164c30.667 0 53.667 -7.66699 69 -23s23 -38.666 23 -69.999c0 -32 -5.33301 -69.667 -16 -113l-124 -482c6.66699 -22.667 12.334 -57.667 17.001 -105c21.333 12 51 24.667 89 38c27.333 46 57.666 80.5 90.999 103.5
s70 34.5 110 34.5c38.667 0 85.667 -23.667 141 -71l20 -16l-216 -205l-184 -246c-72.667 -68 -137.667 -121.667 -195 -161zM1010 194c90 70 162.668 132.332 218.001 186.999l168 225l185 173c-32 26.667 -62.333 40 -91 40c-32 0 -61.667 -10.5 -89 -31.5
s-52.333 -52.833 -75 -95.5c-117.333 -36.667 -216 -103.334 -296 -200.001l-38 30c40 60 94.667 108.667 164 146c-6 47.333 -14.667 90.666 -26 129.999l126 471c13.333 48 20 83 20 105c0 20 -3.66699 34.833 -11 44.5s-18.333 14.5 -33 14.5
c-28 0 -53.667 -34.333 -77 -103l-145 -430h-86l12 491l1 32c0 87.333 -21 131 -63 131c-20.667 0 -36.334 -7.5 -47.001 -22.5s-16 -37.833 -16 -68.5l1 -63v-500l-79 -14l-125 459c-22 82 -50.667 123 -86 123c-17.333 0 -30.333 -5.16699 -39 -15.5
s-13 -26.166 -13 -47.499c0 -14 6 -42.333 18 -85l134 -487l-73 -35l-217 353c-27.333 45.333 -51 68 -71 68c-13.333 0 -23.333 -3.66699 -30 -11s-10 -18.666 -10 -33.999c0 -19.333 12.333 -50.333 37 -93l200 -343l-12 -135c20.667 -137.333 55 -252.666 103 -345.999
l92 -110v-87c58.667 -22.667 120.667 -34 186 -34c54 0 115 11.333 183 34v134z" />
    <glyph glyph-name="smileface" unicode="J" horiz-adv-x="1727" 
d="M863 -37c-214.667 0 -397.834 75.833 -549.501 227.5s-227.5 334.834 -227.5 549.501s75.833 397.834 227.5 549.501s334.834 227.5 549.501 227.5s397.834 -75.833 549.501 -227.5s227.5 -334.834 227.5 -549.501s-75.833 -397.834 -227.5 -549.501
s-334.834 -227.5 -549.501 -227.5zM863 62c187.333 0 347.166 66.167 479.499 198.5s198.5 292.166 198.5 479.499s-66.167 347.333 -198.5 480s-292.166 199 -479.499 199s-347.166 -66.333 -479.499 -199s-198.5 -292.667 -198.5 -480s66.167 -347.166 198.5 -479.499
s292.166 -198.5 479.499 -198.5zM407 697h60.998c48.667 -214 180.334 -321 395.001 -321s346.334 107 395.001 321h62c-15.333 -138.667 -63.5 -247.334 -144.5 -326.001s-185.167 -118 -312.5 -118s-231.333 39.333 -312 118s-128.667 187.334 -144 326.001zM615.998 864
c-34 0 -63 12 -87 36s-36 53 -36 87s12 63 36 87s53 36 87 36c34.667 0 64 -12 88 -36s36 -53 36 -87s-12.167 -63 -36.5 -87s-53.5 -36 -87.5 -36zM1110 864c-34 0 -63.167 12 -87.5 36s-36.5 53 -36.5 87s12.167 63 36.5 87s53.5 36 87.5 36s63 -12 87 -36s36 -53 36 -87
s-12 -63 -36 -87s-53 -36 -87 -36z" />
    <glyph glyph-name="neutralface" unicode="K" horiz-adv-x="1727" 
d="M863 -37c-214.667 0 -397.834 75.833 -549.501 227.5s-227.5 334.834 -227.5 549.501s75.833 397.834 227.5 549.501s334.834 227.5 549.501 227.5s397.834 -75.833 549.501 -227.5s227.5 -334.834 227.5 -549.501s-75.833 -397.834 -227.5 -549.501
s-334.834 -227.5 -549.501 -227.5zM863 62c187.333 0 347.166 66.167 479.499 198.5s198.5 292.166 198.5 479.499s-66.167 347.333 -198.5 480s-292.166 199 -479.499 199s-347.166 -66.333 -479.499 -199s-198.5 -292.667 -198.5 -480s66.167 -347.166 198.5 -479.499
s292.166 -198.5 479.499 -198.5zM419 475v99h888v-99h-888zM616 864c-34 0 -63 12 -87 36s-36 53 -36 87s12 63 36 87s53 36 87 36c34.667 0 64 -12 88 -36s36 -53 36 -87s-12.167 -63 -36.5 -87s-53.5 -36 -87.5 -36zM1110 864c-34 0 -63.167 12 -87.5 36
s-36.5 53 -36.5 87s12.167 63 36.5 87s53.5 36 87.5 36s63 -12 87 -36s36 -53 36 -87s-12 -63 -36 -87s-53 -36 -87 -36z" />
    <glyph glyph-name="frownface" unicode="L" horiz-adv-x="1727" 
d="M863 -37c-214.667 0 -397.834 75.833 -549.501 227.5s-227.5 334.834 -227.5 549.501s75.833 397.834 227.5 549.501s334.834 227.5 549.501 227.5s397.834 -75.833 549.501 -227.5s227.5 -334.834 227.5 -549.501s-75.833 -397.834 -227.5 -549.501
s-334.834 -227.5 -549.501 -227.5zM863 62c187.333 0 347.166 66.167 479.499 198.5s198.5 292.166 198.5 479.499s-66.167 347.333 -198.5 480s-292.166 199 -479.499 199s-347.166 -66.333 -479.499 -199s-198.5 -292.667 -198.5 -480s66.167 -347.166 198.5 -479.499
s292.166 -198.5 479.499 -198.5zM468 339h-60.999c14.667 138.667 62.5 247.334 143.5 326.001s185.167 118 312.5 118s231.5 -39.333 312.5 -118s129.167 -187.334 144.5 -326.001h-62c-48 214 -179.667 321 -395 321c-214.667 0 -346.334 -107 -395.001 -321zM616.001 864
c-34 0 -63 12 -87 36s-36 53 -36 87s12 63 36 87s53 36 87 36c34.667 0 64 -12 88 -36s36 -53 36 -87s-12.167 -63 -36.5 -87s-53.5 -36 -87.5 -36zM1110 864c-34 0 -63.167 12 -87.5 36s-36.5 53 -36.5 87s12.167 63 36.5 87s53.5 36 87.5 36s63 -12 87 -36s36 -53 36 -87
s-12 -63 -36 -87s-53 -36 -87 -36z" />
    <glyph glyph-name="bomb" unicode="M" horiz-adv-x="2275" 
d="M876 1128l0.000976562 -136c238.667 -97.333 358 -263.666 358 -498.999c0 -146.667 -51.833 -271.667 -155.5 -375s-228.834 -155 -375.501 -155c-146 0 -270.833 51.667 -374.5 155s-155.5 227.666 -155.5 372.999c0 229.333 119.333 396.333 358 501v136
c33.333 17.333 74.666 30 123.999 38v21c0 68.667 22.333 126.5 67 173.5s99.334 70.5 164.001 70.5c87.333 0 192.666 -53 315.999 -159l53 -46c128 -110 232.333 -165 313 -165c27.333 0 61.333 10.667 102 32c6 3.33301 14 5 24 5c30.667 0 46 -12.333 46 -37
c0 -26 -18.167 -49 -54.5 -69s-77.833 -30 -124.5 -30c-99.333 0 -222.666 62 -369.999 186l-57 48c-108 90.667 -191.333 136 -250 136c-86.667 0 -130 -55.333 -130 -166c43.333 -9.33301 84 -22 122 -38zM1350 1484l40 33l246 -324zM1696 1517h51l-24 -293zM2051 1517
l41 -31l-280 -294zM2143 1186l8 -47l-294 -27zM2201 838l-24 -41l-337 225zM1891 696l-48 -17l-74 284zM1553 576l-47 17l167 372z" />
    <glyph glyph-name="skullcrossbones" unicode="N" horiz-adv-x="1352" 
d="M800 805l-20.002 -51.001c-25.333 -8.66699 -59.666 -13 -102.999 -13c-21.333 0 -40.666 1.16699 -57.999 3.5s-32.333 5.5 -45 9.5l-20 51l-140 67l-13 84c-2 16 -16.333 47.333 -43 94c-20.667 34.667 -31 90.334 -31 167.001c0 89.333 32.333 161.666 97 216.999
s149 83 253 83s188.333 -27.667 253 -83s97 -127.666 97 -216.999c0 -76.667 -21.333 -151.667 -64 -225c-4 -8 -7.33301 -20 -10 -36l-13 -84zM865.998 781.999l-24.9971 -99.002l-61 -53c-10.667 -20.667 -24.834 -36.167 -42.501 -46.5s-38.5 -15.5 -62.5 -15.5
c-48 0 -83 20.667 -105 62l-61 53l-25 99l36 9l9 -23c15.333 -35.333 32.166 -58.666 50.499 -69.999s48.833 -17 91.5 -17c48 0 81.167 5.33301 99.5 16s35.166 34.334 50.499 71.001l9 23zM681.001 368.997c43.333 24 119.334 58.998 228.001 104.998
c5.33301 2.66699 19.333 8.66699 42 18c38.667 39.333 70.667 68.833 96 88.5s43.666 29.5 54.999 29.5c14 0 24.333 -4.33301 31 -13s10 -22 10 -40c0 -15.333 -2.33301 -37 -7 -65c28.667 -36 43 -62.667 43 -80c0 -14.667 -4 -25.834 -12 -33.501s-20 -11.5 -36 -11.5
c-8 0 -20.167 4.16699 -36.5 12.5s-37.166 20.5 -62.499 36.5c-61.333 -11.333 -149.333 -45.666 -264 -102.999l32 -19c40 -22.667 89.333 -53 148 -91c7.33301 -4.66699 24 -14.667 50 -30c121.333 -14 182 -44.667 182 -92c0 -30.667 -32.667 -51.334 -98 -62.001
c-30.667 -37.333 -56 -56 -76 -56c-24 0 -47.333 31.333 -70 94c-2 6.66699 -5.66699 16.334 -11 29.001c-93.333 76.667 -177.333 134.667 -252 174c-91.333 -51.333 -176 -112.666 -254 -183.999c-10.667 -75.333 -33.334 -113 -68.001 -113c-22 0 -47.333 21.333 -76 64
c-68 0 -102 18.667 -102 56c0 27.333 12.667 47.166 38 59.499s78.666 24.5 159.999 36.5c60.667 44.667 132.667 89.334 216 134.001c-112 56 -203.333 90.333 -274 103c-16.667 -14.667 -32 -25.667 -46 -33s-27 -11 -39 -11c-17.333 0 -30.5 3.66699 -39.5 11
s-13.5 18 -13.5 32c0 12.667 14.667 38.334 44 77.001c-6.66699 27.333 -10 48 -10 62c0 20 4 34.833 12 44.5s19.667 14.5 35 14.5s35.333 -10 60 -30s54.334 -50.333 89.001 -91c76.667 -27.333 168.667 -68.333 276 -123zM448.002 1054c0 -64 27.667 -96 83 -96
c56 0 84 34.333 84 103c0 56.667 -27 85 -81 85c-28.667 0 -50.167 -7.66699 -64.5 -23s-21.5 -38.333 -21.5 -69zM744.002 1054c0 -64 28 -96 84 -96s84 34.333 84 103c0 28.667 -6.83301 50 -20.5 64s-34.167 21 -61.5 21c-57.333 0 -86 -30.667 -86 -92zM678.002 972.995
c-12 -20 -24.334 -37.667 -37.001 -53c-16 -18 -24 -32 -24 -42c0 -10.667 3.16699 -18.667 9.5 -24s15.5 -8 27.5 -8c7.33301 0 15.333 2.66699 24 8c8.66699 -5.33301 16.667 -8 24 -8c24.667 0 37 11 37 33c0 9.33301 -8 23 -24 41c-13.333 16 -25.666 33.667 -36.999 53
z" />
    <glyph glyph-name="flag" unicode="O" horiz-adv-x="1739" 
d="M198 -210l-0.00195312 1669c-16.667 14.667 -25 32 -25 52c0 45.333 24.333 68 73 68c50 0 75 -22.667 75 -68c0 -18 -8.33301 -35.333 -25 -52v-143c126.667 109.333 262.334 164 407.001 164c206 0 309 -88.667 309 -266v-216c209.333 -35.333 394.333 5 555 121v-884
c-115.333 -90.667 -249.666 -136 -402.999 -136c-104.667 0 -195.167 15.333 -271.5 46s-114.5 67 -114.5 109v332c-33.333 4 -57.333 6 -72 6c-153.333 0 -290 -57.667 -410 -173v-629h-98zM295.998 489c121.333 102 259 153 413 153c90.667 0 175.334 -17.667 254.001 -53
v618c0 149.333 -86.667 224 -260 224c-138.667 0 -274.334 -59.667 -407.001 -179v-763zM1518 1024c-121.333 -58 -240.333 -86.999 -357 -86.999c-56 0 -105.667 4 -149 12v-463c0 -52.667 -28.667 -92.334 -86 -119.001l-27 -12c-56.667 -26 -85 -52.333 -85 -79
c0 -33.333 36.5 -63 109.5 -89s155.167 -39 246.5 -39c128 0 244 36.333 348 109v767zM826.998 374.001c98.667 48 148 88.333 148 121c0 42.667 -49.333 70.667 -148 84v-205z" />
    <glyph glyph-name="pennant" unicode="P" horiz-adv-x="2230" 
d="M458 0l-100 0.000976562l-185 1468l22 198l79 -198l16 -122c125.333 89.333 260 134 404 134c98.667 0 180.667 -23.333 246 -70s98 -105.334 98 -176.001c0 -25.333 -3.66699 -57 -11 -95l-25 -129c175.333 -136.667 393 -205 653 -205
c162.667 0 305.334 41.333 428.001 124c-138.667 -190 -299.334 -334.167 -482.001 -432.5s-381.334 -147.5 -596.001 -147.5c-95.333 0 -172.666 13.333 -231.999 40c-60 26.667 -87 60 -81 100l50 360c-130 0 -253.333 -52.333 -370 -157zM358 801.001
c124.667 98.667 252.667 148 384 148c78 0 140.667 -19 188 -57l37 182c8.66699 43.333 13 78.333 13 105c0 58 -28 105.667 -84 143s-127.667 56 -215 56c-104 0 -230.333 -44 -379 -132zM764 635.001c13.333 7.33301 23.667 12.668 31 16.001
c74 37.333 111 73.333 111 108c0 41.333 -38.333 69.666 -115 84.999zM983.001 904.003l-42 -196c-6.66699 -30.667 -47.334 -64.334 -122.001 -101.001l-42 -22c-10 -11.333 -15 -22.666 -15 -33.999c0 -33.333 18.833 -58.333 56.5 -75s93.834 -25 168.501 -25
c294.667 0 546.667 85.667 756 257c-50 -3.33301 -85.667 -5 -107 -5c-263.333 0 -481 67 -653 201z" />
    <glyph glyph-name="airplane" unicode="Q" horiz-adv-x="1819" 
d="M272 740l-99 222h111l105 -160l574 18l-272 660h148l420 -647l97 1c57.333 0 109.333 -7.33301 156 -22l64 -21c47.333 -16 71 -32.667 71 -50c0 -18.667 -23.667 -36 -71 -52l-64 -21c-46.667 -14.667 -99.667 -22 -159 -22l-94 2l-420 -648h-148l272 660l-574 18
l-105 -160h-111z" />
    <glyph glyph-name="sunshine" unicode="R" horiz-adv-x="1803" 
d="M902 257l-253 -212l-58 325h-330l165 286l-253 213l310 113l-56 325l310 -113l165 286l166 -286l310 113l-57 -325l310 -113l-253 -213l165 -286h-330l-58 -325zM902 308c119.333 0 221.164 42.167 305.497 126.5s126.5 186.166 126.5 305.499
s-42.167 221.166 -126.5 305.499s-186.166 126.5 -305.499 126.5s-221.166 -42.167 -305.499 -126.5s-126.5 -186.166 -126.5 -305.499s42.333 -221.166 127 -305.499s186.334 -126.5 305.001 -126.5z" />
    <glyph glyph-name="droplet" unicode="S" horiz-adv-x="1332" 
d="M666 1480c32 -136 68.333 -244.333 109 -325s102.667 -168 186 -262l36 -40c108.667 -121.333 163 -242.666 163 -363.999c0 -134 -48.5 -249 -145.5 -345s-213.167 -144 -348.5 -144c-134.667 0 -250.5 48 -347.5 144s-145.5 211 -145.5 345
c0 121.333 54.333 242.666 163 363.999l36 40c83.333 94 145.333 181.333 186 262s76.667 189 108 325z" />
    <glyph glyph-name="snowflake" unicode="T" horiz-adv-x="1665" 
d="M796 0v233l-203 -116l-37 64l240 138v357l-309 -179v-276h-75v234l-202 -117l-37 64l202 117l-202 116l37 65l239 -138l310 178l-310 178l-239 -137l-37 64l202 116l-202 117l37 64l202 -116v233h75v-276l309 -179v358l-239 137l37 65l202 -117v233h74v-233l202 117
l37 -65l-239 -137v-358l309 179v276h74v-233l202 116l38 -64l-202 -117l202 -116l-37 -64l-240 137l-309 -178l309 -178l239 138l38 -65l-202 -116l202 -117l-37 -64l-203 117v-234h-74v276l-309 179v-357l240 -138l-37 -64l-203 116v-233h-74z" />
    <glyph glyph-name="crossoutline" unicode="U" horiz-adv-x="1529" 
d="M568 1086v394h395v-394h395v-395h-395v-691h-395v691h-395v395h395zM667 987h-395v-197h395v-691h197v691h395v197h-395v395h-197v-395z" />
    <glyph glyph-name="crossshadow" unicode="V" horiz-adv-x="1529" 
d="M518 1135v345h395l99 -98v-247h247l98 -99v-395h-345v-641h-395l-99 99v641h-345v395h345zM617 1036h-345v-197h345v-642h198v642h345v197h-345v346h-198v-346z" />
    <glyph glyph-name="crossceltic" unicode="W" horiz-adv-x="1480" 
d="M815 651c94 30.667 156.334 93.333 187.001 188h-88l-82 36c-12.667 -23.333 -30.334 -41 -53.001 -53l36 -82v-89zM328.001 838.999h-155v148h155c44 181.333 157 294.333 339 339v154h148v-155c181.333 -45.333 294.333 -158 339 -338h154v-148h-154
c-44.667 -181.333 -157.667 -294.333 -339 -339v-500h-148v500c-182 44.667 -295 157.667 -339 339zM568.001 838.999h-88c28.667 -94 91 -156.667 187 -188v89l36 82c-23.333 12 -41.333 29.667 -54 53zM649.001 950.999c12.667 22.667 30.666 40.333 53.999 53l-36 82v88
c-95.333 -30.667 -157.666 -93 -186.999 -187h88zM779 1004c22.667 -12.667 40.333 -30.334 53 -53.001l82 36h88c-24 72.667 -76.333 131.334 -157 176.001l-30 10v-87z" />
    <glyph glyph-name="crossmaltese" unicode="X" horiz-adv-x="1420" 
d="M1090 1277v-35c-206 -80 -320.333 -235 -343 -465c230 22.667 385 137 465 343h35v-760h-35c-82 205.333 -237 319.666 -465 342.999c22.667 -229.333 137 -384 343 -464v-36h-760v36c206 78.667 320.333 233.334 343 464.001c-230 -24 -384.667 -138.333 -464 -343h-36
v760h36c80 -206 234.667 -320.333 464 -343c-22.667 230.667 -137 385.667 -343 465v35h760z" />
    <glyph glyph-name="starofdavid" unicode="Y" horiz-adv-x="1627" 
d="M714 1110h200l-100 173zM1184 641l-99 -172h199zM543 469l-99 172l-100 -172h199zM173 370l214 370l-214 370h427l214 370l214 -370h427l-214 -370l214 -370h-427l-214 -370l-214 370h-427zM1085 1012l99 -173l100 173h-199zM914 370h-200l100 -173zM657 469h313l157 271
l-156 272h-314l-156 -272zM444 839l99 173h-199z" />
    <glyph glyph-name="crescentstar" unicode="Z" horiz-adv-x="1813" 
d="M1360 150c-66.667 -43.333 -110.668 -70 -132.001 -80c-99.333 -46.667 -204.333 -70 -315 -70c-204.667 0 -379.167 72.167 -523.5 216.5s-216.5 318.833 -216.5 523.5c0 206 72.5 380.833 217.5 524.5s321.167 215.5 528.5 215.5c152.667 0 299.667 -49.667 441 -149
l-248 50c-178 0 -329.667 -62.5 -455 -187.5s-188 -276.167 -188 -453.5c0 -176 62.333 -326.833 187 -452.5s274.334 -188.5 449.001 -188.5zM1078 825h215l67 204l66 -204h215l-174 -126l66 -205l-173 126l-174 -126l66 205z" />
    <glyph glyph-name="yinyang" unicode="[" horiz-adv-x="1826" 
d="M913 752l0.998047 -24.001c4.66699 -95.333 39.834 -174.666 105.501 -237.999s145.5 -95 239.5 -95c97.333 0 179.166 34.167 245.499 102.5s99.5 152.833 99.5 253.5c0 185.333 -68.167 345 -204.5 479s-298.5 201 -486.5 201
c-192.667 0 -353.167 -64.167 -481.5 -192.5s-198.166 -294.5 -209.499 -498.5c14.667 113.333 51.334 199.333 110.001 258s137.334 88 236.001 88c94 0 173.667 -31.833 239 -95.5s100.666 -143.167 105.999 -238.5zM1357 739.999c0 -27.333 -9.66699 -50.666 -29 -69.999
s-42.333 -29 -69 -29c-27.333 0 -50.666 9.66699 -69.999 29s-29 42.666 -29 69.999s9.66699 50.666 29 69.999s42.666 29 69.999 29s50.5 -9.66699 69.5 -29s28.5 -42.666 28.5 -69.999zM665.998 739.999c0 27.333 -9.5 50.6641 -28.5 69.9971s-42.167 29 -69.5 29
s-50.666 -9.66699 -69.999 -29s-29 -42.666 -29 -69.999s9.66699 -50.666 29 -69.999s42.666 -29 69.999 -29c26.667 0 49.667 9.83301 69 29.5s29 42.834 29 69.501zM1653 739.997c0 -204.667 -72.167 -379.167 -216.5 -523.5s-318.833 -216.5 -523.5 -216.5
s-379.167 72.167 -523.5 216.5s-216.5 318.833 -216.5 523.5s72.167 379.167 216.5 523.5s318.833 216.5 523.5 216.5s379.167 -72.167 523.5 -216.5s216.5 -318.833 216.5 -523.5z" />
    <glyph glyph-name="om" unicode="\" horiz-adv-x="1834" 
d="M173 688l55.998 16.001c28 -180.667 87.5 -326.667 178.5 -438s196.167 -167 315.5 -167c62.667 0 115.5 22.5 158.5 67.5s64.5 100.167 64.5 165.5c0 119.333 -48 227.666 -144 324.999c-50 -69.333 -109.333 -119.666 -178 -150.999l-70 166
c154.667 45.333 232 119.333 232 222c0 39.333 -11.667 68.833 -35 88.5s-58.666 29.5 -105.999 29.5c-70 0 -143.667 -21 -221 -63l-68 165c64 30.667 130.333 46 199 46c90.667 0 164.167 -29.5 220.5 -88.5s84.5 -135.833 84.5 -230.5c0 -40.667 -8 -76.667 -24 -108
l31 -29c88.667 84.667 173.334 127 254.001 127c6.66699 0 17 -0.666992 31 -2c31.333 162.667 114 244 248 244c87.333 0 152.833 -35.667 196.5 -107s65.5 -178.333 65.5 -321c0 -144.667 -27.333 -259.5 -82 -344.5s-128.334 -127.5 -221.001 -127.5
c-64.667 0 -110.667 20.667 -138 62s-41 110.666 -41 207.999v74c0 91.333 -24.333 137 -73 137c-41.333 0 -92.666 -21.333 -153.999 -64c86 -115.333 129 -226.333 129 -333c0 -88 -28.833 -159.167 -86.5 -213.5s-133.5 -81.5 -227.5 -81.5
c-152.667 0 -285.5 69 -398.5 207s-178.5 311 -196.5 519zM1202 811.001c35.333 -18 53 -61.333 53 -130l-1 -117v-63c0 -120 37.667 -180 113 -180c63.333 0 116 29.5 158 88.5s63 133.167 63 222.5c0 86.667 -19.167 157.167 -57.5 211.5s-87.833 81.5 -148.5 81.5
c-83.333 0 -143.333 -38 -180 -114zM668.998 1318l50 37c62 -80.667 136.333 -121 223 -121c81.333 0 151.666 40.333 210.999 121l138 -115c-89.333 -94.667 -179.666 -142 -270.999 -142c-138.667 0 -255.667 73.333 -351 220zM962.998 1517l105 -106l-105 -102l-104 109z
" />
    <glyph glyph-name="wheel" unicode="]" 
d="M885 143c-143.333 6.66699 -267.997 58.334 -373.997 155.001c3.33301 -14 5 -24.667 5 -32c0 -47.333 -24.667 -71 -74 -71s-74 24.667 -74 74s23.667 74 71 74c7.33301 0 17.666 -1.66699 30.999 -5c-96 106 -147.333 230.667 -154 374c-18 -30.667 -41 -46 -69 -46
c-49.333 0 -74 24.667 -74 74s24.667 74 74 74c28.667 0 51.667 -15 69 -45c0 135.333 51.667 259.666 155 372.999c-14 -3.33301 -25 -5 -33 -5c-46.667 0 -70 24.667 -70 74s24.667 74 74 74s74 -23.667 74 -71c0 -7.33301 -1.66699 -17.666 -5 -30.999
c108 96 232.667 147.333 374 154c-30.667 16.667 -46 39.667 -46 69c0 49.333 24.667 74 74 74c48.667 0 73 -24.667 73 -74c0 -29.333 -15 -52.333 -45 -69c141.333 -6.66699 266 -58 374 -154c-3.33301 13.333 -5 23.666 -5 30.999c0 47.333 24.667 71 74 71
s74 -24.667 74 -74s-23.667 -74 -71 -74c-7.33301 0 -18 1.66699 -32 5c103.333 -113.333 155 -237.666 155 -372.999c17.333 30 40.333 45 69 45c49.333 0 74 -24.667 74 -74s-24.667 -74 -74 -74c-28 0 -51 15.333 -69 46c-6.66699 -143.333 -58.334 -268 -155.001 -374
c13.333 3.33301 23.666 5 30.999 5c48 0 72 -24.667 72 -74s-24.667 -74 -74 -74s-74 23.667 -74 71c0 7.33301 1.66699 18 5 32c-106 -96.667 -230.667 -148.334 -374 -155.001c30 -17.333 45 -40.333 45 -69c0 -49.333 -24.333 -74 -73 -74c-49.333 0 -74 24.667 -74 74
c0 28.667 15.333 51.667 46 69zM739.003 817c-26.667 14.667 -41.668 37.333 -45.001 68c-44 6 -68.667 30.667 -74 74c-31.333 4.66699 -54.333 20 -69 46c-40 -60 -67 -125.333 -81 -196c13.333 3.33301 24 5 32 5c14 0 30 -7 48 -21c18.667 14 36.334 21 53.001 21
s34 -7 52 -21c18.667 14 34.667 21 48 21c8 0 19 -1.66699 33 -5zM735.002 671.999c-13.333 -4 -24.332 -6.00098 -32.999 -6.00098c-12.667 0 -28.334 7.33301 -47.001 22c-18 -14.667 -35.333 -22 -52 -22c-17.333 0 -35 7.33301 -53 22
c-18.667 -14.667 -34.667 -22 -48 -22c-8 0 -18.667 2 -32 6c14 -71.333 41 -137 81 -197c15.333 26.667 38 42 68 46c5.33301 44 30 68.667 74 74c4 30.667 19.333 53.334 46 68.001zM836.003 565.998c-15.333 -26.667 -38.332 -42 -68.999 -46
c-4.66699 -44 -29.334 -68.333 -74.001 -73c-3.33301 -31.333 -18.333 -54.333 -45 -69c60 -40 125.333 -67 196 -81c-4 13.333 -6 24 -6 32c0 13.333 7.33301 29.333 22 48c-14 18.667 -21 36 -21 52c0 16.667 7 34.667 21 54c-14 18 -21 33.667 -21 47
c0 8 1.66699 19 5 33zM845.004 916.998c-4 14 -6.00195 25 -6.00195 33c0 13.333 7.33301 29.333 22 48c-14.667 18 -22 35.333 -22 52s7.33301 34.334 22 53.001c-14.667 18 -22 34 -22 48c0 8 1.66699 19 5 33c-70.667 -14.667 -136 -42 -196 -82
c26.667 -14.667 42 -37.667 46 -69c44.667 -4.66699 69.334 -29.334 74.001 -74.001c30.667 -3.33301 53.334 -18.333 68.001 -45zM913.002 640.998c27.333 0 50.5 9.66699 69.5 29s28.5 42.666 28.5 69.999s-9.5 50.666 -28.5 69.999s-42.167 29 -69.5 29
s-50.666 -9.66699 -69.999 -29s-29 -42.666 -29 -69.999s9.66699 -50.666 29 -69.999s42.666 -29 69.999 -29zM1086 816.998l3.99805 -7.99902c14 3.33301 25 5 33 5c13.333 0 29.333 -7 48 -21c18 14 35.333 21 52 21s34.334 -7 53.001 -21c18 14 33.667 21 47 21
c8.66699 0 19.667 -1.66699 33 -5c-14 70.667 -41.333 136 -82 196c-14 -26 -36.667 -41.333 -68 -46c-5.33301 -43.333 -30 -68 -74 -74c-3.33301 -30.667 -18.666 -53.334 -45.999 -68.001zM1090 671.999l-2.99902 -8.99902c26.667 -14.667 42 -37.334 46 -68.001
c44 -5.33301 68.667 -30 74 -74c30 -4 52.667 -19.333 68 -46c40 60 67 125.667 81 197c-13.333 -4 -24.333 -6 -33 -6c-12.667 0 -28.334 7.33301 -47.001 22c-18.667 -14.667 -35.667 -22 -51 -22c-18 0 -36 7.33301 -54 22c-18.667 -14.667 -34.667 -22 -48 -22
c-8 0 -19 2 -33 6zM990.001 566l-8.99902 -2.99902c4 -14 6 -25 6 -33c0 -13.333 -7.33301 -29 -22 -47c14.667 -19.333 22 -37 22 -53c0 -16.667 -7.33301 -34.334 -22 -53.001c14.667 -18.667 22 -34.667 22 -48c0 -8 -2 -18.667 -6 -32c71.333 14 137 41 197 81
c-26.667 14.667 -41.667 37.667 -45 69c-44.667 4.66699 -69.667 29 -75 73c-30.667 4 -53.334 19.333 -68.001 46zM981.002 917.001l7.99902 -3c15.333 26.667 38.333 41.667 69 45c4.66699 44.667 29.334 69.334 74.001 74.001c4 31.333 19.333 54.333 46 69
c-60 40 -125.667 67.333 -197 82c4 -14 6 -25.333 6 -34c0 -13.333 -7.33301 -29 -22 -47c14.667 -18.667 22 -36.334 22 -53.001s-7.33301 -34 -22 -52c14.667 -18 22 -34 22 -48c0 -8 -2 -19 -6 -33z" />
    <glyph glyph-name="aries" unicode="^" horiz-adv-x="2368" 
d="M1111 -395l-0.000976562 99.001c0 189.333 -19 400 -57 632s-84.333 421.333 -139 568c-119.333 318.667 -248 478 -386 478c-61.333 0 -111.333 -26.833 -150 -80.5s-58 -123.5 -58 -209.5c0 -113.333 36.667 -230.666 110 -351.999h-150c-72 130.667 -108 253 -108 367
c0 117.333 34 215.166 102 293.499s153.333 117.5 256 117.5c165.333 0 306 -111.333 422 -334s189 -521.334 219 -896.001h25c25.333 367.333 97.166 664.166 215.499 890.499s260.5 339.5 426.5 339.5c102.667 0 187.834 -38.667 255.501 -116
s101.5 -174.666 101.5 -291.999c0 -114.667 -35.667 -238 -107 -370h-151c73.333 130.667 110 250.667 110 360c0 88 -19 159 -57 213s-88.333 81 -151 81c-133.333 0 -257.666 -148.333 -372.999 -445c-58.667 -151.333 -108 -347.333 -148 -588s-60 -461.667 -60 -663v-93
h-148z" />
    <glyph glyph-name="taurus" unicode="_" horiz-adv-x="2159" 
d="M799 776c-65.333 26 -118.331 59 -158.998 99s-85.667 104.333 -135 193l-59 106c-72.667 130 -154.667 195 -246 195h-27v111h73c130 0 247.667 -91.333 353 -274l81 -141c54 -93.333 110.333 -158.5 169 -195.5s135.667 -55.5 231 -55.5
c94.667 0 171.5 18.5 230.5 55.5s115.5 102.167 169.5 195.5l81 141c105.333 182.667 222.666 274 351.999 274h73v-111h-26c-92 0 -174.333 -65 -247 -195l-59 -106c-49.333 -88.667 -94.333 -153 -135 -193s-93.667 -73 -159 -99
c113.333 -62.667 200.833 -143.167 262.5 -241.5s92.5 -206.166 92.5 -323.499c0 -169.333 -63.167 -316.666 -189.5 -441.999s-274.833 -188 -445.5 -188s-319.334 62.667 -446.001 188s-190 272.666 -190 441.999c0 117.333 30.833 225.166 92.5 323.499
s149.167 178.833 262.5 241.5zM1080 -271c134 0 248.667 46.833 344 140.5s143 206.5 143 338.5c0 134 -47.333 248 -142 342s-209.667 141 -345 141s-250.5 -47 -345.5 -141s-142.5 -208 -142.5 -342c0 -132 47.667 -244.833 143 -338.5s210.333 -140.5 345 -140.5z" />
    <glyph glyph-name="gemini" unicode="`" horiz-adv-x="1974" 
d="M173 -99l0.000976562 123c137.333 36.667 264.666 62 381.999 76v1275c-126.667 12 -254 36.333 -382 73v124c221.333 -61.333 492.666 -92 813.999 -92c322 0 593.667 30.667 815 92v-124c-128 -36.667 -255.667 -61 -383 -73v-1275c117.333 -14 245 -39.333 383 -76
v-123c-252 66 -523.667 99 -815 99s-562.666 -33 -813.999 -99zM703.001 109c84.667 9.33301 179.332 14 283.999 14s199.334 -4.66699 284.001 -14v1256c-76 -5.33301 -170.667 -8 -284 -8s-208 2.66699 -284 8v-1256z" />
    <glyph glyph-name="cancer" unicode="a" horiz-adv-x="2233" 
d="M173 199v160.999c310 -141.333 609.667 -212 899 -212c189.333 0 343.333 24.667 462 74c-75.333 38.667 -131.833 87.167 -169.5 145.5s-56.5 126.833 -56.5 205.5c0 103.333 37.167 192 111.5 266s163.5 111 267.5 111c102.667 0 190.667 -36.667 264 -110
s110 -161.666 110 -264.999c0 -164.667 -100.5 -301.667 -301.5 -411s-453.167 -164 -756.5 -164c-262 -0 -538.667 66.333 -830 199zM1407 571.999c0 -75.333 27.5 -140.168 82.5 -194.501s120.833 -81.5 197.5 -81.5s141.667 26.5 195 79.5s80 117.833 80 194.5
c0 78 -26.833 144.333 -80.5 199s-118.834 82 -195.501 82c-77.333 0 -143.166 -27.167 -197.499 -81.5s-81.5 -120.166 -81.5 -197.499zM2061 1281l-0.00195312 -160.997c-310 142 -609.667 213 -899 213c-189.333 0 -343.666 -25 -462.999 -75
c76 -38 132.833 -86.333 170.5 -145s56.5 -127.334 56.5 -206.001c0 -103.333 -37.167 -192 -111.5 -266s-163.5 -111 -267.5 -111c-103.333 0 -191.5 36.667 -264.5 110s-109.5 161.666 -109.5 264.999c0 165.333 100.5 302.666 301.5 411.999s453.167 164 756.5 164
c262.667 0 539.334 -66.667 830.001 -200zM826.998 908c0 76 -27.667 140.999 -83 194.999s-121.333 81 -198 81s-141.5 -26.5 -194.5 -79.5s-79.5 -117.833 -79.5 -194.5c0 -78 26.833 -144.333 80.5 -199s118.834 -82 195.501 -82c77.333 0 143.166 27.333 197.499 82
s81.5 120.334 81.5 197.001z" />
    <glyph glyph-name="leo" unicode="b" horiz-adv-x="1927" 
d="M1755 -260c-115.333 -106 -225.998 -159 -331.998 -159c-92 0 -169.167 30.5 -231.5 91.5s-93.5 136.167 -93.5 225.5c0 119.333 62.667 312 188 578l96 204c74 158 111 286 111 384c0 125.333 -36.5 226 -109.5 302s-169.5 114 -289.5 114
c-112.667 0 -203.834 -33.833 -273.501 -101.5s-104.5 -156.5 -104.5 -266.5c0 -101.333 32.667 -220 98 -356l39 -81c64.667 -134 97 -232.667 97 -296c0 -102 -38.5 -190.667 -115.5 -266s-167.833 -113 -272.5 -113c-108 0 -199.833 38 -275.5 114
s-113.5 168.333 -113.5 277c0 104.667 37.333 195.167 112 271.5s163.667 114.5 267 114.5c37.333 0 78.666 -7 123.999 -21c-72 138 -108 260 -108 366c0 138 49.833 252.833 149.5 344.5s224.834 137.5 375.501 137.5c165.333 0 298 -48.5 398 -145.5
s150 -225.833 150 -386.5c0 -80 -8.33301 -149 -25 -207s-56 -153.667 -118 -287l-69 -150c-122.667 -265.333 -184 -437 -184 -515c0 -57.333 17.167 -104.5 51.5 -141.5s78.166 -55.5 131.499 -55.5c70 0 150 39.667 240 119zM284.002 390
c0 -78.667 26.1689 -144.833 78.502 -198.5s116.833 -80.5 193.5 -80.5c74.667 0 138.5 27 191.5 81s79.5 119.333 79.5 196c0 78 -26.333 143.833 -79 197.5s-117.334 80.5 -194.001 80.5c-74.667 0 -138.334 -27 -191.001 -81s-79 -119 -79 -195z" />
    <glyph glyph-name="virgo" unicode="c" horiz-adv-x="1911" 
d="M443 928l-0.000976562 -928h-148v1075c0 148.667 -40.667 283.667 -122 405h156c55.333 -76 93.333 -173.667 114 -293c50 123.333 108 221 174 293l145 27c66.667 -85.333 108.667 -198.666 126 -339.999c34 106.667 94.333 211 181 313l143 27
c80 -111.333 120 -234.333 120 -369v-282c40 113.333 82.333 202 127 266l122 45c105.333 -163.333 158 -335 158 -515c0 -142.667 -31.5 -276.667 -94.5 -402s-157.5 -242 -283.5 -350c12 -86.667 63 -185 153 -295h-174c-42 53.333 -79.333 124 -112 212
c-92.667 -52.667 -206 -89.667 -340 -111v127c126.667 26 230.334 63 311.001 111c-10 64 -15 128.333 -15 193v900c0 146.667 -21.333 257.334 -64 332.001c-104.667 -112.667 -182 -271.334 -232 -476.001v-893h-149v987c0 183.333 -21.667 310.666 -65 381.999
c-102 -118.667 -179 -265.667 -231 -441zM1332 39c86.667 88 151.499 182.5 194.499 283.5s64.5 208.167 64.5 321.5c0 118.667 -26 233.667 -78 345c-73.333 -90.667 -133.666 -211.667 -180.999 -363v-587z" />
    <glyph glyph-name="libra" unicode="d" horiz-adv-x="1937" 
d="M173 148v148h1591v-148h-1591zM802 730v-138h-629v148h441c-80 82 -120 174 -120 276c0 126.667 46.833 235.667 140.5 327s205.167 137 334.5 137s240.833 -45.667 334.5 -137s140.5 -200.333 140.5 -327c0 -102 -40 -194 -120 -276h440v-148h-629v138
c107.333 69.333 161 162.333 161 279c0 88 -32.333 163.833 -97 227.5s-141.334 95.5 -230.001 95.5c-89.333 0 -166.166 -31.833 -230.499 -95.5s-96.5 -139.5 -96.5 -227.5c0 -116.667 53.333 -209.667 160 -279z" />
    <glyph glyph-name="scorpio" unicode="e" horiz-adv-x="2099" 
d="M298 0l-0.00195312 1056c0 176 -41.667 317.333 -125 424h159c56 -85.333 94 -182.333 114 -291c46.667 116 104.667 213 174 291l143 29c66.667 -78 109 -190 127 -336c36.667 104.667 96.334 207 179.001 307l146 29c79.333 -108 119 -235.667 119 -383v-921
c0 -96.667 3.33301 -162.167 10 -196.5s21.667 -64.166 45 -89.499c42.667 -44.667 113.334 -67 212.001 -67h91v148l234 -211l-234 -204v144h-136c-129.333 0 -223.333 34 -282 102s-88 176.667 -88 326v892c0 150 -21.667 257.667 -65 323
c-110.667 -127.333 -187.667 -286.666 -231 -477.999v-894h-148v996c0 179.333 -21.667 304.666 -65 375.999c-106 -119.333 -183 -267.666 -231 -444.999v-927h-148z" />
    <glyph glyph-name="saggitarius" unicode="f" horiz-adv-x="1902" 
d="M1627 1415l102 -729l-146 -23l-75 531l-667 -668l314 -314l-105 -104l-314 314l-461 -459l-102 102l461 459l-314 314l104 105l314 -314l668 667l-531 75l23 146z" />
    <glyph glyph-name="capricorn" unicode="g" horiz-adv-x="2245" 
d="M536 438v51.999c0 96 -16.833 231.667 -50.5 407s-64.834 290.333 -93.501 345c-40.667 77.333 -104.334 116 -191.001 116h-28v122h111c103.333 0 175 -40.667 215 -122c47.333 -97.333 90.333 -259.666 129 -486.999c56 250.667 149.333 453.667 280 609l195 38
c48.667 -108.667 88.667 -271.667 120 -489l27 -181c8.66699 -63.333 14.667 -108.333 18 -135c12 -108 27 -189.667 45 -245c95.333 182 227 273 395 273c101.333 0 187.5 -34.833 258.5 -104.5s106.5 -154.167 106.5 -253.5c0 -106.667 -36 -197.167 -108 -271.5
s-159.667 -111.5 -263 -111.5c-140.667 0 -263.667 54.667 -369 164c-75.333 -197.333 -141.666 -323.333 -198.999 -378s-152 -82 -284 -82h-134v123h63c126.667 0 213.834 25.667 261.501 77s108.5 185.666 182.5 402.999c-33.333 58.667 -55.166 107.5 -65.499 146.5
s-23.833 124.833 -40.5 257.5l-37 283c-24.667 186.667 -53.334 315 -86.001 385c-84.667 -99.333 -157.667 -234.166 -219 -404.499s-92 -322.5 -92 -456.5v-80h-147zM1366 288.999c107.333 -118.667 215.667 -177.999 325 -177.999c74 0 135.667 25.667 185 77
s74 115.666 74 192.999c0 68.667 -23.5 127.167 -70.5 175.5s-104.167 72.5 -171.5 72.5c-145.333 0 -259.333 -113.333 -342 -340z" />
    <glyph glyph-name="aquarius" unicode="h" horiz-adv-x="2181" 
d="M173 225l555 367l122 -284l430 284l120 -284l430 284l178 -418l-115 -51l-119 284l-432 -284l-120 284l-428 -284l-121 284l-432 -284zM174 990l555 367l122 -284l430 284l120 -284l430 284l178 -418l-115 -51l-119 284l-433 -284l-120 284l-428 -284l-120 284l-432 -284
z" />
    <glyph glyph-name="pisces" unicode="i" horiz-adv-x="1597" 
d="M646 716c0 -122 -28.1709 -250.833 -84.5039 -386.5s-132.166 -257.834 -227.499 -366.501h-161c217.333 229.333 326 480.333 326 753h-315v111h315c-13.333 236.667 -122 466.667 -326 690h153c186.667 -200 293.334 -430 320.001 -690h306
c26.667 260 133.334 490 320.001 690h153c-204 -223.333 -312.667 -453.333 -326 -690h315v-111h-315c0 -272.667 108.667 -523.667 326 -753h-161c-95.333 108.667 -171.166 230.834 -227.499 366.501s-84.5 264.5 -84.5 386.5h-306z" />
    <glyph glyph-name="ampersanditlc" unicode="j" horiz-adv-x="2150" 
d="M1284 -210l122.001 614c-114.667 -136 -240.667 -241.667 -378 -317s-272 -113 -404 -113s-239.167 38 -321.5 114s-123.5 175 -123.5 297c0 180.667 70.167 346.5 210.5 497.5s294.166 226.5 461.499 226.5c72 0 126 -19.5 162 -58.5s54 -97.5 54 -175.5
c41.333 44 82.833 77 124.5 99s83.834 33 126.501 33c57.333 0 144.333 -22.333 261 -67l94 -35c136 -52 235.333 -78 298 -78c39.333 0 68.666 10.167 87.999 30.5s29 50.833 29 91.5c0 41.333 -20.667 75 -62 101l134 124c26 -46 39 -92.667 39 -140
c0 -84 -37 -161 -111 -231s-155.667 -105 -245 -105c-51.333 0 -110.333 7.66699 -177 23l-168 -844zM387.001 486c151.333 11.333 270.167 50.668 356.5 118.001s129.5 153.666 129.5 258.999c0 53.333 -10.833 93.333 -32.5 120s-54.5 40 -98.5 40
c-88 0 -165.5 -50.5 -232.5 -151.5s-107.833 -229.5 -122.5 -385.5zM1482 788.002l-27.999 14c-82.667 38 -150.334 57 -203.001 57c-28.667 0 -60.667 -8.16699 -96 -24.5s-74.333 -40.833 -117 -73.5c-103.333 -206 -322 -318.333 -656 -337
c-0.666992 -13.333 -1 -23 -1 -29c0 -85.333 34.833 -155.333 104.5 -210s159.167 -82 268.5 -82c168 0 320.833 61 458.5 183s224.5 273.333 260.5 454z" />
    <glyph glyph-name="ampersandit" unicode="k" horiz-adv-x="2603" 
d="M1030 79c-146 -77.333 -300.333 -116.002 -463 -116.002c-125.333 0 -228.5 36.833 -309.5 110.5s-121.5 167.834 -121.5 282.501c0 109.333 37.167 204.5 111.5 285.5s194.5 157.5 360.5 229.5c-32 82 -48 158.333 -48 229c0 108 43.833 204.5 131.5 289.5
s187.167 127.5 298.5 127.5c75.333 0 137 -22.5 185 -67.5s72 -103.167 72 -174.5c0 -182.667 -145 -321 -435 -415c20 -58.667 57.667 -147 113 -265c75.333 131.333 159 221.333 251 270s224.667 73 398 73h317c196.667 0 324.667 11.333 384 34
c59.333 22 89 70.333 89 145c0 66.667 -35 114.334 -105 143.001l144 141c63.333 -52 95 -117.333 95 -196c0 -112.667 -66 -210 -198 -292s-288 -123 -468 -123h-76c-104 -243.333 -290.333 -448 -559 -614c112.667 -126 238 -223.667 376 -293s276 -104 414 -104
c124 0 224 35.667 300 107s114 165 114 281c0 108 -53 184.333 -159 229l161 151c100.667 -47.333 151 -135.666 151 -264.999c0 -168.667 -69.167 -311.334 -207.5 -428.001s-307.5 -175 -507.5 -175c-144 0 -286.5 35 -427.5 105s-268.167 168.333 -381.5 295z
M790 916.998c194.667 82.667 292 202.334 292 359.001c0 57.333 -12.167 100.333 -36.5 129s-60.833 43 -109.5 43c-57.333 0 -105.333 -23.667 -144 -71s-58 -106 -58 -176c0 -70.667 18.667 -165.334 56 -284.001zM977 142.998
c-136 168.667 -253.334 392.001 -352.001 670.001c-186.667 -86.667 -280 -217.334 -280 -392.001c0 -100 32.5 -182.333 97.5 -247s147.5 -97 247.5 -97c82.667 0 178.334 22 287.001 66zM1605 789.999h-117c-249.333 0 -427 -84.667 -533 -254
c62.667 -115.333 129 -219.333 199 -312c220 121.333 370.333 310 451 566z" />
    <glyph glyph-name="circle6" unicode="l" horiz-adv-x="1529" 
d="M173 740c0 163.333 57.833 302.833 173.5 418.5s255.167 173.5 418.5 173.5s303 -57.833 419 -173.5s174 -255.167 174 -418.5s-58 -302.833 -174 -418.5s-255.667 -173.5 -419 -173.5s-302.833 57.833 -418.5 173.5s-173.5 255.167 -173.5 418.5z" />
    <glyph glyph-name="circleshadowdwn" unicode="m" horiz-adv-x="1951" 
d="M1135 1427l214 -87.999c130 -54 234.167 -139.5 312.5 -256.5s117.5 -245.833 117.5 -386.5c0 -192.667 -68 -356.834 -204 -492.501s-300.333 -203.5 -493 -203.5c-90.667 0 -179 17.667 -265 53l-214 89c-130 53.333 -234.167 138.5 -312.5 255.5
s-117.5 245.833 -117.5 386.5c0 192 67.833 356 203.5 492s299.5 204 491.5 204c85.333 0 174.333 -17.667 267 -53zM266 776.001c0 -162.667 59.333 -302.499 178 -419.499s260.334 -175.5 425.001 -175.5c166 0 308 59 426 177s177 260.333 177 427
c0 166 -59 308 -177 426s-260 177 -426 177c-168.667 0 -311.334 -59.333 -428.001 -178s-175 -263.334 -175 -434.001z" />
    <glyph glyph-name="square6" unicode="n" horiz-adv-x="1529" 
d="M173 148v1184h1184v-1184h-1184z" />
    <glyph glyph-name="box3" unicode="o" 
d="M370 197h1086v1086h-1086v-1086zM173 0v1480h1480v-1480h-1480z" />
    <glyph glyph-name="box4" unicode="p" 
d="M469 296h888v888h-888v-888zM173 0v1480h1480v-1480h-1480z" />
    <glyph glyph-name="boxshadowdwn" unicode="q" 
d="M272 296h1085v1086h-1085v-1086zM173 1480h1283l197 -197v-1283h-1283l-197 197v1283z" />
    <glyph glyph-name="boxshadowup" unicode="r" 
d="M1357 99v1085h-1086l1 -1086zM173 0v1283l197 197h1283v-1283l-197 -197h-1283z" />
    <glyph glyph-name="lozenge4" unicode="s" horiz-adv-x="937" 
d="M173 740l296 419l296 -419l-296 -419z" />
    <glyph glyph-name="lozenge6" unicode="t" horiz-adv-x="1529" 
d="M173 740l592 838l592 -838l-592 -837z" />
    <glyph glyph-name="rhombus6" unicode="u" horiz-adv-x="2020" 
d="M173 740l837 838l838 -838l-838 -837z" />
    <glyph glyph-name="xrhombus" unicode="v" 
d="M473 440l-300 300l300 300l301 -300zM613 1180l300 300l301 -300l-301 -301zM1353 1040l300 -300l-300 -300l-300 300zM1213 300l-300 -300l-300 300l300 300z" />
    <glyph glyph-name="rhombus4" unicode="w" horiz-adv-x="1183" 
d="M173 740l419 419l418 -419l-418 -419z" />
    <glyph glyph-name="clear" unicode="x" horiz-adv-x="2171" 
d="M173 0v1480h1826v-1480h-1826zM321 148h1530v1184h-1530v-1184zM1086 845l366 366l105 -105l-367 -366l367 -366l-105 -105l-366 366l-367 -366l-104 105l366 366l-366 366l104 105z" />
    <glyph glyph-name="escape" unicode="y" horiz-adv-x="2171" 
d="M173 0v1480h1826v-1480h-1826zM321 148h1530v1184h-1530v-1184zM1086 1184l641 -641l-104 -105l-537 537l-537 -537l-105 105z" />
    <glyph glyph-name="command" unicode="z" 
d="M1209 592h148c81.333 0 151 -29.167 209 -87.5s87 -127.833 87 -208.5s-29 -150.167 -87 -208.5s-127.667 -87.5 -209 -87.5c-80.667 0 -150.167 29 -208.5 87s-87.5 127.667 -87.5 209v148h-296v-148c0 -80 -29 -149.333 -87 -208s-127.667 -88 -209 -88
c-80 -0 -149.333 28.833 -208 86.5s-88 127.5 -88 209.5c0 81.333 29.167 151 87.5 209s127.833 87 208.5 87h148v296h-148c-80.667 0 -150.167 29 -208.5 87s-87.5 127.667 -87.5 209s29.167 151 87.5 209s127.833 87 208.5 87s150.167 -29 208.5 -87
s87.5 -127.667 87.5 -209v-148h296v148c0 81.333 29.167 151 87.5 209s127.833 87 208.5 87s150.167 -29 208.5 -87s87.5 -127.667 87.5 -209c0 -80.667 -29 -150.167 -87 -208.5s-127.667 -87.5 -209 -87.5h-148v-296zM1209 1036h148c40.667 0 75.5 14.667 104.5 44
s43.5 64 43.5 104s-14.5 74.667 -43.5 104s-63.833 44 -104.5 44s-75.5 -14.5 -104.5 -43.5s-43.5 -63.833 -43.5 -104.5v-148zM617 444h-148c-40.667 0 -75.5 -14.667 -104.5 -44s-43.5 -64 -43.5 -104s14.5 -74.667 43.5 -104s63.833 -44 104.5 -44s75.5 14.667 104.5 44
s43.5 64 43.5 104v148zM617 1036v148c0 40 -14.667 74.667 -44 104s-64 44 -104 44c-39.333 0 -73.833 -14.333 -103.5 -43s-44.5 -63.667 -44.5 -105c0 -40.667 14.5 -75.5 43.5 -104.5s63.833 -43.5 104.5 -43.5h148zM1209 444v-148c0 -40.667 14.667 -75.5 44 -104.5
s64 -43.5 104 -43.5s74.667 14.5 104 43.5s44 63.833 44 104.5s-14.5 75.5 -43.5 104.5s-63.833 43.5 -104.5 43.5h-148zM1061 592v296h-296v-296h296z" />
    <glyph glyph-name="rosette" unicode="{" horiz-adv-x="1826" 
d="M909 144c-18.667 -36.667 -42.335 -64.332 -71.002 -82.999s-62 -28 -100 -28c-65.333 0 -120.666 35.333 -165.999 106l-16 25c-22 34 -52.667 55.333 -92 64l-29 6c-46 10 -83.667 32.667 -113 68s-44 75.666 -44 120.999c0 42.667 22.667 88.667 68 138
c-57.333 12 -100.5 33.833 -129.5 65.5s-43.5 73.5 -43.5 125.5c0 38 14.667 75.333 44 112l24 29c31.333 38.667 47 68.334 47 89.001c0 7.33301 -0.666992 17.666 -2 30.999l-2 37c-0.666992 8.66699 -1 17 -1 25c0 46 19 88 57 126c37.333 38 78.666 57 123.999 57
c30.667 0 66.334 -10.333 107.001 -31c-5.33301 21.333 -8 37 -8 47c0 46 18.667 87 56 123s80 54 128 54c22.667 0 47.334 -5 74.001 -15l34 -12c31.333 -12.667 52.333 -19 63 -19c15.333 0 35.666 5.33301 60.999 16l28 13c26 11.333 51.667 17 77 17
c48.667 0 92.167 -18 130.5 -54s57.5 -77 57.5 -123c0 -13.333 -1.66699 -32 -5 -56c14.667 10 30.334 17.333 47.001 22s34.334 7 53.001 7c52.667 0 96.667 -20 132 -60s51.333 -87.667 48 -143l-2 -42c-1.33301 -19.333 -2 -31 -2 -35c0 -22 13 -48 39 -78l18 -20
c35.333 -40 53 -81 53 -123c0 -49.333 -13.833 -90.333 -41.5 -123s-69.5 -56.667 -125.5 -72c38 -46 57 -91 57 -135c0 -95.333 -49.333 -156 -148 -182l-30 -8c-49.333 -12.667 -83.333 -36 -102 -70l-17 -30c-35.333 -62.667 -90 -94 -164 -94
c-33.333 0 -64.333 9.33301 -93 28s-55.334 46.667 -80.001 84zM934.999 431.002c-3.33301 -28.667 -4.99902 -53.998 -4.99902 -75.998c0 -90.667 12.667 -158.834 38 -204.501s63 -68.5 113 -68.5s92 26.333 126 79l20 30c28 43.333 69 71.333 123 84l32 7
c74.667 17.333 112 62.666 112 135.999c0 40 -27 86 -81 138c-86 10.667 -157.333 31.667 -214 63l15 46c96.667 -42 177.334 -63 242.001 -63c49.333 0 86.166 11.667 110.499 35s36.5 58.333 36.5 105c0 30 -13 60.333 -39 91l-24 28c-32 38 -48 77.667 -48 119
c0 7.33301 0.333008 15 1 23l2 34c0.666992 7.33301 1 15.333 1 24c0 38.667 -12.333 71.334 -37 98.001c-25.333 26.667 -56 40 -92 40c-19.333 0 -39.5 -3.83301 -60.5 -11.5s-42.833 -19.167 -65.5 -34.5c-37.333 -71.333 -78 -130.666 -122 -177.999l-40 30
c94 108.667 141 198 141 268c0 34.667 -13.333 64.667 -40 90s-58.667 38 -96 38c-15.333 0 -34.666 -4.66699 -57.999 -14l-33 -13c-30.667 -12.667 -55.667 -19 -75 -19c-16 0 -42 7.33301 -78 22l-31 12c-24.667 9.33301 -46 14 -64 14
c-38.667 0 -70.334 -13.333 -95.001 -40s-37 -60.667 -37 -102c0 -18.667 2.33301 -43.334 7 -74.001c48 -47.333 93 -106.333 135 -177l-40 -28c-92 151.333 -174 227 -246 227c-40.667 0 -74 -15 -100 -45c-26.667 -30.667 -39 -68 -37 -112l2 -36
c0.666992 -8.66699 1 -17.667 1 -27c0 -38 -18 -78.333 -54 -121l-23 -28c-24.667 -29.333 -37 -60 -37 -92c0 -36 14.667 -66.833 44 -92.5s73 -45.834 131 -60.501c56.667 32 127.667 58.333 213 79l15 -47c-117.333 -34 -196 -65 -236 -93s-60 -66 -60 -114
c0 -74 37.333 -119.333 112 -136l33 -8c55.333 -12.667 97.333 -41.667 126 -87l19 -30c31.333 -50 72.666 -75 123.999 -75c28 0 54.5 9.83301 79.5 29.5s48.5 49.167 70.5 88.5c-10 46.667 -15 98 -15 154c0 23.333 2.33301 48.333 7 75h51zM914 580.004l-22 -53l-45 10
l2 56l-67 -77l-38 29l50 89l-54 -19l-23 43l43 36l-55 2l-5 46l54 15l-95 40l16 46l99 -23l-33 48l33 34l45 -31l-14 53l45 21l28 -47l9 101h50l8 -101l34 47l45 -21l-15 -54l45 31l32 -34l-35 -44l101 24l13 -46l-92 -41l54 -16l-6 -49l-54 -2l43 -34l-23 -43l-53 20
l56 -86l-41 -30l-67 75l-1 -58l-46 -9zM914 594.004c41.333 0 76.333 14.333 105 43s43 63.667 43 105s-14.333 76.333 -43 105s-63.667 43 -105 43s-76.333 -14.333 -105 -43s-43 -63.667 -43 -105s14.167 -76.333 42.5 -105s63.5 -43 105.5 -43zM912 680.004
c-40 0 -60 20.667 -60 62c0 40.667 20 61 60 61s60 -20.333 60 -61c0 -41.333 -20 -62 -60 -62z" />
    <glyph glyph-name="rosettesolid" unicode="|" horiz-adv-x="1826" 
d="M914 580l21 -52l46 9l1 58l67 -75l41 30l-56 86l53 -20l23 43l-43 34l54 2l6 49l-54 16l92 41l-13 46l-101 -24l35 44l-32 34l-45 -31l15 54l-45 21l-34 -47l-8 101h-50l-9 -101l-28 47l-45 -21l14 -53l-45 31l-33 -34l33 -48l-99 23l-16 -46l95 -40l-54 -15l5 -46l55 -2
l-43 -36l23 -43l54 19l-50 -89l38 -29l67 77l-2 -56l45 -10zM914 594c-42 0 -77.167 14.333 -105.5 43s-42.5 63.667 -42.5 105s14.333 76.333 43 105s63.667 43 105 43s76.333 -14.333 105 -43s43 -63.667 43 -105s-14.333 -76.333 -43 -105s-63.667 -43 -105 -43zM912 680
c20 0 35 5.16699 45 15.5s15 25.833 15 46.5s-5 36 -15 46s-25 15 -45 15s-35 -5 -45 -15s-15 -25.333 -15 -46s5 -36.167 15 -46.5s25 -15.5 45 -15.5zM914 312c-23.333 -172.667 -88.6641 -258.997 -195.997 -258.997c-62 0 -108.333 28 -139 84l-15 28
c-20.667 38 -54.334 63 -101.001 75l-32 8c-94 22.667 -141 75 -141 157c0 89.333 67 162 201 218c-50.667 -8 -91.334 -12 -122.001 -12c-56 0 -102.667 15.667 -140 47s-56 70.333 -56 117c0 37.333 15.667 73.333 47 108l24 27c28 30.667 42 59.667 42 87
c0 6 -1 20.333 -3 43l-3 26v19c0 110 54 165 162 165c67.333 0 139.333 -43.333 216 -130c-42.667 72 -64 136.667 -64 194c0 44.667 14.5 82.167 43.5 112.5s64.833 45.5 107.5 45.5c24 0 46.667 -4.66699 68 -14l25 -12c34.667 -15.333 60.667 -23 78 -23
c14 0 34.667 5.33301 62 16l29 12c32.667 13.333 59.667 20 81 20c44 0 81.667 -17 113 -51s47 -74.667 47 -122c0 -53.333 -23 -113.333 -69 -180c77.333 88 149.666 132 216.999 132c44.667 0 81.334 -15.333 110.001 -46s43 -70.334 43 -119.001
c0 -10 -0.666992 -19 -2 -27l-4 -24c-1.33301 -10 -2 -20.333 -2 -31c0 -34.667 14.667 -68.334 44 -101.001l19 -22c33.333 -37.333 50 -74.333 50 -111c0 -48.667 -17.5 -89.334 -52.5 -122.001s-78.5 -49 -130.5 -49c-33.333 0 -77.333 5.33301 -132 16
c132 -56 198 -127.667 198 -215c0 -78 -41.333 -127 -124 -147l-29 -8c-56 -13.333 -95.333 -39.333 -118 -78l-13 -23c-36 -60 -84.333 -90 -145 -90c-116.667 0 -181.334 86.333 -194.001 259z" />
    <glyph glyph-name="quotedbllftbld" unicode="}" horiz-adv-x="1086" 
d="M1012 1579v-123.001c-102 0 -158.667 -66 -170 -198h170v-394h-395v283c0 144 31 249.833 93 317.5s162.667 105.834 302 114.501zM469 1579v-123.001c-101.333 0 -158 -66 -170 -198h170v-394h-395v283c0 144 31 249.833 93 317.5s162.667 105.834 302 114.501z" />
    <glyph glyph-name="quotedblrtbld" unicode="~" horiz-adv-x="1086" 
d="M74 864v123c102 0 158.667 65.667 170 197h-170v395h395v-284c0 -143.333 -31 -249 -93 -317s-162.667 -106 -302 -114zM617 864v123c102 0 158.333 65.667 169 197h-169v395h395v-284c0 -143.333 -31.167 -249 -93.5 -317s-162.833 -106 -301.5 -114z" />
    <glyph glyph-name="zerosans" unicode="&#xc4;" horiz-adv-x="1826" 
d="M173 740c0 204.667 72.167 379.167 216.5 523.5s318.833 216.5 523.5 216.5s379.167 -72.167 523.5 -216.5s216.5 -318.833 216.5 -523.5s-72.167 -379.167 -216.5 -523.5s-318.833 -216.5 -523.5 -216.5s-379.167 72.167 -523.5 216.5s-216.5 318.833 -216.5 523.5z
M272 740c0 -177.333 62.5 -328.5 187.5 -453.5s276.167 -187.5 453.5 -187.5s328.666 62.5 453.999 187.5s188 276.167 188 453.5s-62.667 328.666 -188 453.999s-276.666 188 -453.999 188s-328.5 -62.667 -453.5 -188s-187.5 -276.666 -187.5 -453.999zM913 251
c-98 0 -176.833 44.833 -236.5 134.5s-89.5 208.167 -89.5 355.5c0 146.667 29.833 265 89.5 355s138.5 135 236.5 135s177 -45 237 -135s90 -208.333 90 -355c0 -147.333 -30 -265.833 -90 -355.5s-139 -134.5 -237 -134.5zM913 344c65.333 0 114.166 33.167 146.499 99.5
s48.5 165.5 48.5 297.5s-16.167 231 -48.5 297s-81.166 99 -146.499 99c-64.667 0 -113.167 -33 -145.5 -99s-48.5 -165 -48.5 -297s16.167 -231.167 48.5 -297.5s80.833 -99.5 145.5 -99.5z" />
    <glyph glyph-name="onesans" unicode="&#xc5;" horiz-adv-x="1826" 
d="M173 740c0 204.667 72.167 379.167 216.5 523.5s318.833 216.5 523.5 216.5s379.167 -72.167 523.5 -216.5s216.5 -318.833 216.5 -523.5s-72.167 -379.167 -216.5 -523.5s-318.833 -216.5 -523.5 -216.5s-379.167 72.167 -523.5 216.5s-216.5 318.833 -216.5 523.5z
M272 740c0 -177.333 62.5 -328.5 187.5 -453.5s276.167 -187.5 453.5 -187.5s328.666 62.5 453.999 187.5s188 276.167 188 453.5s-62.667 328.666 -188 453.999s-276.666 188 -453.999 188s-328.5 -62.667 -453.5 -188s-187.5 -276.666 -187.5 -453.999zM864 271v840h-148
v78l272 23v-941h-124z" />
    <glyph glyph-name="twosans" unicode="&#xc7;" horiz-adv-x="1826" 
d="M173 740c0 204.667 72.167 379.167 216.5 523.5s318.833 216.5 523.5 216.5s379.167 -72.167 523.5 -216.5s216.5 -318.833 216.5 -523.5s-72.167 -379.167 -216.5 -523.5s-318.833 -216.5 -523.5 -216.5s-379.167 72.167 -523.5 216.5s-216.5 318.833 -216.5 523.5z
M272 740c0 -177.333 62.5 -328.5 187.5 -453.5s276.167 -187.5 453.5 -187.5s328.666 62.5 453.999 187.5s188 276.167 188 453.5s-62.667 328.666 -188 453.999s-276.666 188 -453.999 188s-328.5 -62.667 -453.5 -188s-187.5 -276.666 -187.5 -453.999zM642 284
l0.000976562 109c35.333 84 108.333 175.667 219 275l71 65c91.333 82 137 164 137 246c0 56 -14.667 97.833 -44 125.5s-73.333 41.5 -132 41.5c-63.333 0 -139.333 -25 -228 -75v110c82.667 39.333 165 59 247 59c87.333 0 157.333 -23.667 210 -71
s79 -109.666 79 -186.999c0 -56 -13.333 -105.5 -40 -148.5s-76.334 -95.5 -149.001 -157.5l-48 -41c-98.667 -84.667 -156 -165.334 -172 -242.001h405v-109h-555z" />
    <glyph glyph-name="threesans" unicode="&#xc9;" horiz-adv-x="1826" 
d="M173 740c0 204.667 72.167 379.167 216.5 523.5s318.833 216.5 523.5 216.5s379.167 -72.167 523.5 -216.5s216.5 -318.833 216.5 -523.5s-72.167 -379.167 -216.5 -523.5s-318.833 -216.5 -523.5 -216.5s-379.167 72.167 -523.5 216.5s-216.5 318.833 -216.5 523.5z
M272 740c0 -177.333 62.5 -328.5 187.5 -453.5s276.167 -187.5 453.5 -187.5s328.666 62.5 453.999 187.5s188 276.167 188 453.5s-62.667 328.666 -188 453.999s-276.666 188 -453.999 188s-328.5 -62.667 -453.5 -188s-187.5 -276.666 -187.5 -453.999zM674 281
l0.00292969 115.998c89.333 -35.333 159.333 -53 210 -53c59.333 0 107.666 17.333 144.999 52s56 79.667 56 135c0 66 -22.833 115.333 -68.5 148s-114.5 49 -206.5 49h-49v83l43 1c86.667 0 151.5 15.167 194.5 45.5s64.5 75.833 64.5 136.5
c0 48 -14.333 83.833 -43 107.5s-71.667 35.5 -129 35.5c-61.333 0 -129.333 -17.333 -204 -52v108c73.333 25.333 144.666 38 213.999 38c95.333 0 166.833 -18 214.5 -54s71.5 -90.333 71.5 -163c0 -54.667 -16.167 -101.5 -48.5 -140.5s-80.833 -70.167 -145.5 -93.5
c75.333 -17.333 131.666 -46.666 168.999 -87.999s56 -94.333 56 -159c0 -87.333 -29 -156.166 -87 -206.499s-137.333 -75.5 -238 -75.5c-58 0 -131 10 -219 30z" />
    <glyph glyph-name="foursans" unicode="&#xd1;" horiz-adv-x="1826" 
d="M173 740c0 204.667 72.167 379.167 216.5 523.5s318.833 216.5 523.5 216.5s379.167 -72.167 523.5 -216.5s216.5 -318.833 216.5 -523.5s-72.167 -379.167 -216.5 -523.5s-318.833 -216.5 -523.5 -216.5s-379.167 72.167 -523.5 216.5s-216.5 318.833 -216.5 523.5z
M272 740c0 -177.333 62.5 -328.5 187.5 -453.5s276.167 -187.5 453.5 -187.5s328.666 62.5 453.999 187.5s188 276.167 188 453.5s-62.667 328.666 -188 453.999s-276.666 188 -453.999 188s-328.5 -62.667 -453.5 -188s-187.5 -276.666 -187.5 -453.999zM938 284v264h-420
v93l420 575h116v-567h125v-101h-125v-264h-116zM640 649h306v415z" />
    <glyph glyph-name="fivesans" unicode="&#xd6;" horiz-adv-x="1826" 
d="M173 740c0 204.667 72.167 379.167 216.5 523.5s318.833 216.5 523.5 216.5s379.167 -72.167 523.5 -216.5s216.5 -318.833 216.5 -523.5s-72.167 -379.167 -216.5 -523.5s-318.833 -216.5 -523.5 -216.5s-379.167 72.167 -523.5 216.5s-216.5 318.833 -216.5 523.5z
M272 740c0 -177.333 62.5 -328.5 187.5 -453.5s276.167 -187.5 453.5 -187.5s328.666 62.5 453.999 187.5s188 276.167 188 453.5s-62.667 328.666 -188 453.999s-276.666 188 -453.999 188s-328.5 -62.667 -453.5 -188s-187.5 -276.666 -187.5 -453.999zM683 268
l0.000976562 110c61.333 -24.667 120 -37 176 -37c66 0 115.5 17 148.5 51s49.5 84.667 49.5 152c0 70.667 -24 123.5 -72 158.5s-120 52.5 -216 52.5c-22 0 -45.333 -1.66699 -70 -5v454h472v-109h-363v-245c119.333 0 212.666 -27.5 279.999 -82.5s101 -131.5 101 -229.5
c0 -90.667 -30.5 -161.667 -91.5 -213s-145.167 -77 -252.5 -77c-49.333 0 -103.333 6.66699 -162 20z" />
    <glyph glyph-name="sixsans" unicode="&#xdc;" horiz-adv-x="1826" 
d="M173 740c0 204.667 72.167 379.167 216.5 523.5s318.833 216.5 523.5 216.5s379.167 -72.167 523.5 -216.5s216.5 -318.833 216.5 -523.5s-72.167 -379.167 -216.5 -523.5s-318.833 -216.5 -523.5 -216.5s-379.167 72.167 -523.5 216.5s-216.5 318.833 -216.5 523.5z
M272 740c0 -177.333 62.5 -328.5 187.5 -453.5s276.167 -187.5 453.5 -187.5s328.666 62.5 453.999 187.5s188 276.167 188 453.5s-62.667 328.666 -188 453.999s-276.666 188 -453.999 188s-328.5 -62.667 -453.5 -188s-187.5 -276.666 -187.5 -453.999zM719 754
c29.333 38.667 62.667 67.668 100 87.001s78.666 29 123.999 29c81.333 0 147.833 -27 199.5 -81s77.5 -123.333 77.5 -208c0 -96.667 -29 -176.334 -87 -239.001s-132 -94 -222 -94c-102.667 0 -183 41.5 -241 124.5s-87 197.833 -87 344.5
c0 161.333 33.333 286.833 100 376.5s160 134.5 280 134.5c56.667 0 126.334 -11.667 209.001 -35v-109c-88 33.333 -160.333 50 -217 50c-78.667 0 -137.667 -31.667 -177 -95s-59 -158.333 -59 -285zM1096 557.001c0 74.667 -14.833 130.5 -44.5 167.5
s-74.5 55.5 -134.5 55.5c-53.333 0 -98.833 -17.5 -136.5 -52.5s-56.5 -77.5 -56.5 -127.5c0 -78 18 -140.667 54 -188s83.333 -71 142 -71s102.667 18 132 54s44 90 44 162z" />
    <glyph glyph-name="sevensans" unicode="&#xe1;" horiz-adv-x="1826" 
d="M173 740c0 204.667 72.167 379.167 216.5 523.5s318.833 216.5 523.5 216.5s379.167 -72.167 523.5 -216.5s216.5 -318.833 216.5 -523.5s-72.167 -379.167 -216.5 -523.5s-318.833 -216.5 -523.5 -216.5s-379.167 72.167 -523.5 216.5s-216.5 318.833 -216.5 523.5z
M272 740c0 -177.333 62.5 -328.5 187.5 -453.5s276.167 -187.5 453.5 -187.5s328.666 62.5 453.999 187.5s188 276.167 188 453.5s-62.667 328.666 -188 453.999s-276.666 188 -453.999 188s-328.5 -62.667 -453.5 -188s-187.5 -276.666 -187.5 -453.999zM687 234
c20 120 77 255.667 171 407l254 409h-480v117h599v-117c-239.333 -351.333 -373.333 -623.333 -402 -816h-142z" />
    <glyph glyph-name="eightsans" unicode="&#xe0;" horiz-adv-x="1826" 
d="M173 740c0 204.667 72.167 379.167 216.5 523.5s318.833 216.5 523.5 216.5s379.167 -72.167 523.5 -216.5s216.5 -318.833 216.5 -523.5s-72.167 -379.167 -216.5 -523.5s-318.833 -216.5 -523.5 -216.5s-379.167 72.167 -523.5 216.5s-216.5 318.833 -216.5 523.5z
M272 740c0 -177.333 62.5 -328.5 187.5 -453.5s276.167 -187.5 453.5 -187.5s328.666 62.5 453.999 187.5s188 276.167 188 453.5s-62.667 328.666 -188 453.999s-276.666 188 -453.999 188s-328.5 -62.667 -453.5 -188s-187.5 -276.666 -187.5 -453.999zM777 779
c-90.667 63.333 -136 133.667 -136 211c0 70.667 25.833 127.834 77.5 171.501s119.167 65.5 202.5 65.5c76.667 0 138.834 -18.5 186.501 -55.5s71.5 -85.5 71.5 -145.5c0 -90 -58 -172.333 -174 -247c141.333 -68.667 212 -157.334 212 -266.001
c0 -78 -29.5 -141.667 -88.5 -191s-134.833 -74 -227.5 -74s-167.334 23.167 -224.001 69.5s-85 107.5 -85 183.5c0 111.333 61.667 204 185 278zM936 818.001c86.667 57.333 130 121 130 191c0 37.333 -14.5 67.5 -43.5 90.5s-66.833 34.5 -113.5 34.5
c-46 0 -83.5 -11.167 -112.5 -33.5s-43.5 -51.5 -43.5 -87.5c0 -60.667 61 -125.667 183 -195zM845 729.001c-85.333 -66 -128 -135.333 -128 -208c0 -54 17.167 -97.5 51.5 -130.5s79.5 -49.5 135.5 -49.5c54 0 98.167 14.167 132.5 42.5s51.5 64.833 51.5 109.5
c0 61.333 -51.333 122.333 -154 183z" />
    <glyph glyph-name="ninesans" unicode="&#xe2;" horiz-adv-x="1826" 
d="M173 740c0 204.667 72.167 379.167 216.5 523.5s318.833 216.5 523.5 216.5s379.167 -72.167 523.5 -216.5s216.5 -318.833 216.5 -523.5s-72.167 -379.167 -216.5 -523.5s-318.833 -216.5 -523.5 -216.5s-379.167 72.167 -523.5 216.5s-216.5 318.833 -216.5 523.5z
M272 740c0 -177.333 62.5 -328.5 187.5 -453.5s276.167 -187.5 453.5 -187.5s328.666 62.5 453.999 187.5s188 276.167 188 453.5s-62.667 328.666 -188 453.999s-276.666 188 -453.999 188s-328.5 -62.667 -453.5 -188s-187.5 -276.666 -187.5 -453.999zM656 277v105
c80 -27.333 147.333 -41 202 -41c82 0 143.5 31.167 184.5 93.5s61.5 155.5 61.5 279.5c-31.333 -38.667 -64.833 -67.667 -100.5 -87s-73.834 -29 -114.501 -29c-78.667 0 -145.167 28.833 -199.5 86.5s-81.5 128.167 -81.5 211.5c0 95.333 29 174.333 87 237
s131 94 219 94c102 0 182.167 -40.5 240.5 -121.5s87.5 -192.167 87.5 -333.5c0 -160.667 -35.667 -288.167 -107 -382.5s-167.666 -141.5 -288.999 -141.5c-48.667 0 -112 9.66699 -190 29zM732 916c0 -76 15.001 -133.167 45.001 -171.5s75 -57.5 135 -57.5
c52.667 0 97.5 17.833 134.5 53.5s55.5 78.834 55.5 129.501c0 79.333 -17.833 143.166 -53.5 191.499s-82.834 72.5 -141.501 72.5c-58 0 -101.667 -18.167 -131 -54.5s-44 -90.833 -44 -163.5z" />
    <glyph glyph-name="tensans" unicode="&#xe4;" horiz-adv-x="1826" 
d="M173 740c0 204.667 72.167 379.167 216.5 523.5s318.833 216.5 523.5 216.5s379.167 -72.167 523.5 -216.5s216.5 -318.833 216.5 -523.5s-72.167 -379.167 -216.5 -523.5s-318.833 -216.5 -523.5 -216.5s-379.167 72.167 -523.5 216.5s-216.5 318.833 -216.5 523.5z
M272 740c0 -177.333 62.5 -328.5 187.5 -453.5s276.167 -187.5 453.5 -187.5s328.666 62.5 453.999 187.5s188 276.167 188 453.5s-62.667 328.666 -188 453.999s-276.666 188 -453.999 188s-328.5 -62.667 -453.5 -188s-187.5 -276.666 -187.5 -453.999zM605 271v840h-99
v78l223 23v-941h-124zM1111 248c-83.333 0 -150.333 44.833 -201 134.5s-76 208.167 -76 355.5c0 146.667 25.333 264.834 76 354.501s117.667 134.5 201 134.5s150.333 -44.833 201 -134.5s76 -207.834 76 -354.501c0 -147.333 -25.333 -265.833 -76 -355.5
s-117.667 -134.5 -201 -134.5zM1111 341c48.667 0 85 33.167 109 99.5s36 165.833 36 298.5c0 132 -12 230.833 -36 296.5s-60.333 98.5 -109 98.5c-48 0 -84.167 -33 -108.5 -99s-36.5 -165 -36.5 -297s12.167 -231.167 36.5 -297.5s60.5 -99.5 108.5 -99.5z" />
    <glyph glyph-name="zerosansinv" unicode="&#xe3;" horiz-adv-x="1826" 
d="M173 740c0 204.667 72.167 379.167 216.5 523.5s318.833 216.5 523.5 216.5s379.167 -72.167 523.5 -216.5s216.5 -318.833 216.5 -523.5s-72.167 -379.167 -216.5 -523.5s-318.833 -216.5 -523.5 -216.5s-379.167 72.167 -523.5 216.5s-216.5 318.833 -216.5 523.5z
M552 740c0 -146 33.167 -264 99.5 -354s153.5 -135 261.5 -135s195.333 45 262 135s100 208 100 354c0 146.667 -33.333 265 -100 355s-154 135 -262 135s-195.167 -45 -261.5 -135s-99.5 -208.333 -99.5 -355zM750 740c0 248.667 54.333 373 163 373
c109.333 0 164 -120 164 -360c0 -257.333 -54.667 -386 -164 -386c-108.667 0 -163 124.333 -163 373z" />
    <glyph glyph-name="onesansinv" unicode="&#xe5;" horiz-adv-x="1826" 
d="M173 740c0 204.667 72.167 379.167 216.5 523.5s318.833 216.5 523.5 216.5s379.167 -72.167 523.5 -216.5s216.5 -318.833 216.5 -523.5s-72.167 -379.167 -216.5 -523.5s-318.833 -216.5 -523.5 -216.5s-379.167 72.167 -523.5 216.5s-216.5 318.833 -216.5 523.5z
M835 278h187v944l-315 -27l4 -94h124v-823z" />
    <glyph glyph-name="twosansinv" unicode="&#xe7;" horiz-adv-x="1826" 
d="M173 740c0 204.667 72.167 379.167 216.5 523.5s318.833 216.5 523.5 216.5s379.167 -72.167 523.5 -216.5s216.5 -318.833 216.5 -523.5s-72.167 -379.167 -216.5 -523.5s-318.833 -216.5 -523.5 -216.5s-379.167 72.167 -523.5 216.5s-216.5 318.833 -216.5 523.5z
M621 284h622.999v147h-412c16.667 61.333 68.667 127 156 197l63 50c131.333 104.667 197 205.667 197 303c0 78.667 -29.833 141.5 -89.5 188.5s-139.167 70.5 -238.5 70.5c-44 0 -89 -4.33301 -135 -13s-92.667 -22 -140 -40v-137c90 46 169 69 237 69
c111.333 0 167 -48.667 167 -146c0 -84 -62.667 -181.333 -188 -292l-77 -67c-53.333 -47.333 -107.666 -108.333 -162.999 -183v-147z" />
    <glyph glyph-name="threesansinv" unicode="&#xe9;" horiz-adv-x="1826" 
d="M173 740c0 204.667 72.167 379.167 216.5 523.5s318.833 216.5 523.5 216.5s379.167 -72.167 523.5 -216.5s216.5 -318.833 216.5 -523.5s-72.167 -379.167 -216.5 -523.5s-318.833 -216.5 -523.5 -216.5s-379.167 72.167 -523.5 216.5s-216.5 318.833 -216.5 523.5z
M658 279c40 -10 81.167 -17.667 123.5 -23s85.833 -8 130.5 -8c110.667 0 197.334 24.167 260.001 72.5s94 114.833 94 199.5c0 132 -78.333 216 -235 252c137.333 45.333 206 123 206 233c0 74.667 -25.5 130.5 -76.5 167.5s-127.5 55.5 -229.5 55.5
c-46 0 -90.667 -3.5 -134 -10.5s-85.333 -17.5 -126 -31.5v-128c77.333 35.333 150 53 218 53c104.667 0 157 -42.333 157 -127c0 -62 -22.167 -105.167 -66.5 -129.5s-122.833 -36.5 -235.5 -36.5v-112c122 0 207.167 -13.5 255.5 -40.5s72.5 -74.833 72.5 -143.5
c0 -47.333 -16.833 -85.333 -50.5 -114s-78.167 -43 -133.5 -43c-60.667 0 -137.334 17.667 -230.001 53v-139z" />
    <glyph glyph-name="foursansinv" unicode="&#xe8;" horiz-adv-x="1826" 
d="M173 740c0 204.667 72.167 379.167 216.5 523.5s318.833 216.5 523.5 216.5s379.167 -72.167 523.5 -216.5s216.5 -318.833 216.5 -523.5s-72.167 -379.167 -216.5 -523.5s-318.833 -216.5 -523.5 -216.5s-379.167 72.167 -523.5 216.5s-216.5 318.833 -216.5 523.5z
M933 278h163v248h109v140h-109v544h-171l-428 -544v-140h436v-248zM647 666l289 365v-365h-289z" />
    <glyph glyph-name="fivesansinv" unicode="&#xea;" horiz-adv-x="1826" 
d="M173 740c0 204.667 72.167 379.167 216.5 523.5s318.833 216.5 523.5 216.5s379.167 -72.167 523.5 -216.5s216.5 -318.833 216.5 -523.5s-72.167 -379.167 -216.5 -523.5s-318.833 -216.5 -523.5 -216.5s-379.167 72.167 -523.5 216.5s-216.5 318.833 -216.5 523.5z
M658 275c42 -8.66699 79.999 -15.333 113.999 -20s63.667 -7 89 -7c113.333 0 203 26.333 269 79s99 124.667 99 216c0 96.667 -37.333 173 -112 229s-177 84 -307 84v200h399v148h-535v-468c22 3.33301 44.333 5 67 5c192.667 0 289 -66.667 289 -200
c0 -117.333 -57.667 -176 -173 -176c-53.333 0 -119.666 15 -198.999 45v-135z" />
    <glyph glyph-name="sixsansinv" unicode="&#xeb;" horiz-adv-x="1826" 
d="M173 740c0 204.667 72.167 379.167 216.5 523.5s318.833 216.5 523.5 216.5s379.167 -72.167 523.5 -216.5s216.5 -318.833 216.5 -523.5s-72.167 -379.167 -216.5 -523.5s-318.833 -216.5 -523.5 -216.5s-379.167 72.167 -523.5 216.5s-216.5 318.833 -216.5 523.5z
M741 766c0 109.333 20.668 194.167 62.001 254.5s99 90.5 173 90.5c67.333 0 143.666 -17.667 228.999 -53v136c-46.667 11.333 -89.5 19.666 -128.5 24.999s-74.5 8 -106.5 8c-134 0 -238 -44.667 -312 -134s-111 -214.666 -111 -375.999
c0 -147.333 32.5 -262.333 97.5 -345s155.5 -124 271.5 -124c99.333 0 180.5 31.167 243.5 93.5s94.5 142.5 94.5 240.5c0 84 -27.333 153.333 -82 208s-123.667 82 -207 82c-91.333 0 -166 -35.333 -224 -106zM1067 554.001c0 -126 -50.667 -189 -152 -189
c-49.333 0 -89.333 20 -120 60s-46 92.333 -46 157c0 49.333 15.667 90.833 47 124.5s70 50.5 116 50.5c103.333 0 155 -67.667 155 -203z" />
    <glyph glyph-name="sevensansinv" unicode="&#xed;" horiz-adv-x="1826" 
d="M173 740c0 204.667 72.167 379.167 216.5 523.5s318.833 216.5 523.5 216.5s379.167 -72.167 523.5 -216.5s216.5 -318.833 216.5 -523.5s-72.167 -379.167 -216.5 -523.5s-318.833 -216.5 -523.5 -216.5s-379.167 72.167 -523.5 216.5s-216.5 318.833 -216.5 523.5z
M661 234l206 0.000976562c0 90 34.667 204.167 104 342.5s165 284.833 287 439.5v151h-637v-151h485l-219 -320c-90 -130.667 -148 -222.834 -174 -276.501s-43.333 -115.5 -52 -185.5z" />
    <glyph glyph-name="eightsansinv" unicode="&#xec;" horiz-adv-x="1826" 
d="M173 740c0 204.667 72.167 379.167 216.5 523.5s318.833 216.5 523.5 216.5s379.167 -72.167 523.5 -216.5s216.5 -318.833 216.5 -523.5s-72.167 -379.167 -216.5 -523.5s-318.833 -216.5 -523.5 -216.5s-379.167 72.167 -523.5 216.5s-216.5 318.833 -216.5 523.5z
M758 771c-124 -71.333 -185.999 -161.668 -185.999 -271.001c0 -76 30.833 -137 92.5 -183s143.167 -69 244.5 -69c104 0 188.333 25.333 253 76s97 116.667 97 198c0 104.667 -66.667 192 -200 262c104.667 73.333 157 151 157 233c0 64 -25.833 115 -77.5 153
s-120.834 57 -207.501 57c-92 0 -166.333 -22.333 -223 -67s-85 -103 -85 -175c0 -83.333 45 -154.666 135 -213.999zM962.001 836.998c-118.667 63.333 -178 120.333 -178 171c0 68.667 43.667 103 131 103c93.333 0 140 -40 140 -120c0 -54 -31 -105.333 -93 -154z
M850.001 708.998l87 -49.001c101.333 -58 152 -113.667 152 -167c0 -37.333 -15.333 -68.333 -46 -93s-69 -37 -115 -37c-52 0 -95 15.833 -129 47.5s-51 71.834 -51 120.501c0 62 34 121.333 102 178z" />
    <glyph glyph-name="ninesansinv" unicode="&#xee;" horiz-adv-x="1826" 
d="M173 740c0 204.667 72.167 379.167 216.5 523.5s318.833 216.5 523.5 216.5s379.167 -72.167 523.5 -216.5s216.5 -318.833 216.5 -523.5s-72.167 -379.167 -216.5 -523.5s-318.833 -216.5 -523.5 -216.5s-379.167 72.167 -523.5 216.5s-216.5 318.833 -216.5 523.5z
M1094 706c0 -105.333 -21.334 -188.5 -64.001 -249.5s-101 -91.5 -175 -91.5c-68.667 0 -142.667 16 -222 48v-134c46 -10 87.667 -17.667 125 -23s70.333 -8 99 -8c134.667 0 240.334 45.833 317.001 137.5s115 218.167 115 379.5c0 144 -32.667 257 -98 339
s-155.333 123 -270 123c-98.667 0 -179.5 -31.167 -242.5 -93.5s-94.5 -141.833 -94.5 -238.5c0 -83.333 27.833 -153.333 83.5 -210s124.5 -85 206.5 -85c86.667 0 160 35.333 220 106zM769.999 921c0 126.667 50.666 190 151.999 190c49.333 0 89.333 -20.333 120 -61
s46 -94 46 -160c0 -49.333 -15.667 -91 -47 -125s-69.666 -51 -114.999 -51c-104 0 -156 69 -156 207z" />
    <glyph glyph-name="tensansinv" unicode="&#xef;" horiz-adv-x="1826" 
d="M173 740c0 204.667 72.167 379.167 216.5 523.5s318.833 216.5 523.5 216.5s379.167 -72.167 523.5 -216.5s216.5 -318.833 216.5 -523.5s-72.167 -379.167 -216.5 -523.5s-318.833 -216.5 -523.5 -216.5s-379.167 72.167 -523.5 216.5s-216.5 318.833 -216.5 523.5z
M525 278h186v944l-315 -27l4 -94h125v-823zM1154 253c91.333 0 166.5 45.833 225.5 137.5s88.5 208.167 88.5 349.5s-29.5 258 -88.5 350s-134.167 138 -225.5 138s-166.666 -46 -225.999 -138s-89 -208.667 -89 -350c0 -140.667 29.667 -257 89 -349
s134.666 -138 225.999 -138zM1154 370c-82.667 0 -124 123.333 -124 370s41.333 370 124 370c82 0 123 -123.333 123 -370s-41 -370 -123 -370z" />
    <glyph glyph-name="budleafne" unicode="&#xf1;" horiz-adv-x="2048" 
d="M1974 1086v-62.002c-52 0 -100.333 -59 -145 -177l-19 -49c-24.667 -65.333 -49.334 -111.166 -74.001 -137.499s-65 -50.5 -121 -72.5c94.667 -11.333 167.834 -41.833 219.501 -91.5s77.5 -114.167 77.5 -193.5c0 -85.333 -34 -157.166 -102 -215.499
s-152 -87.5 -252 -87.5c-146 0 -264 63.667 -354 191l54 42c58.667 -74 129.667 -111 213 -111c66 0 122.833 21.5 170.5 64.5s71.5 94.833 71.5 155.5c0 48 -18 88.167 -54 120.5s-80.667 48.5 -134 48.5c-86.667 0 -180 -44 -280 -132l-41 -35
c-86 -75.333 -184.333 -136.166 -295 -182.499s-213 -69.5 -307 -69.5c-150.667 0 -276.334 45.667 -377.001 137s-151 205 -151 341c0 146 55.5 268.5 166.5 367.5s248.5 148.5 412.5 148.5h19v-62c-125.333 -8.66699 -223.5 -48.5 -294.5 -119.5
s-106.5 -164.833 -106.5 -281.5c0 -126 41 -230.667 123 -314s185 -125 309 -125c122 0 233.167 39.333 333.5 118s150.5 166 150.5 262c0 50.667 -16.833 95 -50.5 133s-72.834 57 -117.501 57c-41.333 0 -76.166 -15.667 -104.499 -47s-42.5 -70 -42.5 -116
c0 -14.667 2.33301 -32 7 -52l-60 -19c-13.333 43.333 -20 84.666 -20 123.999c0 80.667 22.333 147 67 199s101.334 78 170.001 78c46 0 87.5 -12 124.5 -36s69.5 -60 97.5 -108c78 206 267.333 309 568 309h148zM1294 508.998c98 54 169.833 102.668 215.5 146.001
s83.167 99.666 112.5 168.999l14 32c31.333 75.333 70 131 116 167c-306 -16 -459 -168 -459 -456z" />
    <glyph glyph-name="budleafnw" unicode="&#xf3;" horiz-adv-x="2048" 
d="M74 1086v-62.002c52 0 100.333 -59 145 -177l19 -49c24.667 -65.333 49.334 -111.166 74.001 -137.499s65 -50.5 121 -72.5c-94.667 -11.333 -167.834 -41.833 -219.501 -91.5s-77.5 -114.167 -77.5 -193.5c0 -85.333 34 -157.166 102 -215.499s152 -87.5 252 -87.5
c146 0 264 63.667 354 191l-54 42c-58.667 -74 -129.667 -111 -213 -111c-66 0 -122.833 21.5 -170.5 64.5s-71.5 94.833 -71.5 155.5c0 48 18 88.167 54 120.5s80.667 48.5 134 48.5c86.667 0 180 -44 280 -132l41 -35c86 -75.333 184.333 -136.166 295 -182.499
s213 -69.5 307 -69.5c150.667 0 276.334 45.667 377.001 137s151 205 151 341c0 146 -55.5 268.5 -166.5 367.5s-248.5 148.5 -412.5 148.5h-19v-62c125.333 -8.66699 223.5 -48.5 294.5 -119.5s106.5 -164.833 106.5 -281.5c0 -126 -41 -230.667 -123 -314
s-185 -125 -309 -125c-122 0 -233.167 39.333 -333.5 118s-150.5 166 -150.5 262c0 50.667 16.833 95 50.5 133s72.834 57 117.501 57c41.333 0 76.166 -15.667 104.499 -47s42.5 -70 42.5 -116c0 -14.667 -2.33301 -32 -7 -52l60 -19c13.333 43.333 20 84.666 20 123.999
c0 80.667 -22.333 147 -67 199s-101.334 78 -170.001 78c-46 0 -87.5 -12 -124.5 -36s-69.5 -60 -97.5 -108c-78 206 -267.333 309 -568 309h-148zM754 508.998c-98 54 -169.833 102.668 -215.5 146.001s-83.167 99.666 -112.5 168.999l-14 32
c-31.333 75.333 -70 131 -116 167c306 -16 459 -168 459 -456z" />
    <glyph glyph-name="budleafsw" unicode="&#xf2;" horiz-adv-x="2048" 
d="M74 0l0.00195312 62.002c51.333 0 99.666 59 144.999 177l19 48c24.667 65.333 49.334 111.333 74.001 138s65 51 121 73c-94.667 10.667 -168 41 -220 91s-78 114.667 -78 194c0 85.333 34.167 157.166 102.5 215.499s152.5 87.5 252.5 87.5c146 0 264 -64 354 -192
l-54 -41c-58.667 74 -130 111 -214 111c-65.333 0 -121.833 -21.667 -169.5 -65s-71.5 -95 -71.5 -155c0 -48 18 -88.167 54 -120.5s80.667 -48.5 134 -48.5c86.667 0 180 43.667 280 131l41 36c192 167.333 392.333 251 601 251c151.333 0 277.333 -45.5 378 -136.5
s151 -204.5 151 -340.5c0 -146.667 -55.5 -269.334 -166.5 -368.001s-248.833 -148 -413.5 -148h-19v62c126 8.66699 224.5 48.5 295.5 119.5s106.5 164.833 106.5 281.5c0 126 -41 230.5 -123 313.5s-185 124.5 -309 124.5c-122 0 -233.167 -39.333 -333.5 -118
s-150.5 -165.667 -150.5 -261c0 -50.667 16.667 -95.167 50 -133.5s72.666 -57.5 117.999 -57.5c41.333 0 76 15.833 104 47.5s42 70.5 42 116.5c0 14 -2 31.333 -6 52l60 18c13.333 -42.667 20 -84 20 -124c0 -80 -22.333 -146 -67 -198s-101.334 -78 -170.001 -78
c-45.333 0 -86.5 12 -123.5 36s-69.833 60 -98.5 108c-78 -206 -267.667 -309 -569 -309h-147zM754.002 577.002c-98.667 -54 -170.668 -102.832 -216.001 -146.499s-82.666 -99.834 -111.999 -168.501l-14 -32c-31.333 -76 -70 -131.667 -116 -167
c306 15.333 459 168.333 459 459z" />
    <glyph glyph-name="budleafse" unicode="&#xf4;" horiz-adv-x="2048" 
d="M1974 0l-0.00195312 62.002c-51.333 0 -99.666 59 -144.999 177l-19 48c-24.667 65.333 -49.334 111.333 -74.001 138s-65 51 -121 73c94.667 10.667 168 41 220 91s78 114.667 78 194c0 85.333 -34.167 157.166 -102.5 215.499s-152.5 87.5 -252.5 87.5
c-146 0 -264 -64 -354 -192l54 -41c58.667 74 130 111 214 111c65.333 0 121.833 -21.667 169.5 -65s71.5 -95 71.5 -155c0 -48 -18 -88.167 -54 -120.5s-80.667 -48.5 -134 -48.5c-86.667 0 -180 43.667 -280 131l-41 36c-192 167.333 -392.333 251 -601 251
c-151.333 0 -277.333 -45.5 -378 -136.5s-151 -204.5 -151 -340.5c0 -146.667 55.5 -269.334 166.5 -368.001s248.833 -148 413.5 -148h19v62c-126 8.66699 -224.5 48.5 -295.5 119.5s-106.5 164.833 -106.5 281.5c0 126 41 230.5 123 313.5s185 124.5 309 124.5
c122 0 233.167 -39.333 333.5 -118s150.5 -165.667 150.5 -261c0 -50.667 -16.667 -95.167 -50 -133.5s-72.666 -57.5 -117.999 -57.5c-41.333 0 -76 15.833 -104 47.5s-42 70.5 -42 116.5c0 14 2 31.333 6 52l-60 18c-13.333 -42.667 -20 -84 -20 -124
c0 -80 22.333 -146 67 -198s101.334 -78 170.001 -78c45.333 0 86.5 12 123.5 36s69.833 60 98.5 108c78 -206 267.667 -309 569 -309h147zM1294 577.002c98.667 -54 170.668 -102.832 216.001 -146.499s82.666 -99.834 111.999 -168.501l14 -32
c31.333 -76 70 -131.667 116 -167c-306 15.333 -459 168.333 -459 459z" />
    <glyph glyph-name="vineleafboldne" unicode="&#xf6;" horiz-adv-x="2048" 
d="M1536 341l-65.9971 -68.0039c-177.333 -182 -342.333 -273 -495 -273c-95.333 0 -176.333 29.5 -243 88.5s-100 130.833 -100 215.5c0 50.667 17.833 94.834 53.5 132.501s77.834 56.5 126.501 56.5c72.667 0 132.667 -50.667 180 -152c-28.667 10 -53.334 15 -74.001 15
c-42.667 0 -79.5 -11.667 -110.5 -35s-46.5 -51 -46.5 -83c0 -28 7.66699 -49.167 23 -63.5s38 -21.5 68 -21.5c65.333 0 182.333 86.333 351 259l72 74c-164.667 80.667 -310.334 121 -437.001 121c-132.667 0 -242.834 -35.333 -330.501 -106s-131.5 -159.667 -131.5 -267
c0 -63.333 17.667 -116 53 -158c-114 0 -204.667 21.333 -272 64s-101 100.334 -101 173.001c0 114.667 62.833 214 188.5 298s273.834 126 444.501 126c123.333 0 251.666 -24 384.999 -72l-51 49c-147.333 140.667 -263.666 211 -348.999 211
c-30.667 0 -53.834 -6.33301 -69.501 -19s-23.5 -32 -23.5 -58c0 -12.667 5 -29.667 15 -51c-128.667 18 -193 70.333 -193 157c0 44 15.833 77 47.5 99s78.834 33 141.501 33c143.333 0 310 -98.333 500 -295l50 -52c77.333 -80 146.666 -142 207.999 -186
c134 128.667 258.333 193 373 193c77.333 0 141.666 -23.667 192.999 -71s77 -106.666 77 -177.999c0 -59.333 -21.667 -109.666 -65 -150.999s-96.333 -62 -159 -62c-67.333 0 -145 19 -233 57zM1614 418.996c47.333 -18.667 91.002 -28 131.002 -28
c35.333 0 61.666 6.5 78.999 19.5s26 32.5 26 58.5c0 19.333 -5.5 33.833 -16.5 43.5s-27.5 14.5 -49.5 14.5c-34.667 0 -91.334 -36 -170.001 -108z" />
    <glyph glyph-name="vineleafboldnw" unicode="&#xf5;" horiz-adv-x="2048" 
d="M513 341l65.9971 -68.0039c177.333 -182 342.333 -273 495 -273c95.333 0 176.333 29.5 243 88.5s100 130.833 100 215.5c0 50.667 -17.833 94.834 -53.5 132.501s-77.834 56.5 -126.501 56.5c-72.667 0 -132.667 -50.667 -180 -152c28.667 10 53.334 15 74.001 15
c42.667 0 79.5 -11.667 110.5 -35s46.5 -51 46.5 -83c0 -28 -7.66699 -49.167 -23 -63.5s-38 -21.5 -68 -21.5c-65.333 0 -182.333 86.333 -351 259l-72 74c164.667 80.667 310.334 121 437.001 121c132.667 0 242.834 -35.333 330.501 -106s131.5 -159.667 131.5 -267
c0 -63.333 -17.667 -116 -53 -158c114 0 204.667 21.333 272 64s101 100.334 101 173.001c0 114.667 -62.833 214 -188.5 298s-273.834 126 -444.501 126c-123.333 0 -251.666 -24 -384.999 -72l51 49c147.333 140.667 263.666 211 348.999 211
c30.667 0 53.834 -6.33301 69.501 -19s23.5 -32 23.5 -58c0 -12.667 -5 -29.667 -15 -51c128.667 18 193 70.333 193 157c0 44 -15.833 77 -47.5 99s-78.834 33 -141.501 33c-143.333 0 -310 -98.333 -500 -295l-50 -52c-77.333 -80 -146.666 -142 -207.999 -186
c-134 128.667 -258.333 193 -373 193c-77.333 0 -141.666 -23.667 -192.999 -71s-77 -106.666 -77 -177.999c0 -59.333 21.667 -109.666 65 -150.999s96.333 -62 159 -62c67.333 0 145 19 233 57zM434.997 418.996c-47.333 -18.667 -91.002 -28 -131.002 -28
c-35.333 0 -61.666 6.5 -78.999 19.5s-26 32.5 -26 58.5c0 19.333 5.5 33.833 16.5 43.5s27.5 14.5 49.5 14.5c34.667 0 91.334 -36 170.001 -108z" />
    <glyph glyph-name="vineleafboldsw" unicode="&#xfa;" horiz-adv-x="2048" 
d="M513 745l65.9971 67.9971c176.667 182 341.667 273 495 273c94.667 0 175.5 -29.667 242.5 -89s100.5 -131 100.5 -215c0 -51.333 -17.833 -95.666 -53.5 -132.999s-77.834 -56 -126.501 -56c-73.333 0 -133.333 50.667 -180 152c28.667 -10.667 53.334 -16 74.001 -16
c42.667 0 79.5 11.667 110.5 35s46.5 51.333 46.5 84c0 28.667 -7.5 50 -22.5 64s-37.833 21 -68.5 21c-65.333 0 -182.333 -86.333 -351 -259l-72 -74c164.667 -80.667 310.334 -121 437.001 -121c132.667 0 242.834 35.333 330.501 106s131.5 159.334 131.5 266.001
c0 63.333 -17.667 116.333 -53 159c114 0 204.667 -21.5 272 -64.5s101 -100.833 101 -173.5c0 -114 -62.833 -213 -188.5 -297s-274.167 -126 -445.5 -126c-124 0 -252 24 -384 72l51 -50c146.667 -140.667 263 -211 349 -211c31.333 0 54.666 6.5 69.999 19.5
s23 32.5 23 58.5c0 12 -5.33301 28.667 -16 50c129.333 -17.333 194 -69.666 194 -156.999c0 -43.333 -15.667 -76 -47 -98s-78.666 -33 -141.999 -33c-143.333 -0 -310 98.333 -500 295l-50 52c-77.333 80 -147 142 -209 186c-133.333 -128.667 -257.333 -193 -372 -193
c-77.333 0 -141.666 23.5 -192.999 70.5s-77 106.167 -77 177.5c0 60 21.667 110.667 65 152s96.333 62 159 62c67.333 0 145 -19 233 -57zM434.997 666.997c-47.333 18.667 -91 28.001 -131 28.001c-34.667 0 -60.834 -6.5 -78.501 -19.5s-26.5 -32.833 -26.5 -59.5
c0 -18.667 5.5 -32.834 16.5 -42.501s27.5 -14.5 49.5 -14.5c34.667 0 91.334 36 170.001 108z" />
    <glyph glyph-name="vineleafboldse" unicode="&#xf9;" horiz-adv-x="2048" 
d="M1536 745l-65.9971 67.9971c-176.667 182 -341.667 273 -495 273c-94.667 0 -175.5 -29.667 -242.5 -89s-100.5 -131 -100.5 -215c0 -51.333 17.833 -95.666 53.5 -132.999s77.834 -56 126.501 -56c73.333 0 133.333 50.667 180 152
c-28.667 -10.667 -53.334 -16 -74.001 -16c-42.667 0 -79.5 11.667 -110.5 35s-46.5 51.333 -46.5 84c0 28.667 7.5 50 22.5 64s37.833 21 68.5 21c65.333 0 182.333 -86.333 351 -259l72 -74c-164.667 -80.667 -310.334 -121 -437.001 -121
c-132.667 0 -242.834 35.333 -330.501 106s-131.5 159.334 -131.5 266.001c0 63.333 17.667 116.333 53 159c-114 0 -204.667 -21.5 -272 -64.5s-101 -100.833 -101 -173.5c0 -114 62.833 -213 188.5 -297s274.167 -126 445.5 -126c124 0 252 24 384 72l-51 -50
c-146.667 -140.667 -263 -211 -349 -211c-31.333 0 -54.666 6.5 -69.999 19.5s-23 32.5 -23 58.5c0 12 5.33301 28.667 16 50c-129.333 -17.333 -194 -69.666 -194 -156.999c0 -43.333 15.667 -76 47 -98s78.666 -33 141.999 -33c143.333 -0 310 98.333 500 295l50 52
c77.333 80 147 142 209 186c133.333 -128.667 257.333 -193 372 -193c77.333 0 141.666 23.5 192.999 70.5s77 106.167 77 177.5c0 60 -21.667 110.667 -65 152s-96.333 62 -159 62c-67.333 0 -145 -19 -233 -57zM1614 666.997c47.333 18.667 91 28.001 131 28.001
c34.667 0 60.834 -6.5 78.501 -19.5s26.5 -32.833 26.5 -59.5c0 -18.667 -5.5 -32.834 -16.5 -42.501s-27.5 -14.5 -49.5 -14.5c-34.667 0 -91.334 36 -170.001 108z" />
    <glyph glyph-name="circle2" unicode="&#xfb;" horiz-adv-x="641" 
d="M173 740c0 40.667 14.333 75.5 43 104.5s63.667 43.5 105 43.5c40.667 0 75.5 -14.5 104.5 -43.5s43.5 -63.833 43.5 -104.5s-14.5 -75.5 -43.5 -104.5s-63.833 -43.5 -104.5 -43.5c-41.333 0 -76.333 14.333 -105 43s-43 63.667 -43 105z" />
    <glyph glyph-name="circle4" unicode="&#xfc;" horiz-adv-x="937" 
d="M173 740c0 81.333 28.833 151 86.5 209s127.167 87 208.5 87c82 0 152 -28.833 210 -86.5s87 -127.5 87 -209.5s-29 -151.833 -87 -209.5s-127.667 -86.5 -209 -86.5c-82 0 -151.833 28.833 -209.5 86.5s-86.5 127.5 -86.5 209.5z" />
    <glyph glyph-name="square2" unicode="&#x2020;" horiz-adv-x="641" 
d="M173 592v296h296v-296h-296z" />
    <glyph glyph-name="ring2" unicode="&#xb0;" 
d="M173 740c0 204.667 72.167 379.167 216.5 523.5s318.833 216.5 523.5 216.5s379.167 -72.167 523.5 -216.5s216.5 -318.833 216.5 -523.5s-72.167 -379.167 -216.5 -523.5s-318.833 -216.5 -523.5 -216.5s-379.167 72.167 -523.5 216.5s-216.5 318.833 -216.5 523.5z
M321 740c0 -163.333 57.833 -302.833 173.5 -418.5s255.167 -173.5 418.5 -173.5s302.833 57.833 418.5 173.5s173.5 255.167 173.5 418.5s-57.833 302.833 -173.5 418.5s-255.167 173.5 -418.5 173.5s-302.833 -57.833 -418.5 -173.5s-173.5 -255.167 -173.5 -418.5z" />
    <glyph glyph-name="ring4" unicode="&#xa2;" 
d="M173 740c0 204.667 72.167 379.167 216.5 523.5s318.833 216.5 523.5 216.5s379.167 -72.167 523.5 -216.5s216.5 -318.833 216.5 -523.5s-72.167 -379.167 -216.5 -523.5s-318.833 -216.5 -523.5 -216.5s-379.167 72.167 -523.5 216.5s-216.5 318.833 -216.5 523.5z
M469 740c0 -122.667 43.333 -227.334 130 -314.001s191.334 -130 314.001 -130s227.334 43.333 314.001 130s130 191.334 130 314.001s-43.333 227.334 -130 314.001s-191.334 130 -314.001 130s-227.334 -43.333 -314.001 -130s-130 -191.334 -130 -314.001z" />
    <glyph glyph-name="ring6" unicode="&#xa3;" 
d="M173 740c0 204.667 72.167 379.167 216.5 523.5s318.833 216.5 523.5 216.5s379.167 -72.167 523.5 -216.5s216.5 -318.833 216.5 -523.5s-72.167 -379.167 -216.5 -523.5s-318.833 -216.5 -523.5 -216.5s-379.167 72.167 -523.5 216.5s-216.5 318.833 -216.5 523.5z
M617 740c0 -82 28.833 -151.833 86.5 -209.5s127.5 -86.5 209.5 -86.5s151.833 28.833 209.5 86.5s86.5 127.5 86.5 209.5s-28.833 151.833 -86.5 209.5s-127.5 86.5 -209.5 86.5s-151.833 -28.833 -209.5 -86.5s-86.5 -127.5 -86.5 -209.5z" />
    <glyph glyph-name="ringbutton2" unicode="&#xa7;" 
d="M173 740c0 204.667 72.167 379.167 216.5 523.5s318.833 216.5 523.5 216.5s379.167 -72.167 523.5 -216.5s216.5 -318.833 216.5 -523.5s-72.167 -379.167 -216.5 -523.5s-318.833 -216.5 -523.5 -216.5s-379.167 72.167 -523.5 216.5s-216.5 318.833 -216.5 523.5z
M321 740c0 -163.333 57.833 -302.833 173.5 -418.5s255.167 -173.5 418.5 -173.5s302.833 57.833 418.5 173.5s173.5 255.167 173.5 418.5s-57.833 302.833 -173.5 418.5s-255.167 173.5 -418.5 173.5s-302.833 -57.833 -418.5 -173.5s-173.5 -255.167 -173.5 -418.5z
M666 740c0 68 24 126.167 72 174.5s106.333 72.5 175 72.5c68 0 126.167 -24.167 174.5 -72.5s72.5 -106.5 72.5 -174.5s-24.167 -126.167 -72.5 -174.5s-106.5 -72.5 -174.5 -72.5s-126.167 24.167 -174.5 72.5s-72.5 106.5 -72.5 174.5z" />
    <glyph glyph-name="target" unicode="&#x2022;" 
d="M173 740c0 204.667 72.167 379.167 216.5 523.5s318.833 216.5 523.5 216.5s379.167 -72.167 523.5 -216.5s216.5 -318.833 216.5 -523.5s-72.167 -379.167 -216.5 -523.5s-318.833 -216.5 -523.5 -216.5s-379.167 72.167 -523.5 216.5s-216.5 318.833 -216.5 523.5z
M321 740c0 -163.333 57.833 -302.833 173.5 -418.5s255.167 -173.5 418.5 -173.5s302.833 57.833 418.5 173.5s173.5 255.167 173.5 418.5s-57.833 302.833 -173.5 418.5s-255.167 173.5 -418.5 173.5s-302.833 -57.833 -418.5 -173.5s-173.5 -255.167 -173.5 -418.5z
M469 740c0 122.667 43.333 227.334 130 314.001s191.334 130 314.001 130s227.334 -43.333 314.001 -130s130 -191.334 130 -314.001s-43.333 -227.334 -130 -314.001s-191.334 -130 -314.001 -130s-227.334 43.333 -314.001 130s-130 191.334 -130 314.001zM617 740
c0 -82 28.833 -151.833 86.5 -209.5s127.5 -86.5 209.5 -86.5s151.833 28.833 209.5 86.5s86.5 127.5 86.5 209.5s-28.833 151.833 -86.5 209.5s-127.5 86.5 -209.5 86.5s-151.833 -28.833 -209.5 -86.5s-86.5 -127.5 -86.5 -209.5zM765 740c0 40.667 14.5 75.5 43.5 104.5
s63.833 43.5 104.5 43.5s75.5 -14.5 104.5 -43.5s43.5 -63.833 43.5 -104.5s-14.5 -75.5 -43.5 -104.5s-63.833 -43.5 -104.5 -43.5s-75.5 14.5 -104.5 43.5s-43.5 63.833 -43.5 104.5z" />
    <glyph glyph-name="circleshadowup" unicode="&#xb6;" horiz-adv-x="1951" 
d="M602 1339l214.999 87.999c85.333 35.333 174 53 266 53c192 0 356 -68 492 -204s204 -300 204 -492c0 -140.667 -39.167 -269.5 -117.5 -386.5s-182.5 -202.167 -312.5 -255.5l-214 -89c-85.333 -35.333 -173.666 -53 -264.999 -53
c-193.333 0 -357.833 67.833 -493.5 203.5s-203.5 299.834 -203.5 492.501c0 142 37.5 269.167 112.5 381.5s180.5 199.5 316.5 261.5zM867.999 92.999c166.667 0 309 58.666 427 175.999s177 259.333 177 426s-58.833 308.834 -176.5 426.501
s-259.834 176.5 -426.501 176.5c-165.333 0 -307.166 -58.5 -425.499 -175.5s-177.5 -256.833 -177.5 -419.5c0 -170.667 58.333 -315 175 -433s259 -177 427 -177z" />
    <glyph glyph-name="square4" unicode="&#xdf;" horiz-adv-x="937" 
d="M173 444v592h592v-592h-592z" />
    <glyph glyph-name="box2" unicode="&#xae;" 
d="M321 148h1184v1184h-1184v-1184zM173 0v1480h1480v-1480h-1480z" />
    <glyph glyph-name="tristar2" unicode="&#xa9;" 
d="M913 556l-641 -185l481 462l160 647l160 -647l480 -462z" />
    <glyph glyph-name="crosstar2" unicode="&#x2122;" 
d="M173 740l555 185l185 555l185 -555l555 -185l-555 -185l-185 -555l-185 555z" />
    <glyph glyph-name="pentastar2" unicode="&#xb4;" 
d="M209 969h537l166 511l166 -511h537l-434 -316l166 -511l-435 316l-435 -316l166 511z" />
    <glyph glyph-name="hexstar2" unicode="&#xa8;" 
d="M762 1001l151 479l150 -479l491 109l-339 -370l339 -370l-491 108l-150 -478l-151 478l-491 -108l339 370l-339 370z" />
    <glyph glyph-name="octastar2" unicode="&#x2260;" 
d="M1066 1110l370 153l-154 -370l371 -153l-371 -153l154 -370l-370 153l-153 -370l-153 370l-370 -153l153 370l-370 153l370 153l-153 370l369 -153l154 370z" />
    <glyph glyph-name="dodecastar3" unicode="&#xc6;" 
d="M407 876l-135 234h271v272l234 -136l136 234l136 -234l234 136v-272h272l-136 -234l234 -136l-234 -136l136 -234h-272v-271l-234 135l-136 -234l-136 234l-234 -135v271h-271l135 234l-234 136z" />
    <glyph glyph-name="octastar4" unicode="&#xd8;" 
d="M1066 1110l370 153l-154 -370l371 -153l-371 -153l154 -370l-370 153l-153 -370l-153 370l-370 -153l153 370l-370 153l370 153l-153 370l369 -153l154 370zM1039 1046l-126 -306l432 432zM1218 866l-305 -126h611zM1218 614l-305 126l432 -432zM1039 435l-126 305v-612z
M786 434l127 306l-432 -432zM607 613l306 127h-612zM607 867l306 -127l-432 432zM786 1046l127 -306v611z" />
    <glyph glyph-name="registersquare" unicode="&#x221e;" 
d="M938 691v-346h370v370h-346v50h346v370h-370v-346h-50v346h-370l1 -370h345v-50h-346v-370h370v346h50zM938 0h-50v296h-419v419h-296v50h296v419h419v296h50v-296h419v-419h296v-50h-296v-419h-419v-296z" />
    <glyph glyph-name="registercircle" unicode="&#xb1;" 
d="M938 691l0.000976562 -346.001c106 12 191 50 255 114s102.333 149.333 115 256h-346v50h346c-26 218 -149.333 341.333 -370 370v-346h-50v346c-106.667 -12.667 -191.834 -50.667 -255.501 -114s-101.834 -148.666 -114.501 -255.999h346v-50h-344
c9.33301 -104.667 46.333 -189.5 111 -254.5s150.334 -103.5 257.001 -115.5v346h50zM938.001 -0.000976562l-50.0029 0.000976562v296c-121.333 12.667 -218.166 55.167 -290.499 127.5s-114.833 169.5 -127.5 291.5h-297v50h297c10 118 52.167 214.333 126.5 289
s171.5 118 291.5 130v296h50v-296c120 -12 217.5 -55.667 292.5 -131s117.167 -171.333 126.5 -288h296v-50h-296c-9.33301 -116.667 -51.666 -212.834 -126.999 -288.501s-172.666 -119.167 -291.999 -130.5v-296z" />
    <glyph glyph-name="cuspopen" unicode="&#x2264;" 
d="M173 790c178 8 327.334 63.333 448.001 166c150.667 128 231.667 302.667 243 524h99c14 -224 95 -398.667 243 -524c119.333 -102 268.333 -157.333 447 -166v-99c-178.667 -8.66699 -328 -64 -448 -166c-150.667 -128.667 -231.667 -303.667 -243 -525h-98
c-8 178 -63.667 327.333 -167 448c-128.667 151.333 -303.334 232.333 -524.001 243v99zM1382 740c-226.667 86 -382.999 242.333 -468.999 469c-80.667 -226 -237 -382.333 -469 -469c110 -39.333 205.5 -99.666 286.5 -180.999s141.833 -177.333 182.5 -288
c40.667 111.333 101.667 207.666 183 288.999s176.666 141.333 285.999 180z" />
    <glyph glyph-name="cuspopen1" unicode="&#x2265;" 
d="M424 1298c147.333 -134 310.333 -201.001 489 -201.001c176 0 338.667 67 488 201l70 -70c-134.667 -151.333 -202 -313.666 -202 -486.999c0 -178 67.333 -341.333 202 -490l-70 -69c-148 134 -311 201 -489 201c-177.333 0 -340 -67 -488 -201l-70 69
c134 148 201 311 201 489s-67 341 -201 489zM1244 408.999c-48.667 106 -73.001 216.333 -73.001 331s24.333 225.334 73 332.001c-105.333 -49.333 -216 -74 -332 -74c-115.333 0 -225.666 24.667 -330.999 74c48.667 -104 73 -214.333 73 -331
s-24.333 -227.334 -73 -332.001c104 48.667 214.333 73 331 73c117.333 0 228 -24.333 332 -73z" />
    <glyph glyph-name="query" unicode="&#xa5;" 
d="M173 740l740 740l740 -740l-740 -740zM313 740l600 -600l600 600l-600 600zM845 335v111h134v-111h-134zM979 568l-133.999 -0.00195312v6c0 48 22.333 96.667 67 146l32 36c43.333 48 65 90.333 65 127c0 28.667 -8.83301 50 -26.5 64s-44.5 21 -80.5 21
c-44.667 0 -96.334 -13.333 -155.001 -40v102c60.667 18 119.334 27 176.001 27c71.333 0 127.666 -13.667 168.999 -41s62 -64.666 62 -111.999c0 -43.333 -24.667 -88.666 -74 -135.999l-31 -29c-46.667 -44 -70 -90.667 -70 -140v-31z" />
    <glyph glyph-name="circlestar" unicode="&#xb5;" 
d="M1080 969l-167 511c162 0 306 -45.833 432 -137.5s216.667 -216.167 272 -373.5h-537zM1182 652l435 316c24 -85.333 36 -162.333 36 -231c0 -243.333 -101.667 -442 -305 -596zM913 457l435 -316c-137.333 -94 -282.333 -141 -435 -141c-152 0 -297 47 -435 141z
M644 652l-166 -510.999c-203.333 160.667 -305 360 -305 598c0 69.333 12.333 145.666 37 228.999zM747 969.001h-537c54 156.667 144.333 281 271 373s270.667 138 432 138z" />
    <glyph glyph-name="starshadow" unicode="&#x2202;" 
d="M286 920l341 -248l-130 -401l341 248l341 -248l-130 401l340 248h-421l-130 400l-130 -400h-422zM986 1480l166 -511h538l-435 -316l166 -511h-148l-435 316l-435 -316l166 511l-434 316h537l166 511h148z" />
    <glyph glyph-name="oneoclock" unicode="&#x2211;" 
d="M913 0c-204.667 0 -379.167 72.167 -523.5 216.5s-216.5 318.833 -216.5 523.5s72.167 379.167 216.5 523.5s318.833 216.5 523.5 216.5s379.167 -72.167 523.5 -216.5s216.5 -318.833 216.5 -523.5c0 -204 -72.167 -378.333 -216.5 -523s-318.833 -217 -523.5 -217z
M913 49c190.667 0 353.5 67.5 488.5 202.5s202.5 297.833 202.5 488.5s-67.5 353.5 -202.5 488.5s-297.833 202.5 -488.5 202.5s-353.5 -67.5 -488.5 -202.5s-202.5 -297.833 -202.5 -488.5s67.5 -353.5 202.5 -488.5s297.833 -202.5 488.5 -202.5zM913 1382l86 -173h-49
v-330l66 113l-43 25l161 106l-11 -192l-43 24l-130 -225v-102h-74l-49 31l49 87v463h-49zM350 706h-68v68h68v-68zM1475 706v68h68v-68h-68zM879 179h68v-68h-68v68zM409 992l-59 34l34 59l59 -34zM1382 430l34 59l59 -34l-34 -59zM1165 1245l34 58l59 -34l-34 -59zM603 271
l59 -34l-34 -59l-59 34zM602 1211l-34 58l59 34l34 -58zM1165 237l58 34l34 -59l-58 -34zM1384 1051l58 34l34 -59l-58 -34zM410 489l34 -59l-59 -34l-34 59z" />
    <glyph glyph-name="twooclock" unicode="&#x220f;" 
d="M913 0c-204.667 0 -379.167 72.167 -523.5 216.5s-216.5 318.833 -216.5 523.5s72.167 379.167 216.5 523.5s318.833 216.5 523.5 216.5s379.167 -72.167 523.5 -216.5s216.5 -318.833 216.5 -523.5c0 -204 -72.167 -378.333 -216.5 -523s-318.833 -217 -523.5 -217z
M913 49c190.667 0 353.5 67.5 488.5 202.5s202.5 297.833 202.5 488.5s-67.5 353.5 -202.5 488.5s-297.833 202.5 -488.5 202.5s-353.5 -67.5 -488.5 -202.5s-202.5 -297.833 -202.5 -488.5s67.5 -353.5 202.5 -488.5s297.833 -202.5 488.5 -202.5zM913 1382l87 -173h-50
v-405l178 103l-24 43l192 11l-106 -161l-25 43l-215 -124v-90h-74v47l-38 -22l-37 64l75 43v448h-49zM350 706h-68v68h68v-68zM1475 706v68h68v-68h-68zM879 179h68v-68h-68v68zM409 992l-59 34l34 59l59 -34zM1382 430l34 59l59 -34l-34 -59zM1165 1245l34 58l59 -34
l-34 -59zM603 271l59 -34l-34 -59l-59 34zM602 1211l-34 58l59 34l34 -58zM1165 237l58 34l34 -59l-58 -34zM1384 1051l58 34l34 -59l-58 -34zM410 489l34 -59l-59 -34l-34 59z" />
    <glyph glyph-name="threeoclock" unicode="&#x3c0;" 
d="M913 0c-204.667 0 -379.167 72.167 -523.5 216.5s-216.5 318.833 -216.5 523.5s72.167 379.167 216.5 523.5s318.833 216.5 523.5 216.5s379.167 -72.167 523.5 -216.5s216.5 -318.833 216.5 -523.5c0 -204 -72.167 -378.333 -216.5 -523s-318.833 -217 -523.5 -217z
M913 49c190.667 0 353.5 67.5 488.5 202.5s202.5 297.833 202.5 488.5s-67.5 353.5 -202.5 488.5s-297.833 202.5 -488.5 202.5s-353.5 -67.5 -488.5 -202.5s-202.5 -297.833 -202.5 -488.5s67.5 -353.5 202.5 -488.5s297.833 -202.5 488.5 -202.5zM913 1382l87 -173h-50
v-432h233v50l173 -87l-173 -86v49h-233v-74h-74v74h-74v74h74v432h-49zM350 706h-68v68h68v-68zM1475 706v68h68v-68h-68zM879 179h68v-68h-68v68zM409 992l-59 34l34 59l59 -34zM1382 430l34 59l59 -34l-34 -59zM1165 1245l34 58l59 -34l-34 -59zM603 271l59 -34l-34 -59
l-59 34zM602 1211l-34 58l59 34l34 -58zM1165 237l58 34l34 -59l-58 -34zM1384 1051l58 34l34 -59l-58 -34zM410 489l34 -59l-59 -34l-34 59z" />
    <glyph glyph-name="fouroclock" unicode="&#x222b;" 
d="M913 0c-204.667 0 -379.167 72.167 -523.5 216.5s-216.5 318.833 -216.5 523.5s72.167 379.167 216.5 523.5s318.833 216.5 523.5 216.5s379.167 -72.167 523.5 -216.5s216.5 -318.833 216.5 -523.5c0 -204 -72.167 -378.333 -216.5 -523s-318.833 -217 -523.5 -217z
M913 49c190.667 0 353.5 67.5 488.5 202.5s202.5 297.833 202.5 488.5s-67.5 353.5 -202.5 488.5s-297.833 202.5 -488.5 202.5s-353.5 -67.5 -488.5 -202.5s-202.5 -297.833 -202.5 -488.5s67.5 -353.5 202.5 -488.5s297.833 -202.5 488.5 -202.5zM913 1382l86 -173h-49
v-447l215 -125l25 43l106 -161l-192 12l24 42l-178 103v-47h-74v90l-77 44l37 64l40 -24v406h-49zM350 706h-68v68h68v-68zM1475 706v68h68v-68h-68zM879 179h68v-68h-68v68zM409 992l-59 34l34 59l59 -34zM1382 430l34 59l59 -34l-34 -59zM1165 1245l34 58l59 -34l-34 -59z
M603 271l59 -34l-34 -59l-59 34zM602 1211l-34 58l59 34l34 -58zM1165 237l58 34l34 -59l-58 -34zM1384 1051l58 34l34 -59l-58 -34zM410 489l34 -59l-59 -34l-34 59z" />
    <glyph glyph-name="fiveoclock" unicode="&#xaa;" 
d="M913 0c-204.667 0 -379.167 72.167 -523.5 216.5s-216.5 318.833 -216.5 523.5s72.167 379.167 216.5 523.5s318.833 216.5 523.5 216.5s379.167 -72.167 523.5 -216.5s216.5 -318.833 216.5 -523.5c0 -204 -72.167 -378.333 -216.5 -523s-318.833 -217 -523.5 -217z
M913 49c190.667 0 353.5 67.5 488.5 202.5s202.5 297.833 202.5 488.5s-67.5 353.5 -202.5 488.5s-297.833 202.5 -488.5 202.5s-353.5 -67.5 -488.5 -202.5s-202.5 -297.833 -202.5 -488.5s67.5 -353.5 202.5 -488.5s297.833 -202.5 488.5 -202.5zM913 1382l87 -173h-50
v-459l130 -225l43 25l11 -193l-161 106l43 25l-81 140h-59v102l-51 89l51 29v361h-49zM350 706h-68v68h68v-68zM1475 706v68h68v-68h-68zM879 179h68v-68h-68v68zM409 992l-59 34l34 59l59 -34zM1382 430l34 59l59 -34l-34 -59zM1165 1245l34 58l59 -34l-34 -59zM603 271
l59 -34l-34 -59l-59 34zM602 1211l-34 58l59 34l34 -58zM1165 237l58 34l34 -59l-58 -34zM1384 1051l58 34l34 -59l-58 -34zM410 489l34 -59l-59 -34l-34 59z" />
    <glyph glyph-name="sixoclock" unicode="&#xba;" 
d="M913 0c-204.667 0 -379.167 72.167 -523.5 216.5s-216.5 318.833 -216.5 523.5s72.167 379.167 216.5 523.5s318.833 216.5 523.5 216.5s379.167 -72.167 523.5 -216.5s216.5 -318.833 216.5 -523.5c0 -204 -72.167 -378.333 -216.5 -523s-318.833 -217 -523.5 -217z
M913 49c190.667 0 353.5 67.5 488.5 202.5s202.5 297.833 202.5 488.5s-67.5 353.5 -202.5 488.5s-297.833 202.5 -488.5 202.5s-353.5 -67.5 -488.5 -202.5s-202.5 -297.833 -202.5 -488.5s67.5 -353.5 202.5 -488.5s297.833 -202.5 488.5 -202.5zM913 298l-86 172h49v739
h-49l86 173l87 -173h-50v-739h50zM350 706h-68v68h68v-68zM879 111v68h68v-68h-68zM409 992l-59 34l34 59l59 -34zM603 271l59 -34l-34 -59l-59 34zM602 1211l-34 58l59 34l34 -58zM410 489l34 -59l-59 -34l-34 59zM1476 706v68h68v-68h-68zM1418 992l-34 59l58 34l34 -59z
M1223 271l34 -59l-58 -34l-34 59zM1224 1211l-59 34l34 58l59 -34zM1417 489l58 -34l-33 -59l-59 34z" />
    <glyph glyph-name="sevenoclock" unicode="&#x3a9;" 
d="M913 0c204.667 0 379.167 72.167 523.5 216.5s216.5 318.833 216.5 523.5s-72.167 379.167 -216.5 523.5s-318.833 216.5 -523.5 216.5s-379.167 -72.167 -523.5 -216.5s-216.5 -318.833 -216.5 -523.5c0 -204 72.167 -378.333 216.5 -523s318.833 -217 523.5 -217z
M913 49c-190.667 0 -353.5 67.5 -488.5 202.5s-202.5 297.833 -202.5 488.5s67.5 353.5 202.5 488.5s297.833 202.5 488.5 202.5s353.5 -67.5 488.5 -202.5s202.5 -297.833 202.5 -488.5s-67.5 -353.5 -202.5 -488.5s-297.833 -202.5 -488.5 -202.5zM913 1382l-87 -173h50
v-459l-130 -225l-43 25l-11 -193l161 106l-43 25l81 140h59v102l51 89l-51 29v361h49zM1476 706h68v68h-68v-68zM351 706v68h-68v-68h68zM947 179h-68v-68h68v68zM1417 992l59 34l-34 59l-59 -34zM444 430l-34 59l-59 -34l34 -59zM661 1245l-34 58l-59 -34l34 -59zM1223 271
l-59 -34l34 -59l59 34zM1224 1211l34 58l-59 34l-34 -58zM661 237l-58 34l-34 -59l58 -34zM442 1051l-58 34l-34 -59l58 -34zM1416 489l-34 -59l59 -34l34 59z" />
    <glyph glyph-name="eightoclock" unicode="&#xe6;" 
d="M913 0c204.667 0 379.167 72.167 523.5 216.5s216.5 318.833 216.5 523.5s-72.167 379.167 -216.5 523.5s-318.833 216.5 -523.5 216.5s-379.167 -72.167 -523.5 -216.5s-216.5 -318.833 -216.5 -523.5c0 -204 72.167 -378.333 216.5 -523s318.833 -217 523.5 -217z
M913 49c-190.667 0 -353.5 67.5 -488.5 202.5s-202.5 297.833 -202.5 488.5s67.5 353.5 202.5 488.5s297.833 202.5 488.5 202.5s353.5 -67.5 488.5 -202.5s202.5 -297.833 202.5 -488.5s-67.5 -353.5 -202.5 -488.5s-297.833 -202.5 -488.5 -202.5zM913 1382l-86 -173h49
v-447l-215 -125l-25 43l-106 -161l192 12l-24 42l178 103v-47h74v90l77 44l-37 64l-40 -24v406h49zM1476 706h68v68h-68v-68zM351 706v68h-68v-68h68zM947 179h-68v-68h68v68zM1417 992l59 34l-34 59l-59 -34zM444 430l-34 59l-59 -34l34 -59zM661 1245l-34 58l-59 -34
l34 -59zM1223 271l-59 -34l34 -59l59 34zM1224 1211l34 58l-59 34l-34 -58zM661 237l-58 34l-34 -59l58 -34zM442 1051l-58 34l-34 -59l58 -34zM1416 489l-34 -59l59 -34l34 59z" />
    <glyph glyph-name="nineoclock" unicode="&#xf8;" 
d="M913 0c204.667 0 379.167 72.167 523.5 216.5s216.5 318.833 216.5 523.5s-72.167 379.167 -216.5 523.5s-318.833 216.5 -523.5 216.5s-379.167 -72.167 -523.5 -216.5s-216.5 -318.833 -216.5 -523.5c0 -204 72.167 -378.333 216.5 -523s318.833 -217 523.5 -217z
M913 49c-190.667 0 -353.5 67.5 -488.5 202.5s-202.5 297.833 -202.5 488.5s67.5 353.5 202.5 488.5s297.833 202.5 488.5 202.5s353.5 -67.5 488.5 -202.5s202.5 -297.833 202.5 -488.5s-67.5 -353.5 -202.5 -488.5s-297.833 -202.5 -488.5 -202.5zM913 1382l-87 -173h50
v-432h-233v50l-173 -87l173 -86v49h233v-74h74v74h74v74h-74v432h49zM1476 706h68v68h-68v-68zM351 706v68h-68v-68h68zM947 179h-68v-68h68v68zM1417 992l59 34l-34 59l-59 -34zM444 430l-34 59l-59 -34l34 -59zM661 1245l-34 58l-59 -34l34 -59zM1223 271l-59 -34l34 -59
l59 34zM1224 1211l34 58l-59 34l-34 -58zM661 237l-58 34l-34 -59l58 -34zM442 1051l-58 34l-34 -59l58 -34zM1416 489l-34 -59l59 -34l34 59z" />
    <glyph glyph-name="tenoclock" unicode="&#xbf;" 
d="M913 0c204.667 0 379.167 72.167 523.5 216.5s216.5 318.833 216.5 523.5s-72.167 379.167 -216.5 523.5s-318.833 216.5 -523.5 216.5s-379.167 -72.167 -523.5 -216.5s-216.5 -318.833 -216.5 -523.5c0 -204 72.167 -378.333 216.5 -523s318.833 -217 523.5 -217z
M913 49c-190.667 0 -353.5 67.5 -488.5 202.5s-202.5 297.833 -202.5 488.5s67.5 353.5 202.5 488.5s297.833 202.5 488.5 202.5s353.5 -67.5 488.5 -202.5s202.5 -297.833 202.5 -488.5s-67.5 -353.5 -202.5 -488.5s-297.833 -202.5 -488.5 -202.5zM913 1382l-87 -173h50
v-405l-178 103l24 43l-192 11l106 -161l25 43l215 -124v-90h74v47l38 -22l37 64l-75 43v448h49zM1476 706h68v68h-68v-68zM351 706v68h-68v-68h68zM947 179h-68v-68h68v68zM1417 992l59 34l-34 59l-59 -34zM444 430l-34 59l-59 -34l34 -59zM661 1245l-34 58l-59 -34l34 -59z
M1223 271l-59 -34l34 -59l59 34zM1224 1211l34 58l-59 34l-34 -58zM661 237l-58 34l-34 -59l58 -34zM442 1051l-58 34l-34 -59l58 -34zM1416 489l-34 -59l59 -34l34 59z" />
    <glyph glyph-name="elevenoclock" unicode="&#xa1;" 
d="M913 0c204.667 0 379.167 72.167 523.5 216.5s216.5 318.833 216.5 523.5s-72.167 379.167 -216.5 523.5s-318.833 216.5 -523.5 216.5s-379.167 -72.167 -523.5 -216.5s-216.5 -318.833 -216.5 -523.5c0 -204 72.167 -378.333 216.5 -523s318.833 -217 523.5 -217z
M913 49c-190.667 0 -353.5 67.5 -488.5 202.5s-202.5 297.833 -202.5 488.5s67.5 353.5 202.5 488.5s297.833 202.5 488.5 202.5s353.5 -67.5 488.5 -202.5s202.5 -297.833 202.5 -488.5s-67.5 -353.5 -202.5 -488.5s-297.833 -202.5 -488.5 -202.5zM913 1382l-86 -173h49
v-330l-66 113l43 25l-161 106l11 -192l43 24l130 -225v-102h74l49 31l-49 87v463h49zM1476 706h68v68h-68v-68zM351 706v68h-68v-68h68zM947 179h-68v-68h68v68zM1417 992l59 34l-34 59l-59 -34zM444 430l-34 59l-59 -34l34 -59zM661 1245l-34 58l-59 -34l34 -59zM1223 271
l-59 -34l34 -59l59 34zM1224 1211l34 58l-59 34l-34 -58zM661 237l-58 34l-34 -59l58 -34zM442 1051l-58 34l-34 -59l58 -34zM1416 489l-34 -59l59 -34l34 59z" />
    <glyph glyph-name="twelveoclock" unicode="&#xac;" 
d="M913 0c-204.667 0 -379.167 72.167 -523.5 216.5s-216.5 318.833 -216.5 523.5s72.167 379.167 216.5 523.5s318.833 216.5 523.5 216.5s379.167 -72.167 523.5 -216.5s216.5 -318.833 216.5 -523.5c0 -204 -72.167 -378.333 -216.5 -523s-318.833 -217 -523.5 -217z
M913 49c190.667 0 353.5 67.5 488.5 202.5s202.5 297.833 202.5 488.5s-67.5 353.5 -202.5 488.5s-297.833 202.5 -488.5 202.5s-353.5 -67.5 -488.5 -202.5s-202.5 -297.833 -202.5 -488.5s67.5 -353.5 202.5 -488.5s297.833 -202.5 488.5 -202.5zM950 1109l50 -99h-50
v-381h-74v381h-49l49 99v100h-49l86 173l87 -173h-50v-100zM880 108v68h67v-68h-67zM656 235l-33 -59l-57 35l34 58zM442 431l-57 -34l-37 55l60 36zM348 709h-66v67h66v-67zM407 994l-59 32l32 56l58 -30zM600 1212l-33 58l55 34l35 -57zM1170 235l56 34l34 -58l-57 -35z
M1384 431l35 57l60 -36l-38 -55zM1479 709v67h65v-67h-65zM1420 994l-31 58l57 30l33 -56zM1226 1212l-56 35l34 57l56 -34z" />
    <glyph glyph-name="arrowdwnleft1" unicode="&#x221a;" 
d="M173 444l629 629v-333h259v876l296 -296l296 296v-529c0 -122.667 -10.5 -209.5 -31.5 -260.5s-74.5 -119.833 -160.5 -206.5l-318 -318c-62 -62 -113.5 -103.167 -154.5 -123.5s-93.167 -30.5 -156.5 -30.5h-30v-333zM318 444l385 -386v189h99c54 0 98 6.66699 132 20
s68.333 37.333 103 72l301 302l-635 1v188zM1160 1382v-641.999h79c116.667 0 198.5 20.167 245.5 60.5s70.5 110.166 70.5 209.499v372l-198 -198z" />
    <glyph glyph-name="arrowdwnrt1" unicode="&#x192;" 
d="M1653 444l-629 -629v333h-29c-63.333 0 -115.5 10.167 -156.5 30.5s-92.5 61.5 -154.5 123.5l-318 318c-86.667 86.667 -140.5 155.5 -161.5 206.5s-31.5 137.833 -31.5 260.5v529l296 -296l296 296v-876h259v333zM1509 444l-385.999 386v-188l-635 -1l302 -302
c34 -34.667 68.167 -58.667 102.5 -72s78.166 -20 131.499 -20h99v-189zM666.001 1382l-197 -198l-197 198v-373c0 -98.667 23.5 -168.167 70.5 -208.5s128.5 -60.5 244.5 -60.5h80z" />
    <glyph glyph-name="arrowupleft1" unicode="&#x2248;" 
d="M173 987l629 629v-333h29c63.333 0 115.5 -10.167 156.5 -30.5s92.5 -61.5 154.5 -123.5l318 -318c86.667 -86.667 140.5 -155.5 161.5 -206.5s31.5 -137.833 31.5 -260.5v-529l-296 296l-296 -296v876h-259v-333zM317 987l385.999 -386v188l635 1l-302 302
c-34 34.667 -68.167 58.667 -102.5 72s-78.166 20 -131.499 20h-99v189zM1160 49l197 198l197 -198v373c0 98.667 -23.5 168.167 -70.5 208.5s-128.5 60.5 -244.5 60.5h-80z" />
    <glyph glyph-name="arrowuprt1" unicode="&#x394;" 
d="M1653 987l-629 -629v333h-259v-876l-296 296l-296 -296v529c0 122.667 10.5 209.5 31.5 260.5s74.5 119.833 160.5 206.5l318 318c62 62 113.5 103.167 154.5 123.5s93.167 30.5 156.5 30.5h30v333zM1508 987l-385 386v-189h-99c-54 0 -98 -6.66699 -132 -20
s-68.333 -37.333 -103 -72l-301 -302l635 -1v-188zM666 49v641.999h-79c-116.667 0 -198.5 -20.167 -245.5 -60.5s-70.5 -110.166 -70.5 -209.499v-372l198 198z" />
    <glyph glyph-name="arrowuprt1" unicode="&#x2206;" 
d="M1653 987l-629 -629v333h-259v-876l-296 296l-296 -296v529c0 122.667 10.5 209.5 31.5 260.5s74.5 119.833 160.5 206.5l318 318c62 62 113.5 103.167 154.5 123.5s93.167 30.5 156.5 30.5h30v333zM1508 987l-385 386v-189h-99c-54 0 -98 -6.66699 -132 -20
s-68.333 -37.333 -103 -72l-301 -302l635 -1v-188zM666 49v641.999h-79c-116.667 0 -198.5 -20.167 -245.5 -60.5s-70.5 -110.166 -70.5 -209.499v-372l198 198z" />
    <glyph glyph-name="arrowleftup1" unicode="&#xab;" horiz-adv-x="2146" 
d="M802 1480l629 -629h-333v-259h876l-296 -296l296 -296h-529c-122.667 0 -209.5 10.5 -260.5 31.5s-119.833 74.5 -206.5 160.5l-318 318c-62 62 -103.167 113.5 -123.5 154.5s-30.5 93.167 -30.5 156.5v30h-333zM802 1335l-386 -385h189v-99c0 -54 6.66699 -98 20 -132
s37.333 -68.333 72 -103l302 -301l1 635h188zM1740 493h-641.999v-79c0 -116.667 20.167 -198.5 60.5 -245.5s110.166 -70.5 209.499 -70.5h372l-198 198z" />
    <glyph glyph-name="arrowrtup1" unicode="&#xbb;" horiz-adv-x="2146" 
d="M1345 1480l629 -629h-333v-29c0 -63.333 -10.167 -115.5 -30.5 -156.5s-61.5 -92.5 -123.5 -154.5l-318 -318c-86.667 -86.667 -155.5 -140.5 -206.5 -161.5s-137.833 -31.5 -260.5 -31.5h-529l296 296l-296 296h876v259h-333zM1345 1336l-386 -385.999h188l1 -635
l302 302c34.667 34 58.667 68.167 72 102.5s20 78.166 20 131.499v99h189zM407 493.001l198 -197l-198 -197h373c98.667 0 168.167 23.5 208.5 70.5s60.5 128.5 60.5 244.5v80z" />
    <glyph glyph-name="arrowleftdwn1" unicode="&#x2026;" horiz-adv-x="2146" 
d="M802 0l-629 629h333v29c0 63.333 10.167 115.5 30.5 156.5s61.5 92.5 123.5 154.5l318 318c86.667 86.667 155.5 140.5 206.5 161.5s137.833 31.5 260.5 31.5h529l-296 -296l296 -296h-876v-259h333zM802 144l386 385.999h-188l-1 635l-302 -302
c-34.667 -34 -58.667 -68.167 -72 -102.5s-20 -78.166 -20 -131.499v-99h-189zM1740 986.999l-198 197l198 197h-373c-98.667 0 -168.167 -23.5 -208.5 -70.5s-60.5 -128.5 -60.5 -244.5v-80z" />
    <glyph glyph-name="arrowrtdwn1" unicode="&#xa0;" horiz-adv-x="2146" 
d="M1345 0l-629 629h333v259h-876l296 296l-296 296h529c122.667 0 209.5 -10.5 260.5 -31.5s119.833 -74.5 206.5 -160.5l318 -318c62 -62 103.167 -113.5 123.5 -154.5s30.5 -93.167 30.5 -156.5v-30h333zM1345 145l386 385h-189v99c0 54 -6.66699 98 -20 132
s-37.333 68.333 -72 103l-302 301l-1 -635h-188zM407 987h641.999v79c0 116.667 -20.167 198.5 -60.5 245.5s-110.166 70.5 -209.499 70.5h-372l198 -198z" />
    <glyph glyph-name="quiltsquare2" unicode="&#xc0;" horiz-adv-x="2048" 
d="M49 1567l185 -0.000976562c24.667 -329.333 175.667 -562.666 453 -699.999c26 -66 42.667 -141 50 -225c-198 67.333 -357.5 182.333 -478.5 345s-190.833 356 -209.5 580zM974 641.999h-189.999c-24.667 326 -176.667 560.333 -456 703
c-25.333 72.667 -40.333 146.667 -45 222c205.333 -74 367.666 -190.833 486.999 -350.5s187.333 -351.167 204 -574.5zM1998 1567l0.00195312 -185c-306.667 -18 -541.334 -170.667 -704.001 -458c-66 -26.667 -139.667 -41.667 -221 -45
c60.667 194 176.167 354.5 346.5 481.5s363.166 195.833 578.499 206.5zM1073 641.999v188c156.667 10.667 295.5 55.167 416.5 133.5s216.5 185.833 286.5 322.5c82 27.333 156 43.333 222 48c-58 -194 -171.833 -354.333 -341.5 -481s-364.167 -197 -583.5 -211z
M1998 -382.001l-190 -0.000976562c0 122 -35.667 246.667 -107 374c-73.333 130.667 -187.333 239.334 -342 326.001c-28.667 76 -44.667 151 -48 225c200 -67.333 360.5 -182.5 481.5 -345.5s189.5 -356.167 205.5 -579.5zM1073 542.998l196.999 -0.000976562
c22 -318 170.333 -553.333 445 -706c4.66699 -16 8 -28 10 -36c20.667 -67.333 33.334 -132.666 38.001 -195.999c-238 93.333 -416 237 -534 431c-104 171.333 -156 340.333 -156 507zM49.002 -382.003l0.00195312 185c138.667 0 275.167 43.333 409.5 130
s232.5 195 294.5 325c83.333 26.667 157 42.334 221 47.001c-70.667 -200.667 -187.834 -361.834 -351.501 -483.501s-354.834 -189.5 -573.501 -203.5zM974.004 542.997v-184.998c-151.333 -7.33301 -287.833 -51.333 -409.5 -132s-219.5 -192 -293.5 -334
c-90.667 -29.333 -164.667 -44 -222 -44c71.333 203.333 189 366.666 353 489.999s354.667 191.666 572 204.999z" />
    <glyph glyph-name="quiltsquare2inv" unicode="&#xc3;" horiz-adv-x="2048" 
d="M0 -432v2048h2048v-2048h-2048zM49 1567c19.333 -225.333 89.333 -419.166 210 -581.499s280.334 -276.833 479.001 -343.5c-8.66699 84.667 -25.334 159.667 -50.001 225c-278 137.333 -429.333 370.666 -454 699.999h-185zM975 642
c-17.333 223.333 -85.666 414.832 -204.999 574.499s-281.333 276.5 -486 350.5c4 -74.667 18.667 -148.667 44 -222c281.333 -143.333 433.666 -377.666 456.999 -702.999h190zM1999 1567c-215.333 -10.667 -408.332 -79.5 -578.999 -206.5
s-286.334 -287.5 -347.001 -481.5c81.333 3.33301 155 18.333 221 45c162.667 287.333 397.667 440 705 458v185zM1073 641.999c219.333 14 413.833 84.333 583.5 211s283.834 287 342.501 481c-66.667 -4.66699 -140.667 -20.667 -222 -48
c-70.667 -136.667 -166.334 -244.167 -287.001 -322.5s-259.667 -122.833 -417 -133.5v-188zM1999 -382.001c-15.333 222 -83.833 414.835 -205.5 578.502s-282.5 279.167 -482.5 346.5c4 -74 20.333 -149 49 -225c154 -86.667 267.667 -195.334 341 -326.001
c71.333 -126.667 107 -251.334 107 -374.001h191zM1073 543.001c0 -166.667 52.001 -335.667 156.001 -507c118.667 -194 296.667 -337.667 534 -431c-4 62 -16.333 127.333 -37 196c-2.66699 8 -6.33398 20 -11.001 36c-274.667 152 -422.667 387.333 -444 706h-198z
M49.002 -381.999c218.667 14 409.833 81.833 573.5 203.5s281.167 282.834 352.5 483.501c-64 -4.66699 -138 -20.334 -222 -47.001c-62 -130 -160.167 -238.333 -294.5 -325s-270.833 -130 -409.5 -130v-185zM975.001 543.001
c-218 -13.333 -408.666 -81.332 -571.999 -203.999s-281.333 -286.334 -354 -491.001c57.333 0 131.666 14.667 222.999 44c73.333 141.333 171 252.5 293 333.5s258.667 125.167 410 132.5v185z" />
    <glyph glyph-name="leafccwsw" unicode="&#xd5;" horiz-adv-x="2048" 
d="M1759 1567l239 -198.999c-346 -118 -634 -256.333 -864 -415s-476.333 -388.667 -739 -690c22 -63.333 38.5 -121.833 49.5 -175.5s16.5 -102.5 16.5 -146.5c0 -96 -21.667 -173.833 -65 -233.5s-99.666 -89.5 -168.999 -89.5c-53.333 0 -96.333 19.333 -129 58
s-49 89.667 -49 153s15.167 132.166 45.5 206.499s75.5 154.5 135.5 240.5c-31.333 86.667 -55 177.334 -71 272.001s-24 193.334 -24 296.001c0 217.333 54.667 392.166 164 524.499s253.666 198.5 432.999 198.5c188.667 0 367 -101.333 535 -304
c181.333 141.333 345.333 242.666 492 303.999zM1123 762.001l199 134c211.333 -116.667 317 -267.334 317 -452.001c0 -121.333 -44.833 -219.166 -134.5 -293.499s-207.167 -111.5 -352.5 -111.5c-208 0 -406.333 61.667 -595 185l105 114
c132 -84.667 279.333 -127 442 -127c102.667 0 183.667 20.167 243 60.5s89 95.5 89 165.5c0 66 -28.5 128.667 -85.5 188s-132.833 105 -227.5 137zM1146 1174c-106.667 117.333 -233.334 176 -380.001 176c-141.333 0 -256 -53.5 -344 -160.5s-132 -246.167 -132 -417.5
c0 -54 4.5 -110.167 13.5 -168.5s22.167 -118.833 39.5 -181.5c254.667 327.333 522.334 578 803.001 752z" />
    <glyph glyph-name="leafccwnw" unicode="&#x152;" horiz-adv-x="2048" 
d="M1998 -143l-198.999 -239c-118 346 -256.333 634 -415 864s-388.667 476.333 -690 739c-63.333 -22 -121.833 -38.5 -175.5 -49.5s-102.5 -16.5 -146.5 -16.5c-96 0 -173.833 21.667 -233.5 65s-89.5 99.666 -89.5 168.999c0 53.333 19.333 96.333 58 129
s89.667 49 153 49s132.166 -15.167 206.499 -45.5s154.5 -75.5 240.5 -135.5c86.667 31.333 177.334 55 272.001 71s193.334 24 296.001 24c217.333 0 392.166 -54.667 524.499 -164s198.5 -253.666 198.5 -432.999c0 -188.667 -101.333 -367 -304 -535
c141.333 -181.333 242.666 -345.333 303.999 -492zM1193 493l134 -199c-116.667 -211.333 -267.334 -317 -452.001 -317c-121.333 0 -219.166 44.833 -293.499 134.5s-111.5 207.167 -111.5 352.5c0 208 61.667 406.333 185 595l114 -105
c-84.667 -132 -127 -279.333 -127 -442c0 -102.667 20.167 -183.667 60.5 -243s95.5 -89 165.5 -89c66 0 128.667 28.5 188 85.5s105 132.833 137 227.5zM1605 470c117.333 106.667 176 233.334 176 380.001c0 141.333 -53.5 256 -160.5 344s-246.167 132 -417.5 132
c-54 0 -110.167 -4.5 -168.5 -13.5s-118.833 -22.167 -181.5 -39.5c327.333 -254.667 578 -522.334 752 -803.001z" />
    <glyph glyph-name="leafccwse" unicode="&#x153;" horiz-adv-x="2048" 
d="M49 1328l198.999 239c118 -346 256.333 -634 415 -864s388.667 -476.333 690 -739c63.333 22 121.833 38.5 175.5 49.5s102.5 16.5 146.5 16.5c96 0 173.833 -21.667 233.5 -65s89.5 -99.666 89.5 -168.999c0 -53.333 -19.333 -96.333 -58 -129s-89.667 -49 -153 -49
s-132.166 15.167 -206.499 45.5s-154.5 75.5 -240.5 135.5c-86.667 -31.333 -177.334 -55 -272.001 -71s-193.334 -24 -296.001 -24c-217.333 0 -392.166 54.667 -524.499 164s-198.5 253.666 -198.5 432.999c0 188.667 101.333 367 304 535
c-141.333 181.333 -242.666 345.333 -303.999 492zM853.999 692l-134 199c116.667 211.333 267.334 317 452.001 317c121.333 0 219.166 -44.833 293.499 -134.5s111.5 -207.167 111.5 -352.5c0 -208 -61.667 -406.333 -185 -595l-114 105c84.667 132 127 279.333 127 442
c0 102.667 -20.167 183.667 -60.5 243s-95.5 89 -165.5 89c-66 0 -128.667 -28.5 -188 -85.5s-105 -132.833 -137 -227.5zM441.999 715c-117.333 -106.667 -176 -233.334 -176 -380.001c0 -141.333 53.5 -256 160.5 -344s246.167 -132 417.5 -132
c54 0 110.167 4.5 168.5 13.5s118.833 22.167 181.5 39.5c-327.333 254.667 -578 522.334 -752 803.001z" />
    <glyph glyph-name="leafccwne" unicode="&#x2013;" horiz-adv-x="2048" 
d="M288 -382l-239 198.999c346 118 634 256.333 864 415s476.333 388.667 739 690c-22 63.333 -38.5 121.833 -49.5 175.5s-16.5 102.5 -16.5 146.5c0 96 21.667 173.833 65 233.5s99.666 89.5 168.999 89.5c53.333 0 96.333 -19.333 129 -58s49 -89.667 49 -153
s-15.167 -132.166 -45.5 -206.499s-75.5 -154.5 -135.5 -240.5c31.333 -86.667 55 -177.334 71 -272.001s24 -193.334 24 -296.001c0 -217.333 -54.667 -392.166 -164 -524.499s-253.666 -198.5 -432.999 -198.5c-188.667 0 -367 101.333 -535 304
c-181.333 -141.333 -345.333 -242.666 -492 -303.999zM924 422.999l-199 -134c-211.333 116.667 -317 267.334 -317 452.001c0 121.333 44.833 219.166 134.5 293.499s207.167 111.5 352.5 111.5c208 0 406.333 -61.667 595 -185l-105 -114
c-132 84.667 -279.333 127 -442 127c-102.667 0 -183.667 -20.167 -243 -60.5s-89 -95.5 -89 -165.5c0 -66 28.5 -128.667 85.5 -188s132.833 -105 227.5 -137zM901 10.999c106.667 -117.333 233.334 -176 380.001 -176c141.333 0 256 53.5 344 160.5s132 246.167 132 417.5
c0 54 -4.5 110.167 -13.5 168.5s-22.167 118.833 -39.5 181.5c-254.667 -327.333 -522.334 -578 -803.001 -752z" />
    <glyph glyph-name="leafnw" unicode="&#x2014;" horiz-adv-x="2048" 
d="M1759 -382c-147.333 61.333 -311.331 162.667 -491.998 304c-168 -203.333 -346.333 -305 -535 -305c-180 0 -324.5 66.5 -433.5 199.5s-163.5 308.5 -163.5 526.5c0 102 8 200.167 24 294.5s39.667 184.833 71 271.5c-60 86 -105.167 166.167 -135.5 240.5
s-45.5 142.833 -45.5 205.5c0 63.333 16.333 114.5 49 153.5s75.667 58.5 129 58.5c69.333 0 125.666 -30 168.999 -90s65 -137.667 65 -233c0 -44 -5.5 -92.833 -16.5 -146.5s-27.5 -112.167 -49.5 -175.5c262.667 -302 509.167 -532.333 739.5 -691
s518.166 -297 863.499 -415zM1123 422.001c95.333 32.667 171.333 78.501 228 137.501s85 121.833 85 188.5c0 69.333 -29.833 124.166 -89.5 164.499s-140.5 60.5 -242.5 60.5c-162.667 0 -310 -42 -442 -126l-105 113c188.667 124 387 186 595 186
c145.333 0 262.833 -37.333 352.5 -112s134.5 -172.667 134.5 -294c0 -184.667 -105.667 -335 -317 -451zM1146 10.002c-280 174.667 -547.667 425.333 -803 752c-17.333 -62 -30.5 -122.333 -39.5 -181s-13.5 -115.667 -13.5 -171c0 -170.667 44 -309.167 132 -415.5
s202.667 -159.5 344 -159.5c147.333 0 274 58.333 380 175z" />
    <glyph glyph-name="leafsw" unicode="&#x201c;" horiz-adv-x="2048" 
d="M1998 1328c-61.333 -147.333 -162.667 -311.331 -304 -491.998c203.333 -168 305 -346.333 305 -535c0 -180 -66.5 -324.5 -199.5 -433.5s-308.5 -163.5 -526.5 -163.5c-102 0 -200.167 8 -294.5 24s-184.833 39.667 -271.5 71c-86 -60 -166.167 -105.167 -240.5 -135.5
s-142.833 -45.5 -205.5 -45.5c-63.333 0 -114.5 16.333 -153.5 49s-58.5 75.667 -58.5 129c0 69.333 30 125.666 90 168.999s137.667 65 233 65c44 0 92.833 -5.5 146.5 -16.5s112.167 -27.5 175.5 -49.5c302 262.667 532.333 509.167 691 739.5s297 518.166 415 863.499z
M1194 692.002c-32.667 95.333 -78.501 171.333 -137.501 228s-121.833 85 -188.5 85c-69.333 0 -124.166 -29.833 -164.499 -89.5s-60.5 -140.5 -60.5 -242.5c0 -162.667 42 -310 126 -442l-113 -105c-124 188.667 -186 387 -186 595c0 145.333 37.333 262.833 112 352.5
s172.667 134.5 294 134.5c184.667 0 335 -105.667 451 -317zM1606 715.002c-174.667 -280 -425.333 -547.667 -752 -803c62 -17.333 122.333 -30.5 181 -39.5s115.667 -13.5 171 -13.5c170.667 0 309.167 44 415.5 132s159.5 202.667 159.5 344
c0 147.333 -58.333 274 -175 380z" />
    <glyph glyph-name="leafne" unicode="&#x201d;" horiz-adv-x="2048" 
d="M50 -143c61.333 147.333 162.667 311.331 304 491.998c-203.333 168 -305 346.333 -305 535c0 180 66.5 324.5 199.5 433.5s308.5 163.5 526.5 163.5c102 0 200.167 -8 294.5 -24s184.833 -39.667 271.5 -71c86 60 166.167 105.167 240.5 135.5s142.833 45.5 205.5 45.5
c63.333 0 114.5 -16.333 153.5 -49s58.5 -75.667 58.5 -129c0 -69.333 -30 -125.666 -90 -168.999s-137.667 -65 -233 -65c-44 0 -92.833 5.5 -146.5 16.5s-112.167 27.5 -175.5 49.5c-302 -262.667 -532.333 -509.167 -691 -739.5s-297 -518.166 -415 -863.499z
M854.001 492.998c32.667 -95.333 78.501 -171.333 137.501 -228s121.833 -85 188.5 -85c69.333 0 124.166 29.833 164.499 89.5s60.5 140.5 60.5 242.5c0 162.667 -42 310 -126 442l113 105c124 -188.667 186 -387 186 -595c0 -145.333 -37.333 -262.833 -112 -352.5
s-172.667 -134.5 -294 -134.5c-184.667 0 -335 105.667 -451 317zM442.002 469.998c174.667 280 425.333 547.667 752 803c-62 17.333 -122.333 30.5 -181 39.5s-115.667 13.5 -171 13.5c-170.667 0 -309.167 -44 -415.5 -132s-159.5 -202.667 -159.5 -344
c0 -147.333 58.333 -274 175 -380z" />
    <glyph glyph-name="leafse" unicode="&#x2018;" horiz-adv-x="2048" 
d="M288 1567c147.333 -61.333 311.331 -162.667 491.998 -304c168 203.333 346.333 305 535 305c180 0 324.5 -66.5 433.5 -199.5s163.5 -308.5 163.5 -526.5c0 -102 -8 -200.167 -24 -294.5s-39.667 -184.833 -71 -271.5c60 -86 105.167 -166.167 135.5 -240.5
s45.5 -142.833 45.5 -205.5c0 -63.333 -16.333 -114.5 -49 -153.5s-75.667 -58.5 -129 -58.5c-69.333 0 -125.666 30 -168.999 90s-65 137.667 -65 233c0 44 5.5 92.833 16.5 146.5s27.5 112.167 49.5 175.5c-262.667 302 -509.167 532.333 -739.5 691
s-518.166 297 -863.499 415zM923.998 762.999c-95.333 -32.667 -171.333 -78.501 -228 -137.501s-85 -121.833 -85 -188.5c0 -69.333 29.833 -124.166 89.5 -164.499s140.5 -60.5 242.5 -60.5c162.667 0 310 42 442 126l105 -113c-188.667 -124 -387 -186 -595 -186
c-145.333 0 -262.833 37.333 -352.5 112s-134.5 172.667 -134.5 294c0 184.667 105.667 335 317 451zM900.998 1175c280 -174.667 547.667 -425.333 803 -752c17.333 62 30.5 122.333 39.5 181s13.5 115.667 13.5 171c0 170.667 -44 309.167 -132 415.5
s-202.667 159.5 -344 159.5c-147.333 0 -274 -58.333 -380 -175z" />
    <glyph glyph-name="deleteleft" unicode="&#x2019;" horiz-adv-x="2566" 
d="M2393 0h-1480l-740 740l740 740h1480v-1480zM2245 148v1184h-1271l-592 -592l592 -592h1271zM1871 1211l105 -105l-366 -366l366 -366l-105 -105l-366 366l-366 -366l-105 105l367 366l-367 366l105 105l366 -366z" />
    <glyph glyph-name="deleteright" unicode="&#xf7;" horiz-adv-x="2566" 
d="M173 0h1480l740 740l-740 740h-1480v-1480zM321 148v1184h1271l592 -592l-592 -592h-1271zM695 1211l-105 -105l366 -366l-366 -366l105 -105l366 366l366 -366l105 105l-367 366l367 366l-105 105l-366 -366z" />
    <glyph glyph-name="head2left" unicode="&#x25ca;" horiz-adv-x="1627" 
d="M1455 0l-1282 740l1282 740l-428 -740zM271 740h699l350 606z" />
    <glyph glyph-name="head2right" unicode="&#xff;" horiz-adv-x="1627" 
d="M173 0l1282 740l-1282 740l428 -740zM1357 740h-699l-350 606z" />
    <glyph glyph-name="head2up" unicode="&#x178;" 
d="M173 198l740 1282l740 -1282l-740 428zM913 1382v-699l606 -350z" />
    <glyph glyph-name="head2down" unicode="&#x2044;" 
d="M1653 1282l-740 -1282l-740 1282l740 -428zM913 98v699l-606 350z" />
    <glyph glyph-name="circleleft" unicode="&#x20ac;" 
d="M716 493h895c-54.667 -150 -145.167 -269.667 -271.5 -359s-268.5 -134 -426.5 -134c-204.667 0 -379.167 72.167 -523.5 216.5s-216.5 318.833 -216.5 523.5s72.167 379.167 216.5 523.5s318.833 216.5 523.5 216.5c158 0 300.167 -44.667 426.5 -134
s216.833 -209 271.5 -359h-895v246l-494 -493l494 -493v246z" />
    <glyph glyph-name="circleright" unicode="&#x2039;" 
d="M1110 493h-895c54.667 -150 145.167 -269.667 271.5 -359s268.5 -134 426.5 -134c204.667 0 379.167 72.167 523.5 216.5s216.5 318.833 216.5 523.5s-72.167 379.167 -216.5 523.5s-318.833 216.5 -523.5 216.5c-158 0 -300.167 -44.667 -426.5 -134
s-216.833 -209 -271.5 -359h895v246l494 -493l-494 -493v246z" />
    <glyph glyph-name="circleup" unicode="&#x203a;" 
d="M666 937v-895c-150 54.667 -269.667 145.167 -359 271.5s-134 268.5 -134 426.5c0 204.667 72.167 379.167 216.5 523.5s318.833 216.5 523.5 216.5s379.167 -72.167 523.5 -216.5s216.5 -318.833 216.5 -523.5c0 -158 -44.667 -300.167 -134 -426.5
s-209 -216.833 -359 -271.5v895h246l-493 494l-493 -494h246z" />
    <glyph glyph-name="circledown" unicode="&#xfb01;" 
d="M1160 543v895c150 -54.667 269.667 -145.167 359 -271.5s134 -268.5 134 -426.5c0 -204.667 -72.167 -379.167 -216.5 -523.5s-318.833 -216.5 -523.5 -216.5s-379.167 72.167 -523.5 216.5s-216.5 318.833 -216.5 523.5c0 158 44.667 300.167 134 426.5
s209 216.833 359 271.5v-895h-246l493 -494l493 494h-246z" />
    <glyph glyph-name="barb2left" unicode="&#xfb02;" horiz-adv-x="2006" 
d="M173 740l740 740h279l-641 -641h1283v-198h-1283l641 -641h-279z" />
    <glyph glyph-name="barb2right" unicode="&#x2021;" horiz-adv-x="2006" 
d="M1834 740l-740 740h-279l641 -641h-1283v-198h1283l-641 -641h279z" />
    <glyph glyph-name="barb2up" unicode="&#xb7;" 
d="M913 1480l740 -740v-279l-641 641v-1283h-198v1283l-641 -641v279z" />
    <glyph glyph-name="barb2down" unicode="&#x201a;" 
d="M913 0l-740 740v279l641 -641v1283h198v-1283l641 641v-279z" />
    <glyph glyph-name="barb2nw" unicode="&#x201e;" horiz-adv-x="1589" 
d="M173 1362h1047l197 -197h-907l907 -907l-139 -140l-908 907v-907l-197 198v1046z" />
    <glyph glyph-name="barb2ne" unicode="&#x2030;" horiz-adv-x="1589" 
d="M1417 1362h-1047l-197 -197h907l-907 -907l139 -140l908 907v-907l197 198v1046z" />
    <glyph glyph-name="barb2sw" unicode="&#xc2;" horiz-adv-x="1589" 
d="M173 118v1047l197 197l1 -907l907 907l139 -139l-907 -907h907l-197 -198h-1047z" />
    <glyph glyph-name="barb2se" unicode="&#xca;" horiz-adv-x="1589" 
d="M1417 118v1047l-197 197l-1 -907l-907 907l-139 -139l907 -907h-907l197 -198h1047z" />
    <glyph glyph-name="barb4left" unicode="&#xc1;" horiz-adv-x="2186" 
d="M173 740l740 740h558l-543 -543h1086v-394h-1086l543 -543h-558z" />
    <glyph glyph-name="barb4right" unicode="&#xcb;" horiz-adv-x="2186" 
d="M2014 740l-740 740h-558l543 -543h-1086v-394h1086l-543 -543h558z" />
    <glyph glyph-name="barb4up" unicode="&#xc8;" 
d="M913 1480l740 -740v-558l-543 543v-1086h-394v1086l-543 -543v558z" />
    <glyph glyph-name="barb4down" unicode="&#xcd;" 
d="M913 0l-740 740v558l543 -543v1086h394v-1086l543 543v-558z" />
    <glyph glyph-name="barb4nw" unicode="&#xce;" horiz-adv-x="1787" 
d="M173 1461h1047l395 -395h-768l768 -768l-280 -279l-767 768v-768l-395 395v1047z" />
    <glyph glyph-name="barb4ne" unicode="&#xcf;" horiz-adv-x="1787" 
d="M1615 1461h-1047l-395 -395h768l-768 -768l280 -279l767 768v-768l395 395v1047z" />
    <glyph glyph-name="barb4sw" unicode="&#xcc;" horiz-adv-x="1787" 
d="M173 19v1047l395 395v-768l767 768l280 -279l-768 -768h768l-395 -395h-1047z" />
    <glyph glyph-name="barb4se" unicode="&#xd3;" horiz-adv-x="1787" 
d="M1615 19v1047l-395 395v-768l-767 768l-280 -279l768 -768h-768l395 -395h1047z" />
    <glyph glyph-name="bleft" unicode="&#xd4;" 
d="M1653 1036v-592h-847v-337l-633 633l633 633v-337h847zM313 740l394 -395v198h848v394h-848v198z" />
    <glyph glyph-name="bright" unicode="&#xe01e;" 
d="M173 1036v-592h847v-337l633 633l-633 633v-337h-847zM1513 740l-394 -395v198h-848v394h848v198z" />
    <glyph glyph-name="bright" unicode="&#xf8ff;" 
d="M173 1036v-592h847v-337l633 633l-633 633v-337h-847zM1513 740l-394 -395v198h-848v394h848v198z" />
    <glyph glyph-name="bup" unicode="&#xd2;" horiz-adv-x="1660" 
d="M1126 0h-592v847h-337l633 633l633 -633h-337v-847zM830 1340l-395 -394h198v-848h394v848h198z" />
    <glyph glyph-name="bdown" unicode="&#xda;" horiz-adv-x="1660" 
d="M534 1480h592v-847h337l-633 -633l-633 633h337v847zM830 140l395 394h-198v848h-394v-848h-198z" />
    <glyph glyph-name="bleftright" unicode="&#xdb;" horiz-adv-x="2171" 
d="M806 444v-337l-633 633l633 633v-337h560v337l633 -633l-633 -633v337h-560zM707 543h757v-198l395 395l-395 395v-198h-757v198l-394 -395l394 -395v198z" />
    <glyph glyph-name="bupdown" unicode="&#xd9;" horiz-adv-x="1660" 
d="M534 847h-337l633 633l633 -633h-337v-560h337l-633 -633l-633 633h337v560zM633 946v-757h-198l395 -395l395 395h-198v757h198l-395 394l-395 -394h198z" />
    <glyph glyph-name="bnw" unicode="&#x131;" horiz-adv-x="1601" 
d="M1010 224l-599 599l-238 -238v895h895l-238 -238l599 -599zM271 1382v-559l140 140l599 -599l279 279l-599 599l140 140h-559z" />
    <glyph glyph-name="bne" unicode="&#x2c6;" horiz-adv-x="1601" 
d="M592 224l599 599l238 -238v895h-895l238 -238l-599 -599zM1331 1382v-559l-140 140l-599 -599l-279 279l599 599l-140 140h559z" />
    <glyph glyph-name="bsw" unicode="&#x2dc;" horiz-adv-x="1601" 
d="M1429 837l-599 -599l238 -238h-895v895l238 -238l599 599zM272 99h558l-140 139l599 599l-279 279l-599 -599l-139 140v-558z" />
    <glyph glyph-name="bse" unicode="&#xaf;" horiz-adv-x="1601" 
d="M173 837l599 -599l-238 -238h895v895l-238 -238l-599 599zM1330 99h-558l140 139l-599 599l279 279l599 -599l139 140v-558z" />
    <glyph glyph-name="bdash1" unicode="&#x2d8;" horiz-adv-x="987" 
d="M99 1036h789v-592h-789v592zM198 937v-394h592v394h-592z" />
    <glyph glyph-name="bdash2" unicode="&#x2d9;" horiz-adv-x="789" 
d="M99 1036h592v-592h-592v592zM198 937v-394h394v394h-394z" />
    <glyph glyph-name="xmarkbld" unicode="&#x2da;" horiz-adv-x="1301" 
d="M645 551l-14.999 -21c-104 -157.333 -189.333 -236 -256 -236c-76.667 0 -152 62.333 -226 187c10 -0.666992 17.333 -1 22 -1c87.333 0 184.666 66.667 291.999 200l27 34l-35 38c-98 104 -147 192.333 -147 265c0 59.333 53.667 129.333 161 210
c15.333 -103.333 61 -204 137 -302l30 -38l24 31c111.333 142 212.333 213 303 213c70.667 0 124.334 -53.667 161.001 -161c-10.667 1.33301 -18.334 2 -23.001 2c-32 0 -77 -21.5 -135 -64.5s-107 -91.5 -147 -145.5l-30 -41l29 -28c107.333 -104 219.333 -156 336 -156
c-62.667 -126.667 -128 -190 -196 -190c-61.333 0 -150 54 -266 162z" />
    <glyph glyph-name="checkbld" unicode="&#xb8;" horiz-adv-x="1609" 
d="M1500 1568l34.999 -50c-142.667 -107.333 -301.334 -272.666 -476.001 -495.999s-308 -432 -400 -626l-74 -50c-61.333 -42.667 -103 -74.334 -125 -95.001c-8.66699 31.333 -27.667 82.666 -57 153.999l-28 65c-40 93.333 -77.167 162.333 -111.5 207
s-72.833 74.334 -115.5 89.001c72 76 138 114 198 114c51.333 0 108.333 -69.667 171 -209l31 -70c112.667 190 257.334 374.667 434.001 554s349.334 317 518.001 413z" />
    <glyph glyph-name="boxxmarkbld" unicode="&#x2dd;" horiz-adv-x="1826" 
d="M321 148h1184v1184h-1184v-1184zM173 0v1480h1480v-1480h-1480zM907 551l-15 -21c-104 -157.333 -189.333 -236 -256 -236c-76.667 0 -152 62.333 -226 187c10 -0.666992 17.333 -1 22 -1c87.333 0 184.666 66.667 291.999 200l27 34l-35 38
c-98.667 104 -148 192.333 -148 265c0 59.333 54 129.333 162 210c15.333 -103.333 61 -204 137 -302l30 -38l24 31c111.333 142 212.333 213 303 213c70.667 0 124.334 -53.667 161.001 -161c-10.667 1.33301 -18.667 2 -24 2c-31.333 0 -76 -21.5 -134 -64.5
s-107 -91.5 -147 -145.5l-31 -41l30 -28c107.333 -104 219 -156 335 -156c-62 -126.667 -127 -190 -195 -190c-61.333 0 -150 54 -266 162z" />
    <glyph glyph-name="boxcheckbld" unicode="&#x2db;" horiz-adv-x="1826" 
d="M1653 0h-1480v1480h1427c46.667 31.333 90.667 58.333 132 81l36 -51c-34.667 -26 -73 -57.333 -115 -94v-1416zM1505 1267c-101.333 -108 -212.501 -249.168 -333.501 -423.501s-210.833 -323.166 -269.5 -446.499l-74 -50c-61.333 -42.667 -103 -74.667 -125 -96
c-8.66699 32 -27.667 83.667 -57 155l-28 64c-40 94 -77.167 163.333 -111.5 208s-72.833 74 -115.5 88c72 76.667 138.333 115 199 115c50.667 0 107.334 -69.667 170.001 -209l31 -70c118 198.667 301.333 420.667 550 666l68 65l-1088 -1v-1184h1184v1119z" />
    <glyph glyph-name="windowslogo" unicode="&#x2c7;" horiz-adv-x="2119" 
d="M168 1415v-59l-68 -28v58zM161 1224v-53l-55 -25v52zM161 1032v-52l-55 -25v52zM168 843v-59l-68 -28v57zM161 644v-51l-55 -25v52zM161 450v-52l-55 -25v51zM168 263v-60l-68 -28v57zM340 1382v-69l-92 -35v68zM335 1182v-63l-74 -29v63zM335 989v-62l-74 -29v64z
M340 803v-68l-92 -36v68zM335 603v-62l-74 -30v64zM335 408v-62l-74 -30v63zM340 221v-68l-92 -38v68zM512 1339v-82l-119 -47v81zM506 1138v-73l-100 -39v71zM506 945v-72l-100 -40v72zM512 760v-82l-119 -47v81zM506 559v-72l-100 -41v72zM506 372v-74l-100 -40v72z
M512 185v-82l-119 -48v82zM700 1344v-108l-149 -60v107zM692 1143v-99l-125 -51v99zM692 950v-98l-125 -51v99zM700 764v-108l-149 -59v108zM692 563v-99l-125 -50v99zM692 376v-99l-125 -50v98zM700 190v-108l-149 -60v107zM897 1362v-141l-166 -68v141zM889 1150v-118
l-142 -57v119zM889 966v-119l-142 -56v118zM897 783v-141l-166 -67v141zM889 572v-120l-142 -55v118zM889 384v-119l-142 -57v119zM897 208v-141l-166 -67v141zM1098 1433v-193l-177 -74v180c61.333 35.333 120.333 64.333 177 87zM1098 1220v-167l-177 -75v168zM1098 1032
v-169l-177 -75v169zM1098 842v-167l-177 -75v168zM1098 654v-172l-177 -76v173zM1098 461v-168l-177 -77v170zM1098 272v-179.999c-69.333 -26.667 -128.333 -52.334 -177 -77.001v181zM2018 1426l0.000976562 -1351c-114 74.667 -256.333 112 -427 112
c-141.333 0 -299.333 -29.333 -474 -88v180c92.667 36.667 194.667 63 306 79v440c-94 -12 -196 -44.667 -306 -98v129c95.333 44 197.333 74 306 90v427c-98 -18.667 -200 -50.334 -306 -95.001v190c155.333 63.333 307.666 95 456.999 95
c160.667 0 308.667 -36.667 444 -110zM1841 1305c-74 37.333 -162.667 56 -266 56c-12 0 -24 -0.666992 -36 -2v-432l40 1c88.667 0 176 -14 262 -42v419zM1841 758.002c-79.333 34.667 -167.333 52 -264 52c-12 0 -24.667 -0.666992 -38 -2v-440h40
c96.667 0 184 -12 262 -36v426zM1957 20.002v29h-12v5h29v-5h-12v-29h-5zM1978 20.002v34h8l12 -26l12 26h8v-34h-5v28l-12 -26h-6l-12 26v-28h-5z" />
    <glyph glyph-name="glyph2" horiz-adv-x="1536" 
 />
  </font>
</defs>
</svg>
